<svg width="46" height="46" viewBox="0 0 46 46" fill="none" xmlns="http://www.w3.org/2000/svg">
<path d="M2.7166 23.4866C1.55001 20.5774 2.99382 17.4195 4.52257 14.0763C5.96722 10.9169 7.60447 7.33611 7.46968 3.29425C7.45492 2.85375 7.71758 2.45117 8.12666 2.28716L9.02524 1.927C9.54984 1.7167 10.1468 1.96061 10.374 2.4784C13.8111 10.3131 16.6689 14.1711 19.6401 14.9877C21.6103 15.5294 23.8782 14.8155 26.7773 12.7421C27.0388 12.5551 27.3717 12.4985 27.6803 12.5886C27.9889 12.6788 28.239 12.9057 28.3587 13.2041C28.9629 14.7108 29.229 16.3063 29.1497 17.9464C29.1217 18.5242 28.6318 18.9698 28.053 18.9419C27.4753 18.9139 27.0296 18.423 27.0575 17.8452C27.1004 16.9566 27.0194 16.0848 26.8159 15.2402C23.8871 17.0839 21.4058 17.6453 19.0849 17.0074C17.1191 16.4671 15.2998 15.0442 13.5231 12.6572C12.2146 10.8995 10.9079 8.61476 9.47632 5.57014C9.10159 9.09872 7.69496 12.1754 6.42741 14.9475C5.03292 17.9974 3.82842 20.6314 4.66061 22.707C5.15211 23.9325 5.89328 25.0213 6.86319 25.9429C7.28253 26.3413 7.2995 27.0043 6.901 27.4235C6.6952 27.6402 6.41871 27.7494 6.1416 27.7494C5.88249 27.7494 5.62308 27.6539 5.42043 27.4613C4.23069 26.3308 3.3209 24.9935 2.7166 23.4866ZM44.429 37.1841C44.429 37.7625 43.96 38.2314 43.3817 38.2314H38.8325C38.8186 38.2317 38.8043 38.2317 38.7904 38.2314H35.3497L32.0764 43.6431C31.8866 43.9566 31.5468 44.1483 31.1802 44.1483H14.8197C14.4531 44.1483 14.1133 43.9566 13.9235 43.6431L10.6502 38.2314H7.20974C7.19581 38.2317 7.18147 38.2317 7.16764 38.2314H2.61847C2.04015 38.2314 1.57117 37.7625 1.57117 37.1841C1.57117 36.6058 2.04015 36.1368 2.61847 36.1368H6.17354C6.71625 27.3269 14.056 20.3255 23 20.3255C24.3757 20.3255 25.7451 20.492 27.0704 20.8206C27.6318 20.9596 27.9742 21.5276 27.835 22.0889C27.6959 22.6503 27.1276 22.9926 26.5666 22.8536C25.406 22.566 24.206 22.4201 23 22.4201C15.2113 22.4201 8.81191 28.4829 8.27265 36.1368H17.1274C16.4976 35.6133 16.0235 35.0656 15.6772 34.5865C14.658 33.1765 13.9568 31.1601 14.8258 30.0645C15.1715 29.6287 15.8495 29.292 16.7163 29.655C19.2921 30.7329 21.7231 30.768 23.9422 29.7588C26.6087 28.5462 28.7288 25.9179 29.9117 22.3582C30.5362 20.4789 32.3993 19.6182 34.2461 19.5881C34.1491 18.7067 33.847 17.8526 33.3513 17.1001C33.0332 16.6171 33.1667 15.9676 33.6499 15.6493C34.133 15.3313 34.7825 15.4647 35.1007 15.9479C35.888 17.1433 36.3195 18.5246 36.3699 19.9332C38.4862 20.6888 39.6864 22.5413 39.4005 24.7224C39.0617 27.306 37.727 30.0115 35.6428 32.3404C34.2702 33.8741 32.6489 35.1755 30.9347 36.1367H37.7276C37.6564 35.1224 37.482 34.1214 37.2064 33.149C37.0487 32.5926 37.372 32.0135 37.9285 31.8558C38.4851 31.6983 39.064 32.0214 39.2217 32.5779C39.5499 33.736 39.7525 34.9289 39.8267 36.1367H43.3817C43.96 36.1368 44.429 36.6058 44.429 37.1841ZM18.2801 34.362C19.5829 35.5286 22.5729 37.1905 27.9576 35.2149C32.0651 33.7077 36.6915 29.2693 37.3236 24.4502C37.4912 23.1725 36.7982 22.4835 36.1382 22.1219C36.1266 22.1684 36.1144 22.2149 36.1018 22.2612C35.9504 22.8194 35.375 23.1491 34.8169 22.9979C34.2587 22.8466 33.9289 22.2713 34.0802 21.713C34.0826 21.7041 34.085 21.6951 34.0873 21.6863C33.0964 21.7462 32.1788 22.1779 31.8993 23.0188C30.5306 27.1381 28.0125 30.2089 24.8093 31.6657C22.2856 32.8133 19.4665 32.8777 16.6147 31.8613C16.8012 32.502 17.2986 33.4833 18.2801 34.362ZM32.9018 38.2314H13.0982L15.4101 42.0537H30.5896L32.9018 38.2314ZM20.2993 27.2538C19.7209 27.2538 19.2519 27.7228 19.2519 28.3011C19.2519 28.8794 19.7209 29.3484 20.2993 29.3484H20.4982C21.0766 29.3484 21.5455 28.8794 21.5455 28.3011C21.5455 27.7228 21.0766 27.2538 20.4982 27.2538H20.2993ZM11.7786 32.5307H11.5796C11.0013 32.5307 10.5323 32.9996 10.5323 33.578C10.5323 34.1563 11.0013 34.6253 11.5796 34.6253H11.7786C12.3569 34.6253 12.8259 34.1563 12.8259 33.578C12.8259 32.9996 12.3569 32.5307 11.7786 32.5307ZM16.3341 25.4359C15.7557 25.4359 15.2868 25.9049 15.2868 26.4832C15.2868 27.0615 15.7557 27.5305 16.3341 27.5305H16.533C17.1114 27.5305 17.5803 27.0615 17.5803 26.4832C17.5803 25.9049 17.1114 25.4359 16.533 25.4359H16.3341ZM23.6472 23.8681C23.0688 23.8681 22.5999 24.3371 22.5999 24.9154C22.5999 25.4937 23.0688 25.9627 23.6472 25.9627H23.8462C24.4245 25.9627 24.8935 25.4937 24.8935 24.9154C24.8935 24.3371 24.4245 23.8681 23.8462 23.8681H23.6472Z" fill="#9C9C9C" stroke="#9C9C9C" stroke-width="1.74551"/>
</svg>
