<svg width="16" height="16" viewBox="0 0 16 16" fill="none" xmlns="http://www.w3.org/2000/svg">
<path d="M8.7 0.699954C8.88333 0.883287 8.97933 1.11662 8.988 1.39995C8.99666 1.68329 8.909 1.91662 8.725 2.09995L3.825 6.99995L15 6.99995C15.2833 6.99995 15.521 7.09595 15.713 7.28795C15.905 7.47995 16.0007 7.71729 16 7.99995C16 8.28329 15.904 8.52095 15.712 8.71295C15.52 8.90495 15.2827 9.00062 15 8.99995L3.825 8.99995L8.725 13.9C8.90833 14.0833 8.996 14.3166 8.988 14.6C8.98 14.8833 8.884 15.1166 8.7 15.3C8.51666 15.4833 8.28333 15.575 8 15.575C7.71666 15.575 7.48333 15.4833 7.3 15.3L0.699998 8.69995C0.599998 8.61662 0.528997 8.51229 0.486997 8.38695C0.444997 8.26162 0.42433 8.13262 0.424996 7.99995C0.424996 7.86662 0.445663 7.74162 0.486997 7.62495C0.52833 7.50829 0.599331 7.39995 0.699998 7.29995L7.3 0.699954C7.48333 0.516621 7.71666 0.424952 8 0.424952C8.28333 0.424952 8.51666 0.516621 8.7 0.699954Z" fill="#FF8600"/>
</svg>
