<svg width="20" height="20" viewBox="0 0 20 20" fill="none" xmlns="http://www.w3.org/2000/svg">
<path d="M9.83335 10.8333H12.5C12.7361 10.8333 12.9342 10.7533 13.0942 10.5933C13.2542 10.4333 13.3339 10.2355 13.3334 9.99996C13.3334 9.76385 13.2534 9.56579 13.0934 9.40579C12.9334 9.24579 12.7356 9.16607 12.5 9.16663H9.83335L10.5834 8.41663C10.7361 8.26385 10.8125 8.0694 10.8125 7.83329C10.8125 7.59718 10.7361 7.40274 10.5834 7.24996C10.4306 7.09718 10.2361 7.02079 10 7.02079C9.76391 7.02079 9.56946 7.09718 9.41669 7.24996L7.25002 9.41663C7.08335 9.58329 7.00002 9.77774 7.00002 9.99996C7.00002 10.2222 7.08335 10.4166 7.25002 10.5833L9.41669 12.75C9.56946 12.9027 9.76391 12.9791 10 12.9791C10.2361 12.9791 10.4306 12.9027 10.5834 12.75C10.7361 12.5972 10.8125 12.4027 10.8125 12.1666C10.8125 11.9305 10.7361 11.7361 10.5834 11.5833L9.83335 10.8333ZM10 18.3333C8.84724 18.3333 7.76391 18.1144 6.75002 17.6766C5.73613 17.2388 4.85419 16.6452 4.10419 15.8958C3.35419 15.1458 2.76058 14.2638 2.32335 13.25C1.88613 12.2361 1.66724 11.1527 1.66669 9.99996C1.66669 8.84718 1.88558 7.76385 2.32335 6.74996C2.76113 5.73607 3.35474 4.85413 4.10419 4.10413C4.85419 3.35413 5.73613 2.76051 6.75002 2.32329C7.76391 1.88607 8.84724 1.66718 10 1.66663C11.1528 1.66663 12.2361 1.88551 13.25 2.32329C14.2639 2.76107 15.1459 3.35468 15.8959 4.10413C16.6459 4.85413 17.2397 5.73607 17.6775 6.74996C18.1153 7.76385 18.3339 8.84718 18.3334 9.99996C18.3334 11.1527 18.1145 12.2361 17.6767 13.25C17.2389 14.2638 16.6453 15.1458 15.8959 15.8958C15.1459 16.6458 14.2639 17.2397 13.25 17.6775C12.2361 18.1152 11.1528 18.3338 10 18.3333ZM10 16.6666C11.8611 16.6666 13.4375 16.0208 14.7292 14.7291C16.0209 13.4375 16.6667 11.8611 16.6667 9.99996C16.6667 8.13885 16.0209 6.56246 14.7292 5.27079C13.4375 3.97913 11.8611 3.33329 10 3.33329C8.13891 3.33329 6.56252 3.97913 5.27085 5.27079C3.97919 6.56246 3.33335 8.13885 3.33335 9.99996C3.33335 11.8611 3.97919 13.4375 5.27085 14.7291C6.56252 16.0208 8.13891 16.6666 10 16.6666Z" fill="#005D9F"/>
</svg>
