<svg width="21" height="21" viewBox="0 0 21 21" fill="none" xmlns="http://www.w3.org/2000/svg">
<path d="M11.3132 7.88882H14.9723L14.5657 9.51508H11.3132V16.8333H9.6869V9.51508H6.43437V7.88882H9.6869V6.36664C9.6869 4.91682 9.83814 4.39073 10.1211 3.86057C10.3984 3.33675 10.8268 2.9084 11.3506 2.63111C11.8807 2.34814 12.4068 2.1969 13.8566 2.1969C14.2811 2.1969 14.6535 2.23756 14.9723 2.31887V3.82316H13.8566C12.78 3.82316 12.4524 3.88659 12.1182 4.06548C11.871 4.1972 11.6872 4.38097 11.5555 4.62816C11.3766 4.96236 11.3132 5.29005 11.3132 6.36664V7.88882Z" fill="#FF8600"/>
</svg>
