<svg width="65" height="67" viewBox="0 0 65 67" fill="none" xmlns="http://www.w3.org/2000/svg">
<g clip-path="url(#clip0_50_2367)">
<g filter="url(#filter0_d_50_2367)">
<path d="M36.1951 33.41L33.2449 36.3749L40.0671 43.2312L43.0172 40.2663L36.1951 33.41Z" fill="#81C1EA" stroke="#474747" stroke-miterlimit="10"/>
<path d="M39.9323 43.2947L43.0777 40.1336C43.6344 39.574 44.5383 39.574 45.095 40.1336L64.5782 59.7141C65.1349 60.2736 65.1349 61.182 64.5782 61.7415L61.4328 64.9026C60.8761 65.4621 59.9722 65.4621 59.4154 64.9026L39.9323 45.3221C39.3756 44.7626 39.3756 43.8542 39.9323 43.2947Z" fill="#FF8600"/>
<path d="M6.30929 6.34082C-1.76394 14.4544 -1.76394 27.6036 6.30929 35.7172C14.3825 43.8308 27.4664 43.8308 35.5396 35.7172C43.6128 27.6036 43.6128 14.4544 35.5396 6.34082C27.4715 -1.77277 14.3825 -1.77277 6.30929 6.34082ZM33.0803 33.2456C26.3671 39.9924 15.4818 39.9924 8.76858 33.2456C2.05537 26.4989 2.05537 15.5592 8.76858 8.8124C15.4818 2.06564 26.3671 2.06564 33.0803 8.8124C39.7935 15.5592 39.7935 26.4989 33.0803 33.2456Z" stroke="#474747" stroke-miterlimit="10"/>
</g>
</g>
<defs>
<filter id="filter0_d_50_2367" x="-0.245636" y="-0.24437" width="65.2414" height="68.8266" filterUnits="userSpaceOnUse" color-interpolation-filters="sRGB">
<feFlood flood-opacity="0" result="BackgroundImageFix"/>
<feColorMatrix in="SourceAlpha" type="matrix" values="0 0 0 0 0 0 0 0 0 0 0 0 0 0 0 0 0 0 127 0" result="hardAlpha"/>
<feOffset dy="3.26"/>
<feColorMatrix type="matrix" values="0 0 0 0 0 0 0 0 0 0 0 0 0 0 0 0 0 0 0.1 0"/>
<feBlend mode="normal" in2="BackgroundImageFix" result="effect1_dropShadow_50_2367"/>
<feBlend mode="normal" in="SourceGraphic" in2="effect1_dropShadow_50_2367" result="shape"/>
</filter>
<clipPath id="clip0_50_2367">
<rect width="65" height="67" fill="white"/>
</clipPath>
</defs>
</svg>
