<svg width="21" height="21" viewBox="0 0 21 21" fill="none" xmlns="http://www.w3.org/2000/svg">
<path d="M18.0469 13.7191C17.7704 12.9629 16.0954 12.8572 15.3148 11.1252C15.266 10.9951 15.2741 10.9056 15.4042 10.8243C16.0059 10.4259 16.4287 10.2063 16.6727 9.74286C16.8516 9.40948 16.876 9.01917 16.7377 8.66139C16.5507 8.16538 16.0791 7.84826 15.5018 7.84826C15.2985 7.84826 15.1359 7.88892 15.0546 7.90518C15.0627 7.56367 15.0546 7.20589 15.022 6.84811C14.9163 5.60402 14.4772 4.94538 14.0219 4.42498C13.7535 4.12412 12.6883 3.01013 10.6718 3.01013C8.65521 3.01013 7.59001 4.12412 7.32167 4.42498C6.86632 4.94538 6.42723 5.60402 6.32152 6.84811C6.29713 7.20589 6.289 7.56367 6.289 7.90518C6.19955 7.88079 6.04506 7.84826 5.84177 7.84826C5.27258 7.84826 4.79283 8.15725 4.60581 8.66139C4.46758 9.01104 4.49198 9.40948 4.67086 9.74286C4.92294 10.2145 5.33763 10.4259 5.93935 10.8243C6.06945 10.9138 6.07758 10.9951 6.02879 11.1252C5.24006 12.8572 3.57314 12.9629 3.29667 13.7191C3.1747 14.0443 3.25602 14.4102 3.55687 14.7192C4.02036 15.199 4.88228 15.3453 5.05304 15.4592C5.19127 15.573 5.17501 15.9145 5.56531 16.191C5.8743 16.4024 6.21581 16.4187 6.58172 16.4268C7.64693 16.4675 7.88273 16.6463 8.2893 16.8984C8.80157 17.2155 9.50087 17.6465 10.6718 17.6465C11.8427 17.6465 12.542 17.2155 13.0542 16.8984C13.4608 16.6463 13.6966 16.4675 14.7618 16.4268C15.1277 16.4105 15.4692 16.4024 15.7782 16.191C16.1767 15.9145 16.1604 15.573 16.2905 15.4592C16.4613 15.3453 17.3232 15.199 17.7867 14.7192C18.0875 14.4102 18.1688 14.0443 18.0469 13.7191ZM17.2094 14.15C16.9085 14.4672 16.1848 14.5566 15.8026 14.8168C15.4123 15.1583 15.4774 15.4185 15.3229 15.5242C15.2172 15.5974 15.0302 15.6055 14.7374 15.6218C13.599 15.6625 13.1843 15.8739 12.6883 16.1829C11.5256 16.8984 10.8751 16.8334 10.6718 16.8334C10.4685 16.8334 9.81799 16.8984 8.66334 16.1747C8.16733 15.8657 7.76076 15.6625 6.61425 15.6137C6.32152 15.6055 6.1345 15.5893 6.02879 15.5161C5.8743 15.4104 5.93122 15.1502 5.54905 14.8087C5.15874 14.5485 4.44319 14.459 4.14233 14.1419C4.09354 14.0931 4.05289 14.0281 4.04475 14.0199C4.10167 13.9386 4.37814 13.776 4.58142 13.6622C5.21566 13.2881 6.19142 12.7352 6.78501 11.426C6.99642 10.8568 6.8094 10.4015 6.3947 10.1332C5.4596 9.53958 5.47586 9.51518 5.38642 9.35256C5.3543 9.29021 5.33554 9.22185 5.33134 9.15185C5.32714 9.08184 5.33759 9.01173 5.36203 8.94599C5.4596 8.68579 5.72794 8.66139 5.83364 8.66139C5.98814 8.66139 5.98001 8.66953 7.11026 8.96225C7.094 7.82387 7.07773 7.45796 7.12652 6.92129C7.21597 5.85609 7.59001 5.35195 7.92339 4.96978C8.15107 4.72584 9.03738 3.807 10.6718 3.82326C12.3062 3.807 13.1925 4.72584 13.412 4.96978C13.7454 5.35195 14.1195 5.85609 14.2089 6.92129C14.2577 7.45796 14.2414 7.82387 14.2252 8.96225C15.3635 8.66953 15.3473 8.66139 15.5018 8.66139C15.6156 8.66139 15.8758 8.68579 15.9734 8.94599C16.0303 9.08422 16.0222 9.23059 15.949 9.35256C15.8596 9.51518 15.8758 9.53145 14.9488 10.1413C14.5341 10.4096 14.3471 10.865 14.5585 11.4342C15.1521 12.7433 16.1279 13.2962 16.7621 13.6703C16.9654 13.7923 17.2419 13.9467 17.2988 14.0281C17.2988 14.0362 17.25 14.1012 17.2094 14.15Z" fill="#FF8600"/>
</svg>
