<svg width="361" height="207" viewBox="0 0 361 207" fill="none" xmlns="http://www.w3.org/2000/svg">
<g clip-path="url(#clip0_673_64516)">
<path d="M326.887 22.7261C320.88 26.2786 312.963 31.4588 312.963 31.4588C312.963 31.4588 311.631 29.7881 309.677 27.3755C310.41 26.9327 310.944 26.6017 311.087 26.4917C311.824 25.9353 310.129 22.6629 309.207 22.5529C308.945 22.5271 308.039 23.102 306.898 23.9535C301.646 17.5029 294.804 9.28447 294.266 9.51799C293.389 9.90221 292.315 10.6645 292.315 10.6645L300.969 28.7083C300.329 29.2378 299.929 29.5882 299.929 29.5882C299.934 32.6541 300.762 32.5931 300.762 32.5931C300.762 32.5931 301.41 32.2163 302.377 31.6526L305.178 37.4889L291.471 47.0055C291.471 47.0055 286.486 42.1835 285.165 43.0988C283.844 44.014 288.199 49.0672 288.199 49.0672C288.199 49.0672 287.293 50.7679 287.54 51.6564C287.786 52.5448 289.247 52.843 289.247 52.843C289.247 52.843 288.529 60.8941 289.915 60.214C291.297 59.5208 292.58 51.0034 292.58 51.0034L306.965 43.93L307.736 50.9628C306.773 51.5395 306.128 51.9294 306.128 51.9294C306.128 51.9294 305.503 52.7221 306.962 54.9344C306.962 54.9344 307.414 54.7669 308.13 54.5118L310.516 76.2511C310.516 76.2511 311.651 75.7109 312.467 75.1046C312.964 74.7273 313.958 61.8718 314.656 51.9127C315.881 51.3617 316.809 50.8652 316.984 50.5775C317.597 49.5769 317.255 45.5068 316.456 45.841C316.292 45.9149 315.762 46.2167 315.021 46.6334C315.275 42.9185 315.432 40.3561 315.432 40.3561C315.432 40.3561 323.592 36.0513 329.603 32.5118C335.61 28.9592 335.099 23.5711 335.099 23.5711C335.099 23.5711 332.898 19.1866 326.887 22.7261Z" fill="white"/>
<path d="M282.684 52.8485L274.296 57.7934L275.101 60.6938L283.489 55.7489L282.684 52.8485Z" fill="white"/>
<path d="M246.362 74.283L221.424 89.0128L222.229 91.9133L247.17 77.1965L246.362 74.283Z" fill="white"/>
<path d="M212.808 94.0935L199.319 102.058L200.625 104.679L213.616 97.007L212.808 94.0935Z" fill="white"/>
<path d="M194.167 103.852L179.425 112.559L180.824 117.602L195.566 108.896L194.167 103.852Z" fill="white"/>
<path d="M174.628 116.633L150.206 131.051L154.433 131.933L175.436 119.547L174.628 116.633Z" fill="white"/>
<path d="M83.6338 170.351L82.3093 171.127C82.5812 172.107 82.8387 173.077 83.064 174.055L84.4387 173.252C85.2728 172.753 85.7789 171.698 85.5577 170.901C85.3366 170.104 84.4787 169.849 83.6338 170.351Z" fill="white"/>
<path d="M41.9769 197.009L41.7478 197.143C40.9137 197.642 40.4076 198.697 40.6288 199.494C40.8499 200.291 41.7078 200.546 42.5527 200.044L42.7818 199.91C43.6159 199.411 44.122 198.356 43.9008 197.559C43.6796 196.762 42.8218 196.508 41.9769 197.009Z" fill="white"/>
<path d="M32.9745 202.66L32.7453 202.794C31.9112 203.293 31.4052 204.348 31.6263 205.145C31.8475 205.942 32.7054 206.196 33.5502 205.694L33.7794 205.56C34.6135 205.061 35.1195 204.006 34.8984 203.209C34.6772 202.412 33.8193 202.158 32.9745 202.66Z" fill="white"/>
<path d="M50.6004 195.25C50.3786 194.242 50.2931 193.225 50.0749 192.23L47.8553 193.535C47.0212 194.034 46.5152 195.089 46.7363 195.886C46.9575 196.683 47.8154 196.938 48.6602 196.436L50.6005 195.292C50.6005 195.292 50.5933 195.266 50.5897 195.253L50.6004 195.25Z" fill="white"/>
<path d="M98.057 161.832L89.5118 166.877C88.6777 167.376 88.1716 168.431 88.3928 169.228C88.6139 170.025 89.4718 170.279 90.3167 169.777L98.8619 164.732C99.696 164.234 100.202 163.178 99.9809 162.381C99.7598 161.585 98.9019 161.33 98.057 161.832Z" fill="white"/>
<path d="M102.831 160.718C103.052 161.515 103.91 161.769 104.755 161.268L141.553 139.546L138.439 138.004L103.95 158.367C103.116 158.866 102.61 159.921 102.831 160.718Z" fill="white"/>
</g>
<defs>
<clipPath id="clip0_673_64516">
<rect width="340.975" height="119.385" fill="white" transform="translate(0 91.1777) rotate(-15.5097)"/>
</clipPath>
</defs>
</svg>
