<?xml version="1.0" encoding="UTF-8"?><svg id="Layer_1" xmlns="http://www.w3.org/2000/svg" viewBox="0 0 60 60"><defs><style>.cls-1{fill:#fff;}.cls-2{fill:#00a7e1;}.cls-3{fill:#00a1cc;}</style></defs><path class="cls-2" d="M48.21,2.24c1.71,0,3.13,1.41,3.13,3.13s-1.41,3.13-3.13,3.13-3.12-1.31-3.12-3.13,1.41-3.13,3.12-3.13Z"/><path class="cls-2" d="M34.39,7.28c1.01,0,1.92,.81,1.92,1.92,0,1.01-.81,1.92-1.92,1.92s-1.92-.81-1.92-1.92,.81-1.92,1.92-1.92Z"/><path class="cls-2" d="M26.63,8.09c.4,.4,.71,1.11,.71,1.71,0,1.41-1.11,2.42-2.42,2.42H13.83c-.71,0-1.31-.3-1.71-.71-.4-.4-.71-1.11-.71-1.71,0-1.41,1.11-2.42,2.42-2.42h11.09c.71,0,1.31,.3,1.71,.71Z"/><path class="cls-2" d="M35.4,32.69l-3.73,7.36-5.65,11.09-2.62,5.04c-1.31,.3-2.62,.4-3.93,.4-9.48,0-17.24-7.76-17.24-17.24,0-7.56,4.84-13.91,11.59-16.33V12.32h11.09v10.69c4.74,1.61,8.57,5.14,10.49,9.68Z"/><path class="cls-2" d="M45.38,26.84v6.55l12.3,24.2H23.2l.2-.4,2.62-5.04,5.65-11.09,3.73-7.36,.1-.2V15.75h9.88v11.09h0Zm1.21,20.97c0-.3-.1-.71-.4-.91-.2-.2-.61-.4-.91-.4s-.7,.1-.91,.4c-.2,.2-.4,.61-.4,.91s.1,.71,.4,.91c.2,.2,.61,.4,.91,.4s.71-.1,.91-.4c.3-.2,.4-.5,.4-.91Zm-3.63,4.94c0-.3-.1-.71-.4-.91-.2-.2-.61-.4-.91-.4s-.71,.1-.91,.4c-.2,.2-.4,.6-.4,.91s.1,.71,.4,.91c.2,.2,.6,.4,.91,.4s.71-.1,.91-.4c.2-.3,.4-.61,.4-.91Zm-1.31-8.57c0-.3-.1-.71-.4-.91-.2-.2-.61-.4-.91-.4s-.71,.1-.91,.4c-.2,.3-.4,.6-.4,.91s.1,.71,.4,.91c.2,.2,.61,.4,.91,.4s.71-.1,.91-.4c.3-.3,.4-.6,.4-.91Zm-1.21-4.94c0-.3-.1-.71-.4-.91-.2-.2-.61-.4-.91-.4s-.71,.1-.91,.4c-.2,.2-.4,.6-.4,.91s.1,.71,.4,.91c.2,.2,.61,.4,.91,.4s.71-.1,.91-.4c.3-.3,.4-.6,.4-.91Zm-4.94,9.78c0-.3-.1-.71-.4-.91-.2-.2-.6-.4-.91-.4s-.71,.1-.91,.4c-.2,.2-.4,.6-.4,.91s.1,.71,.4,.91c.2,.2,.6,.4,.91,.4s.71-.1,.91-.4c.2-.3,.4-.5,.4-.91Z"/><path class="cls-1" d="M46.29,46.91c.2,.2,.4,.61,.4,.91s-.1,.71-.4,.91c-.2,.2-.61,.4-.91,.4s-.71-.1-.91-.4c-.2-.2-.4-.6-.4-.91s.1-.71,.4-.91c.2-.2,.6-.4,.91-.4,.3,.1,.6,.2,.91,.4Z"/><path class="cls-1" d="M42.56,51.85c.2,.2,.4,.6,.4,.91s-.1,.71-.4,.91c-.3,.2-.61,.4-.91,.4s-.71-.1-.91-.4c-.2-.2-.4-.61-.4-.91s.1-.71,.4-.91c.2-.2,.6-.4,.91-.4s.71,.2,.91,.4Z"/><path class="cls-1" d="M41.35,43.28c.2,.2,.4,.6,.4,.91s-.1,.71-.4,.91c-.2,.2-.6,.4-.91,.4s-.71-.1-.91-.4c-.2-.2-.4-.6-.4-.91s.1-.71,.4-.91c.3-.2,.6-.4,.91-.4s.6,.1,.91,.4Z"/><path class="cls-1" d="M40.04,38.34c.2,.2,.4,.6,.4,.91s-.1,.71-.4,.91c-.2,.2-.61,.4-.91,.4s-.71-.1-.91-.4c-.2-.2-.4-.6-.4-.91s.1-.71,.4-.91c.2-.2,.61-.4,.91-.4,.4,0,.71,.1,.91,.4Z"/><path class="cls-1" d="M35.2,48.22c.2,.2,.4,.6,.4,.91s-.1,.71-.4,.91c-.3,.2-.6,.4-.91,.4s-.71-.1-.91-.4c-.2-.2-.4-.6-.4-.91s.1-.71,.4-.91c.2-.2,.6-.4,.91-.4s.61,.1,.91,.4Z"/><g><path class="cls-2" d="M24.92,14.64c-.71,0-1.31-.61-1.31-1.31s.61-1.31,1.31-1.31,1.21-.5,1.21-1.21c0-.3-.1-.61-.3-.81-.2-.2-.5-.4-.81-.4H13.83c-.71,0-1.21,.5-1.21,1.21,0,.3,.1,.6,.4,.81,.2,.2,.5,.3,.81,.3,.71,0,1.31,.6,1.31,1.31s-.6,1.31-1.31,1.31c-1.01,0-1.92-.4-2.62-1.11-.71-.71-1.11-1.61-1.11-2.62,0-2.02,1.71-3.73,3.73-3.73h11.09c1.01,0,1.92,.4,2.62,1.11,.71,.71,1.11,1.61,1.11,2.62,0,2.12-1.71,3.83-3.73,3.83Z"/><path class="cls-2" d="M19.47,58C9.29,58,.92,49.73,.92,39.45c0-7.56,4.64-14.32,11.59-17.14V12.32c0-.71,.6-1.31,1.31-1.31h11.09c.71,0,1.31,.6,1.31,1.31v9.88c4.64,1.81,8.37,5.44,10.38,10.08,.3,.6,0,1.41-.71,1.61-.6,.3-1.41,0-1.61-.71-1.81-4.23-5.34-7.56-9.68-8.97-.5-.2-.91-.6-.91-1.21V13.53H15.14v9.58c0,.5-.3,1.01-.81,1.21-6.45,2.22-10.69,8.27-10.69,15.12,0,8.77,7.16,16.03,16.03,16.03,1.21,0,2.42-.1,3.63-.4,.71-.2,1.31,.3,1.51,.91,.2,.71-.3,1.31-.91,1.51-1.61,.3-3.02,.5-4.44,.5Z"/><path class="cls-1" d="M7.98,41.56c-.71,0-1.31-.6-1.31-1.31,0-2.92,.91-5.65,2.52-8.07,1.61-2.32,3.83-4.13,6.45-5.14,.61-.3,1.41,.1,1.61,.71,.3,.61-.1,1.41-.71,1.61-4.44,1.81-7.36,6.05-7.36,10.89,0,.71-.5,1.31-1.21,1.31Z"/><path class="cls-2" d="M45.38,20.79h-3.73c-.71,0-1.31-.6-1.31-1.31s.6-1.31,1.31-1.31h3.73c.71,0,1.31,.6,1.31,1.31s-.61,1.31-1.31,1.31Z"/><path class="cls-2" d="M45.38,24.42h-3.73c-.71,0-1.31-.6-1.31-1.31s.6-1.31,1.31-1.31h3.73c.71,0,1.31,.61,1.31,1.31s-.61,1.31-1.31,1.31Z"/><path class="cls-2" d="M45.38,28.15h-3.73c-.71,0-1.31-.61-1.31-1.31s.6-1.31,1.31-1.31h3.73c.71,0,1.31,.61,1.31,1.31s-.61,1.31-1.31,1.31Z"/><path class="cls-2" d="M34.39,12.32c-1.71,0-3.12-1.41-3.12-3.13s1.41-3.13,3.12-3.13,3.13,1.41,3.13,3.13-1.41,3.13-3.13,3.13Zm0-3.73c-.3,0-.6,.3-.6,.61s.2,.6,.6,.6,.61-.3,.61-.6c0-.4-.3-.61-.61-.61Z"/><path class="cls-2" d="M48.21,9.8c-2.42,0-4.44-2.02-4.44-4.44s2.02-4.44,4.44-4.44,4.44,2.02,4.44,4.44-2.02,4.44-4.44,4.44Zm0-6.25c-1.01,0-1.92,.81-1.92,1.92,0,1.01,.81,1.92,1.92,1.92,1.01,0,1.92-.81,1.92-1.92s-.81-1.92-1.92-1.92Z"/><path class="cls-3" d="M57.68,59.01H23.2c-.4,0-.81-.2-1.11-.6-.2-.4-.2-.81,0-1.21l.2-.4,12-23.49V15.75c0-.71,.61-1.31,1.31-1.31h9.88c.71,0,1.31,.61,1.31,1.31v17.34l12.2,23.89c.2,.4,.2,.81,0,1.21-.5,.5-.91,.81-1.31,.81Zm-32.46-2.52h30.35l-11.29-22.38c-.1-.2-.1-.4-.1-.6V17.06h-7.36v16.43c0,.2,0,.4-.1,.6l-.1,.2-11.39,22.18Z"/></g></svg>