<svg width="16" height="16" viewBox="0 0 16 16" fill="none" xmlns="http://www.w3.org/2000/svg">
<path d="M8.46634 3.13411C8.58856 3.25634 8.65256 3.41189 8.65834 3.60078C8.66412 3.78967 8.60567 3.94523 8.48301 4.06745L5.21634 7.33411L12.6663 7.33411C12.8552 7.33411 13.0137 7.39811 13.1417 7.52611C13.2697 7.65411 13.3334 7.81234 13.333 8.00078C13.333 8.18967 13.269 8.34811 13.141 8.47611C13.013 8.60411 12.8548 8.66789 12.6663 8.66745H5.21634L8.48301 11.9341C8.60523 12.0563 8.66367 12.2119 8.65834 12.4008C8.65301 12.5897 8.58901 12.7452 8.46634 12.8674C8.34412 12.9897 8.18856 13.0508 7.99967 13.0508C7.81078 13.0508 7.65523 12.9897 7.53301 12.8674L3.13301 8.46745C3.06634 8.41189 3.019 8.34234 2.991 8.25878C2.963 8.17523 2.94923 8.08923 2.94967 8.00078C2.94967 7.91189 2.96345 7.82856 2.991 7.75078C3.01856 7.673 3.06589 7.60078 3.13301 7.53411L7.53301 3.13411C7.65523 3.01189 7.81078 2.95078 7.99967 2.95078C8.18856 2.95078 8.34412 3.01189 8.46634 3.13411Z" fill="#FF8600"/>
</svg>
