<svg width="61" height="68" viewBox="0 0 61 68" fill="none" xmlns="http://www.w3.org/2000/svg">
<g clip-path="url(#clip0_50_2357)">
<path d="M1.21 42.31L5.42 41.34C5.42 41.34 2.83 31.29 9.29 21.53C15.75 11.77 25.2 10.41 26.46 10.22C27.72 10.04 29.07 9.91 29.07 9.91V14.69L40.16 7.68L29.07 0.889999V5.5C29.07 5.5 14.67 5.33 5.81 18.88C-2.17 31.09 1.21 42.31 1.21 42.31Z" fill="white" stroke="black" stroke-miterlimit="10"/>
<path d="M4.97 51.56L8.71 49.36C8.71 49.36 13.81 58.04 21.44 60.53C29.07 63.02 31.58 62.65 35.72 61.81C39.86 60.97 40.4 60.44 40.4 60.44L42.18 64.48C42.18 64.48 32.2 69.14 21.03 65.02C8.88 60.55 4.97 51.56 4.97 51.56Z" fill="white" stroke="black" stroke-miterlimit="10"/>
<path d="M55.35 42.94L59.51 44.02C59.51 44.02 58.34 48.88 56.17 52.11C54 55.34 51.29 58.38 51.29 58.38L48.29 55.18C48.29 55.18 50.48 52.64 51.97 50.66C53.46 48.68 55.34 43.33 55.34 42.94H55.35Z" fill="#7BC3F5"/>
<path d="M56.15 34.32L60.46 34.01C60.46 34.01 60.16 30.04 59.57 27.87C58.74 24.79 57.44 22.58 57.44 22.58L53.56 24.54C53.56 24.54 54.84 27.29 55.34 29.67C55.84 32.05 56.14 34.32 56.14 34.32H56.15Z" fill="#7BC3F5"/>
<path d="M51.04 20.32L54.51 17.67C54.51 17.67 53.35 16.13 52.44 15.18C51.53 14.23 49.82 12.59 49.82 12.59L47.05 15.99C47.05 15.99 47.96 16.75 49.19 18.03C50.42 19.31 51.04 20.33 51.04 20.33V20.32Z" fill="#7BC3F5"/>
<path d="M26.23 39.72C27.35 38.88 28.34 38 29.18 37.09C30.57 35.59 31.28 33.8 31.28 31.78C31.28 29.76 30.55 27.95 29.11 26.5C27.67 25.05 25.89 24.32 23.83 24.32C21.77 24.32 20.02 25.06 18.57 26.52C17.75 27.35 16.36 29.22 16.36 32.42V32.97H20.25L20.3 32.48C20.45 30.98 20.82 29.92 21.39 29.35C22.08 28.67 22.87 28.34 23.82 28.34C24.77 28.34 25.59 28.67 26.27 29.35C26.95 30.03 27.28 30.83 27.28 31.79C27.28 32.75 26.92 33.64 26.18 34.45C25.38 35.33 24.45 36.16 23.43 36.92L19.61 39.77C18.79 40.38 16.14 42.71 16.38 47.17L16.41 47.69H31.27V43.73H21.96C22.35 43.04 23.61 41.67 26.22 39.72H26.23Z" fill="#FF8600"/>
<path d="M43.68 37.7V24.36H39.81L30.79 41.68H39.59V47.68H43.68V41.68H46.79V37.7H43.68ZM37.75 37.7L39.6 33.88V37.7H37.75Z" fill="#FF8600"/>
</g>
<defs>
<clipPath id="clip0_50_2357">
<rect width="60.46" height="67.22" fill="white"/>
</clipPath>
</defs>
</svg>
