<svg width="21" height="21" viewBox="0 0 21 21" fill="none" xmlns="http://www.w3.org/2000/svg">
<path d="M10.3283 6.82167C9.63474 6.82167 8.95677 7.02733 8.38011 7.41265C7.80345 7.79796 7.35399 8.34562 7.08858 8.98637C6.82318 9.62713 6.75373 10.3322 6.88904 11.0124C7.02434 11.6926 7.35832 12.3175 7.84873 12.8079C8.33914 13.2983 8.96396 13.6322 9.64418 13.7676C10.3244 13.9029 11.0295 13.8334 11.6702 13.568C12.311 13.3026 12.8586 12.8531 13.2439 12.2765C13.6293 11.6998 13.8349 11.0218 13.8349 10.3283C13.8337 9.39866 13.4639 8.50744 12.8065 7.85008C12.1492 7.19272 11.2579 6.82288 10.3283 6.82167ZM10.3283 12.9202C9.81567 12.9202 9.31456 12.7681 8.88833 12.4834C8.4621 12.1986 8.1299 11.7938 7.93372 11.3202C7.73755 10.8466 7.68623 10.3254 7.78623 9.82266C7.88624 9.31989 8.13309 8.85806 8.49557 8.49558C8.85805 8.13311 9.31987 7.88626 9.82264 7.78625C10.3254 7.68624 10.8465 7.73757 11.3201 7.93374C11.7937 8.12991 12.1985 8.46212 12.4833 8.88834C12.7681 9.31457 12.9201 9.81568 12.9201 10.3283C12.9201 11.0157 12.6471 11.675 12.161 12.161C11.6749 12.6471 11.0157 12.9202 10.3283 12.9202ZM13.9874 2.55273H6.6692C5.57781 2.55395 4.53147 2.98803 3.75974 3.75976C2.98802 4.53149 2.55393 5.57783 2.55272 6.66921V13.9874C2.55393 15.0788 2.98802 16.1251 3.75974 16.8968C4.53147 17.6686 5.57781 18.1027 6.6692 18.1039H13.9874C15.0788 18.1027 16.1251 17.6686 16.8968 16.8968C17.6686 16.1251 18.1026 15.0788 18.1039 13.9874V6.66921C18.1026 5.57783 17.6686 4.53149 16.8968 3.75976C16.1251 2.98803 15.0788 2.55395 13.9874 2.55273ZM17.1891 13.9874C17.1891 14.8365 16.8518 15.6509 16.2513 16.2513C15.6509 16.8518 14.8365 17.1891 13.9874 17.1891H6.6692C5.82005 17.1891 5.00569 16.8518 4.40525 16.2513C3.80481 15.6509 3.46749 14.8365 3.46749 13.9874V6.66921C3.46749 5.82007 3.80481 5.0057 4.40525 4.40526C5.00569 3.80483 5.82005 3.46751 6.6692 3.46751H13.9874C14.8365 3.46751 15.6509 3.80483 16.2513 4.40526C16.8518 5.0057 17.1891 5.82007 17.1891 6.66921V13.9874ZM15.0546 6.36429C15.0546 6.51506 15.0099 6.66244 14.9261 6.7878C14.8424 6.91317 14.7233 7.01087 14.584 7.06857C14.4447 7.12627 14.2915 7.14136 14.1436 7.11195C13.9957 7.08254 13.8599 7.00993 13.7533 6.90332C13.6467 6.79671 13.5741 6.66088 13.5446 6.51301C13.5152 6.36513 13.5303 6.21186 13.588 6.07256C13.6457 5.93327 13.7434 5.81421 13.8688 5.73045C13.9941 5.64669 14.1415 5.60198 14.2923 5.60198C14.4945 5.60198 14.6884 5.68229 14.8313 5.82525C14.9743 5.96821 15.0546 6.16211 15.0546 6.36429Z" fill="#FF8600"/>
</svg>
