<svg width="83" height="79" viewBox="0 0 83 79" fill="none" xmlns="http://www.w3.org/2000/svg">
<g clip-path="url(#clip0_50_2332)">
<path d="M17.8048 70.2908C18.2744 70.2583 19.0436 70.3801 19.246 70.7615C19.4889 71.2242 19.1812 72.117 19.6185 72.3524C19.9747 72.5472 20.5739 72.1333 20.9949 72.2063C21.7317 72.3362 21.505 73.7647 22.258 73.8459C22.5171 73.8703 22.8248 73.716 23.0839 73.5375C20.663 74.8524 18.242 76.1592 15.7725 77.4741C16.3231 75.1365 16.9789 72.7501 17.8048 70.2989V70.2908Z" fill="#7BC3F5"/>
<path d="M60.0861 46.4438C58.653 45.7702 56.6855 44.228 56.9446 42.8887C57.2604 41.2816 60.1266 39.3985 59.3655 38.0674C58.7502 36.9879 56.1187 37.1259 55.0499 36.2493C53.2039 34.7314 57.0256 31.2899 55.0095 29.8695C54.3131 29.3825 53.0824 29.3013 51.9327 29.3744C61.835 29.764 71.7374 30.1536 81.7855 30.6406C75.0247 35.9733 67.8752 41.241 60.0861 46.4438Z" fill="#FF8600"/>
<path d="M26.7355 50.5103C26.7355 50.5103 26.687 50.5103 26.6627 50.4941C26.5736 50.4535 26.5331 50.348 26.5736 50.2587C29.4803 43.879 32.5976 37.4911 35.8363 31.2737C35.8849 31.1844 35.9902 31.152 36.0711 31.2007C36.1602 31.2494 36.1926 31.3549 36.144 31.436C32.9053 37.6453 29.788 44.0332 26.8894 50.4048C26.857 50.4697 26.8003 50.5103 26.7274 50.5103H26.7355Z" fill="#7BC3F5"/>
<path d="M28.9864 55.4291C28.9864 55.4291 28.9379 55.429 28.9136 55.4128C28.8245 55.3722 28.7921 55.2667 28.8326 55.1774C32.549 47.3854 36.144 39.4067 39.5284 31.4766C39.5689 31.3873 39.6661 31.3468 39.7551 31.3873C39.8442 31.4279 39.8847 31.5253 39.8442 31.6146C36.4598 39.5528 32.8567 47.5396 29.1484 55.3316C29.116 55.3966 29.0593 55.4291 28.9945 55.4291H28.9864Z" fill="#7BC3F5"/>
<path d="M32.4923 57.6287C32.4923 57.6287 32.4438 57.6287 32.4195 57.6124C32.3304 57.5719 32.2899 57.4663 32.3304 57.3852L44.095 30.5838C44.1355 30.4945 44.2407 30.4539 44.3217 30.4945C44.4108 30.5351 44.4513 30.6406 44.4108 30.7218L32.6462 57.5232C32.6138 57.5881 32.5571 57.6287 32.4842 57.6287H32.4923Z" fill="#7BC3F5"/>
<path d="M38.4354 56.7196C38.4354 56.7196 38.3949 56.7196 38.3706 56.7115C38.2815 56.679 38.233 56.5735 38.2734 56.4842C41.0749 49.2522 43.9898 41.9553 46.937 34.7964C46.9775 34.7071 47.0746 34.6665 47.1637 34.699C47.2528 34.7395 47.2932 34.8369 47.2608 34.9262C44.3136 42.0852 41.3988 49.3821 38.5973 56.6141C38.573 56.6871 38.5082 56.7277 38.4354 56.7277V56.7196Z" fill="#7BC3F5"/>
<path d="M42.8562 56.8495C42.8562 56.8495 42.8157 56.8495 42.7995 56.8414C42.7105 56.8089 42.6619 56.7115 42.6943 56.6222C44.7994 50.5266 47.1556 44.4309 49.6818 38.5057C49.7223 38.4164 49.8194 38.3758 49.9085 38.4164C49.9976 38.457 50.038 38.5544 49.9976 38.6437C47.4714 44.5608 45.1233 50.6483 43.0181 56.7358C42.9939 56.8089 42.9291 56.8495 42.8562 56.8495Z" fill="#7BC3F5"/>
<path d="M47.5119 56.6141C47.5119 56.6141 47.4714 56.6141 47.4552 56.606C47.3661 56.5735 47.3175 56.4761 47.3499 56.3868L52.3051 41.8985C52.3375 41.8092 52.4347 41.7605 52.5238 41.793C52.6128 41.8254 52.6614 41.9228 52.629 42.0121L47.6738 56.5005C47.6495 56.5735 47.5847 56.6222 47.5119 56.6222V56.6141Z" fill="#7BC3F5"/>
<path d="M44.5808 8.12484C44.2246 8.44139 43.5525 8.82288 43.1558 8.64431C42.6862 8.43327 42.3785 7.54044 41.8846 7.6216C41.4879 7.69465 41.2692 8.38457 40.8887 8.58749C40.2329 8.94463 39.5284 7.6703 38.8888 8.07614C38.6702 8.21412 38.5163 8.53067 38.4273 8.83099C39.5284 6.29858 40.6296 3.77428 41.7712 1.2094C42.7752 3.39279 43.7226 5.67359 44.5808 8.11672V8.12484Z" fill="#7BC3F5"/>
<path d="M51.6493 56.6709C51.6493 56.6709 51.6169 56.6709 51.5926 56.6628C51.5036 56.6303 51.4469 56.5329 51.4793 56.4436L54.5075 47.0688C54.5398 46.9796 54.637 46.9227 54.7261 46.9552C54.8151 46.9877 54.8718 47.0851 54.8394 47.1743L51.8112 56.5492C51.7869 56.6222 51.7222 56.6709 51.6412 56.6709H51.6493Z" fill="#7BC3F5"/>
<path d="M66.4826 78.5942L41.2773 60.3721C41.2773 60.3721 41.2611 60.3721 41.253 60.3721L15.7401 78.1883C15.7401 78.1883 15.6996 78.1883 15.7077 78.164L25.2133 48.4974C25.2133 48.4974 25.2133 48.4811 25.2133 48.473L0.412932 29.6504C0.412932 29.6504 0.404835 29.6098 0.429125 29.6098L31.5126 29.4961C31.5126 29.4961 31.5288 29.4961 31.5369 29.4799L41.5445 0.543823C41.6093 0.365255 41.8603 0.365255 41.9251 0.543823L51.4712 29.6422C51.4712 29.6422 51.4793 29.6585 51.4955 29.6585L82.5709 30.2754C82.5709 30.2754 82.6033 30.3078 82.5871 30.3159L57.5033 48.7165C57.5033 48.7165 57.4952 48.7328 57.4952 48.7409L66.515 78.5617C66.515 78.5617 66.4988 78.6023 66.4826 78.5861V78.5942Z" stroke="#474747" stroke-miterlimit="10"/>
</g>
<defs>
<clipPath id="clip0_50_2332">
<rect width="83" height="79" fill="white"/>
</clipPath>
</defs>
</svg>
