<svg width="115" height="75" viewBox="0 0 115 75" fill="none" xmlns="http://www.w3.org/2000/svg">
<g clip-path="url(#clip0_50_2249)">
<path d="M23.68 24.4921C19.5 36.7215 15.32 48.9776 12.4933 61.8125C14.6467 62.571 16.8933 63.0234 19.16 63.1565C20.02 60.0093 20.88 56.8621 21.7333 53.715C21.7333 53.715 21.6067 53.6152 21.4467 53.5819C23.16 53.9279 24.7133 54.906 26.02 56.1169C27.3267 57.3279 28.4133 58.7784 29.62 60.4485C29.4933 62.2316 30.74 63.935 32.34 64.5405C33.94 65.1526 35.7867 64.78 37.2733 63.7287C37.1267 64.5072 37.1267 65.3189 37.2733 66.1041C37.34 66.4434 37.4267 66.7827 37.58 67.0888C37.9 67.7342 38.4667 68.2199 39.08 68.5526C40.1267 69.1182 41.36 69.2978 42.6133 69.0716C42.4867 70.5554 43.5534 71.9659 44.8867 72.4849C46.22 73.0039 47.74 72.7577 49.1333 72.2121C49.3467 72.7245 49.58 73.2501 49.9734 73.6294C50.42 74.0552 51.0267 74.2415 51.6267 74.3147C53.06 74.4877 54.5467 74.0618 55.8867 73.2235C57.3534 74.0618 59.2133 74.0951 60.7067 73.3033C61.1 73.0971 61.4667 72.8309 61.7667 72.4982C62.3734 71.8196 62.6467 70.8747 62.7 69.9432C62.7534 69.0184 62.6 68.0869 62.5467 67.142C63.2867 68.0403 64.06 68.9319 65.0267 69.5573C65.9934 70.1828 67.18 70.5088 68.2734 70.2027C69.18 69.9432 69.9534 69.2646 70.4534 68.4262C70.9534 67.5945 71.2067 66.6164 71.28 65.4986C71.6467 66.1307 72.0467 66.7362 72.4867 67.315C72.8934 67.8606 73.34 68.3863 73.8867 68.7722C74.4334 69.1581 75.1 69.3976 75.7533 69.3244C76.7667 69.2047 77.5934 68.3397 78 67.355C78.4067 66.3702 78.4667 65.279 78.5267 64.2078C78.56 63.589 78.5934 62.9702 78.5667 62.3381C79.1 63.396 79.64 64.4606 80.3533 65.3921C81.0667 66.3236 81.9667 67.1354 83.0467 67.5413C83.3133 67.6411 83.5867 67.7143 83.86 67.7874C84.3 67.9072 84.8067 68.007 85.1867 67.7342C85.4867 67.5146 85.6067 67.1154 85.6534 66.7295C85.6933 66.3503 85.6734 65.9577 85.8867 65.5718C89.98 63.9616 94.0067 62.1651 97.9067 60.2355C98.3 61.7393 98.7333 63.2297 99.3133 64.6669C102.233 63.9549 105.067 62.8637 107.687 61.4465C110 60.5217 112.273 59.4903 114.34 58.1263C114.007 46.0167 112.04 33.7407 106.753 22.9684C106.42 22.2898 106.073 21.6177 105.54 21.0389C99.74 23.1547 94.0934 25.7297 88.66 28.7371C88.8134 29.0432 88.9667 29.3559 88.9533 29.6953C83.3267 30.1144 77.8267 28.125 72.5133 26.1555C70.8267 25.5301 69.1133 24.898 67.3334 24.7716C65.7467 24.6585 64.1667 24.9512 62.3933 25.1109C60.5133 23.9132 58.4067 23.1547 56.2867 22.5359C55.0067 22.1633 53.6934 21.8373 52.3667 21.8506C51.1467 21.8639 49.9467 22.17 48.78 22.5293C42.48 24.4588 36.5933 28.0185 30.0533 28.6573C30.1067 28.1982 30.16 27.7391 30.2067 27.2733C30.2333 27.0272 30.2533 26.7477 30.1267 26.5481C28.0067 25.6498 25.8533 24.7383 23.6933 24.4921H23.68Z" fill="white"/>
<path d="M111.3 57.8535C111.3 57.8535 111.253 57.8535 111.227 57.8402L105.46 55.5647C105.36 55.5247 105.313 55.4116 105.353 55.3185C105.393 55.2187 105.507 55.1721 105.6 55.212L111.367 57.4876C111.467 57.5275 111.513 57.6406 111.473 57.7337C111.447 57.8069 111.373 57.8535 111.293 57.8535H111.3Z" fill="black"/>
<path d="M113.253 55.5846C113.253 55.5846 113.213 55.5846 113.187 55.5713C110.013 54.4402 106.867 53.1028 103.84 51.5991C103.747 51.5525 103.707 51.4394 103.753 51.3396C103.8 51.2464 103.913 51.2065 104.013 51.2531C107.027 52.7502 110.16 54.0809 113.32 55.212C113.42 55.2453 113.473 55.3584 113.433 55.4582C113.407 55.538 113.333 55.5846 113.253 55.5846Z" fill="black"/>
<path d="M113.74 52.0249C113.74 52.0249 113.7 52.0249 113.68 52.0116C110.153 50.8007 106.627 49.4234 103.213 47.913C103.113 47.873 103.073 47.7599 103.113 47.6601C103.153 47.5603 103.273 47.5204 103.367 47.5603C106.773 49.0641 110.287 50.4414 113.8 51.6457C113.9 51.6789 113.953 51.792 113.92 51.8919C113.893 51.9717 113.82 52.0183 113.74 52.0183V52.0249Z" fill="black"/>
<path d="M113.74 48.6049C113.74 48.6049 113.693 48.6049 113.667 48.5916C109.567 46.9815 106.38 45.5908 101.993 43.648C101.893 43.608 101.853 43.4949 101.893 43.3951C101.933 43.2953 102.053 43.2554 102.147 43.2953C106.533 45.2315 109.707 46.6222 113.807 48.2323C113.907 48.2723 113.953 48.3854 113.913 48.4785C113.887 48.5517 113.813 48.5983 113.733 48.5983L113.74 48.6049Z" fill="black"/>
<path d="M112.72 44.7458C112.72 44.7458 112.667 44.7458 112.647 44.7325L100.873 39.7024C100.773 39.6624 100.733 39.5493 100.773 39.4495C100.813 39.3497 100.927 39.3098 101.027 39.3497L112.8 44.3799C112.9 44.4198 112.94 44.5329 112.9 44.6327C112.867 44.7059 112.8 44.7458 112.72 44.7458Z" fill="black"/>
<path d="M112.34 41.053C112.34 41.053 112.287 41.053 112.26 41.0331L99.4733 35.098C99.38 35.0515 99.3333 34.9383 99.38 34.8452C99.4267 34.752 99.54 34.7055 99.6333 34.752L112.42 40.6871C112.513 40.7337 112.56 40.8468 112.513 40.9399C112.48 41.0065 112.413 41.053 112.34 41.053Z" fill="black"/>
<path d="M111.093 36.4088C111.093 36.4088 111.04 36.4088 111.013 36.3888L98.1133 30.3141C98.02 30.2675 97.9733 30.1544 98.02 30.0612C98.0667 29.9614 98.18 29.9281 98.2733 29.9681L111.173 36.0429C111.267 36.0894 111.313 36.2025 111.267 36.2957C111.233 36.3622 111.167 36.4088 111.093 36.4088Z" fill="black"/>
<path d="M108.193 30.334C108.193 30.334 108.147 30.334 108.12 30.3207C104.913 29.0299 101.647 27.7857 98.4067 26.6213C98.3067 26.588 98.2533 26.4749 98.2933 26.3751C98.3267 26.2753 98.44 26.2221 98.54 26.262C101.787 27.4264 105.06 28.6706 108.267 29.9614C108.367 30.0013 108.413 30.1144 108.373 30.2142C108.34 30.2874 108.273 30.334 108.193 30.334Z" fill="black"/>
<path d="M107.94 26.0624C107.94 26.0624 107.887 26.0624 107.86 26.0491L103.253 24.033C103.153 23.9931 103.113 23.88 103.153 23.7802C103.193 23.6804 103.307 23.6404 103.407 23.6804L108.013 25.6964C108.113 25.7363 108.153 25.8494 108.113 25.9492C108.08 26.0224 108.013 26.0624 107.94 26.0624Z" fill="black"/>
<path d="M10.32 19.9876C14.8733 21.5911 19.4733 23.0416 23.86 24.4189C23.14 27.5994 21.2933 30.3473 20.0533 33.3481C19.3933 34.9383 18.9067 36.5951 18.4267 38.2585C16.1667 46.03 14.0067 53.8281 11.9333 61.6528C7.87332 60.1956 4.72666 59.4504 0.373322 58.6387C4.37999 45.5842 7.99332 33.0421 10.3267 19.9942L10.32 19.9876Z" fill="#ACD4F7"/>
<g opacity="0.13">
<path d="M96.2667 58.6187C95.5533 58.8383 94.86 59.1044 94.18 59.4038C94.0267 59.4038 93.8667 59.4105 93.72 59.4437C93.3733 59.5036 93.0533 59.65 92.7267 59.7897C92.3667 59.9162 92.0267 60.0426 91.68 60.1956C91.54 60.2488 91.1267 60.4152 90.96 60.4618C90.9067 60.4751 90.8733 60.495 90.8333 60.5083C90.7333 60.5416 90.6267 60.5815 90.52 60.6081C90.46 60.6081 90.3933 60.6081 90.3333 60.6081C90.2667 60.5948 90.1933 60.5749 90.1267 60.5549C89.98 60.4085 89.84 60.2488 89.7133 60.0891C89.54 59.8629 89.7333 60.1224 89.8 60.2089C89.6867 60.0492 89.5667 59.8962 89.44 59.7498C89.4 59.7032 89.3733 59.6633 89.3467 59.63C89.2267 59.4571 89.12 59.2774 89.0133 59.0978C88.56 58.3792 88.1533 57.6273 87.78 56.8688C86.98 55.2519 86.2467 53.5952 85.4 52.005C84.9067 50.9204 84.4867 49.7959 83.8667 48.7846C82.0933 45.9501 80.3733 43.7278 77.72 41.2527C76.0467 39.4761 74.12 37.9591 72.0533 36.7282C70.6533 35.9164 69.1867 35.1113 67.56 34.9916C66.42 34.7188 66.1467 36.4886 67.32 36.5685C68.3867 36.6284 69.5267 37.134 70.7533 37.8726C70.64 38.1654 70.6667 38.5113 70.94 38.8174C72.0733 39.8487 73.38 40.6405 74.56 41.612C74.5067 41.572 75.16 42.1576 75.2933 42.3039C75.4333 42.4437 75.5667 42.59 75.6933 42.7364C75.5867 42.8429 75.5133 42.9893 75.52 43.1556C75.6 43.6679 76.1467 44.2734 76.4 44.7525C77.7 46.8218 79.2267 48.7513 80.3267 50.947C81.7867 53.9611 82.8467 56.9619 83.3333 61.0007C83.5867 62.2715 83.7267 64.587 83.3333 65.2524C83.3 65.2923 83.2667 65.3322 83.2267 65.3655C83.1933 65.3855 83.1667 65.3988 83.1467 65.4121C83.0933 65.432 83.0467 65.4453 82.9933 65.472C82.9667 65.4786 82.9467 65.4919 82.92 65.4986C82.9133 65.4986 82.9067 65.4986 82.9 65.4986C82.7933 65.4986 82.6667 65.4986 82.5867 65.4919C82.5467 65.4853 82.5067 65.4786 82.4667 65.472C82.0267 65.3522 82.2667 65.4586 81.6067 65.086C80.5867 64.4806 79.7133 66.0641 80.7067 66.6962C83.22 68.5925 84.9867 67.9205 85.48 65.3522C85.7267 63.8019 85.56 62.2183 85.3 60.6747C85.3733 60.9076 85.4467 61.1404 85.52 61.3733C85.6667 62.2915 85.7867 63.1565 85.9 63.9283C85.88 63.9483 85.86 63.9682 85.8467 63.9948C85.56 64.4673 85.7733 65.0528 86.1733 65.3322C86.3533 65.6316 86.7333 65.7714 87.06 65.6782C87.3467 65.5851 87.5 65.4054 87.58 65.1859C90.3267 64.0547 93.0533 62.8371 95.58 61.2269C96.1733 60.841 96.18 60.8011 96.6733 60.5882C96.9267 60.4751 97.24 60.322 97.3933 60.0758C97.5133 59.9827 97.6267 59.8762 97.72 59.7365C98.18 58.7251 97.0267 58.2062 96.26 58.6453L96.2667 58.6187Z" fill="#7BC3F5"/>
</g>
<g opacity="0.13">
<path d="M113.84 55.6445C113.693 55.6445 113.56 55.6844 113.427 55.7443C112.787 55.9439 112.213 56.3698 111.587 56.6093C110.473 57.1748 110.04 57.2813 108.547 58.0265C105.98 59.457 101.72 60.8543 99.4267 61.859C97.92 62.3381 98.5267 64.6735 100.067 64.2809C102.467 63.4692 104.74 62.2915 107.06 61.2535C108.28 60.6614 110.607 59.7831 112.54 58.7917C113.44 58.2993 114.567 57.7138 114.673 57.421C115.24 56.749 114.687 55.6112 113.84 55.6378V55.6445Z" fill="#7BC3F5"/>
</g>
<g opacity="0.13">
<path d="M28.84 29.7418C27.8667 33.4346 26.1467 36.1693 24.88 40.2347C24.1133 42.61 23.5333 45.0386 23.0933 47.5004C22.82 48.5916 22.6067 49.6962 22.3867 50.8007C22.2267 51.7787 21.9533 52.7768 22.12 53.7682C22.36 54.733 23.38 55.1987 24.2067 54.886C24.7333 55.4649 25.2867 56.0105 25.8467 56.5561C25.8467 56.5295 25.8467 56.5095 25.8467 56.4829C25.8067 55.3917 25.82 54.3071 25.88 53.2159C25.66 52.4508 25.58 51.9517 25.5333 51.3263C25.7467 50.122 26.02 48.931 26.16 47.7134C26.7067 43.7944 27.7667 39.9818 28.98 36.2425C29.3467 35.1247 29.6267 33.9736 30.0933 32.8957C30.42 31.9242 30.96 30.9328 30.96 29.8882C30.8533 28.6773 29.1133 28.5575 28.8333 29.7352L28.84 29.7418Z" fill="black"/>
</g>
<g opacity="0.13">
<path d="M29.94 59.6966C29.88 59.9361 29.66 60.1158 29.4267 60.1025C29.6133 60.2089 29.82 60.2622 30.04 60.1956C30.38 60.1025 30.6067 59.7432 30.5867 59.3839C30.3733 59.4903 30.1533 59.5968 29.94 59.7033V59.6966Z" fill="black"/>
</g>
<g opacity="0.13">
<path d="M22.1267 53.7682L22.0733 53.329C22.0733 53.4887 22.0933 53.6285 22.1267 53.7682Z" fill="black"/>
</g>
<g opacity="0.13">
<path d="M36.4 62.6974C35.9867 62.9902 35.4267 62.897 34.3533 62.8837C33.6467 62.8105 32.7267 62.8704 31.9267 62.6042C31.4 62.4778 30.9133 62.052 30.36 62.1252C29.3333 62.2183 29.24 63.8352 30.2333 64.1013C30.9533 64.3941 31.68 64.6536 32.44 64.8266C33.08 64.9796 33.7333 65.1326 34.38 64.9663C35.1867 64.7933 35.9533 64.434 36.6733 64.0215C36.9667 63.8219 37.36 63.6622 37.4733 63.2962C37.6333 62.6176 36.8667 62.2716 36.4 62.7041V62.6974Z" fill="#7BC3F5"/>
</g>
<g opacity="0.13">
<path d="M47.3 64.1612C46.94 64.2876 46.8667 64.4872 46.3067 64.7999C45.1867 65.4387 44.7067 65.5584 43.2133 65.8645C41.7933 66.2504 41.9133 66.1639 40.34 66.277C39.8467 66.297 39.36 66.277 38.8667 66.2105C38.5467 66.1573 38.2267 66.0176 37.9067 66.0907C36.62 66.2238 36.5 68.2199 37.7467 68.5659C40.92 69.5307 43.54 68.5659 45.7867 67.1354C46.4667 66.7095 47.14 66.2637 47.72 65.6915C48.0333 65.3189 48.1133 65.3855 48.1867 64.8798C48.1933 64.4074 47.7267 64.0414 47.3 64.1678V64.1612Z" fill="#7BC3F5"/>
</g>
<g opacity="0.13">
<path d="M60.6333 71.0145C59.9666 71.1143 60.1333 71.2008 59.78 71.3139C59.5 71.3937 59.46 71.5268 58.46 71.7796C57.7733 71.906 57.8 71.8994 57.62 71.9193C57.7533 71.7397 57.8067 71.5002 57.7667 71.2806C57.74 70.8281 57.32 70.4822 56.9 70.4755C56.38 70.5088 55.98 70.9612 55.5067 71.1542C54.5133 71.6133 54.7533 71.5401 53.3733 72.0258C52.1266 72.3918 51.48 72.3585 51 72.3918C50.5467 72.3785 50.1 72.0657 49.6867 72.0125C50.52 71.6732 51.32 71.2074 52.08 70.715C52.9533 70.1628 53.72 69.4708 54.4333 68.7189C54.5933 68.5726 54.6866 68.3596 54.6866 68.1401C54.6866 67.8673 54.5466 67.6277 54.3266 67.488C54.0533 67.315 53.6733 67.3682 53.4466 67.6078C53.4933 67.5679 53.6133 67.4747 53.5467 67.5213C53.1933 67.7542 52.8333 67.9804 52.4733 68.2066C50.4 69.6039 47.66 70.4223 45.88 70.7084C45.46 70.755 45.0333 70.8082 44.6067 70.7683C44.5733 70.7683 44.5533 70.7683 44.5333 70.7616C44.52 70.7616 44.5 70.7616 44.4867 70.755C44.1667 70.7217 43.8467 70.5553 43.5267 70.6019C42.76 70.6751 42.6867 71.8794 43.4333 72.079C44.1067 72.3252 44.7866 72.5648 45.4933 72.6313C46.24 72.7178 47 72.6047 47.74 72.5182C48.1467 72.4849 48.54 72.4051 48.92 72.292C48.56 72.7045 48.5733 73.4763 49.1067 73.7757C51.04 74.8004 53.1267 74.5875 55.0533 73.6693C55.4067 73.5229 55.7467 73.3432 56.0733 73.1436C56.0867 73.7558 56.54 74.3679 57.1933 74.3413C58.4 74.1816 59.7 74.1084 60.72 73.3432C61.02 73.097 61.42 72.8908 61.5533 72.4982C61.8667 71.8329 61.32 71.0078 60.6267 71.0211L60.6333 71.0145Z" fill="#7BC3F5"/>
</g>
<g opacity="0.13">
<path d="M70.3867 66.3103C69.6467 66.7029 69.8267 66.7827 69.3467 67.0955C68.6333 67.6144 68.7267 67.5546 67.6933 67.834C66.8467 67.987 67.36 67.9538 66.6267 67.9671C66.54 67.9671 66.46 67.9538 66.3733 67.9471C66.28 67.9272 66.16 67.9072 66.0733 67.8806C65.46 67.7741 64.8067 67.2951 64.2067 67.681C63.4133 68.1334 63.58 69.4841 64.46 69.7103C65.2667 69.9632 66.1 70.2094 66.9533 70.1495C67.9667 70.0763 68.96 69.6837 69.8133 69.0982C70.22 68.7988 70.6067 68.4595 70.98 68.1135C71.2533 67.8806 71.52 67.5945 71.5067 67.2019C71.52 66.6031 70.9333 66.144 70.3867 66.3103Z" fill="#7BC3F5"/>
</g>
<g opacity="0.13">
<path d="M78.76 63.2363C78.76 62.7706 78.4667 62.3115 78.02 62.1984C77.9933 62.1984 77.9733 62.1917 77.9467 62.185C77.9467 61.3068 77.9667 60.4218 77.7533 59.5702C77.4467 58.2394 76.7533 57.0684 76.18 55.8441C75.6533 54.56 74.9667 53.3224 74.0867 52.2711C73.7133 51.9251 73.08 52.2645 73.0933 52.7834C73.1267 53.2292 73.5133 53.542 73.7067 53.9146C74.7933 55.578 75.16 56.8155 75.68 58.805C76.3133 60.8942 76.4267 61.9056 76.24 64.0614C76.24 64.088 76.24 64.108 76.2333 64.1279C76.2133 64.2277 76.2 64.3209 76.18 64.4207C76.1733 64.4673 76.1533 64.5471 76.1267 64.6269C76.02 64.8066 75.9133 64.9796 75.7933 65.1526C75.6467 65.3322 75.3533 65.6982 75.1867 65.8579C75.1467 65.8845 75.1133 65.9044 75.08 65.9244C74.7533 65.9577 74.5067 65.9444 73.6333 65.645C73.3867 65.5451 73.3333 65.5185 73.6133 65.645C73.1733 65.4853 72.7733 65.1659 72.3133 65.0794C71.28 64.8798 70.7733 66.45 71.6867 66.9757C72.0067 67.1487 72.36 67.315 72.6733 67.4614C72.74 67.814 72.9267 68.1467 73.2533 68.333C73.3267 68.3796 73.4067 68.4129 73.4867 68.4461C73.5133 68.8786 73.76 69.2912 74.2867 69.4575C74.7267 69.5839 75.1867 69.7103 75.6467 69.6039C75.8067 69.5773 76.12 69.4309 76.1667 69.4043C76.6267 69.198 77.1 68.9119 77.3 68.4262C77.4133 68.18 77.42 67.9338 77.3533 67.7076C77.5267 67.5213 77.6267 67.2751 77.6467 67.0223C78.1 66.3968 78.4267 65.6649 78.5933 64.913C78.6933 64.3874 78.7533 63.8485 78.76 63.3162C78.76 63.2962 78.76 63.2762 78.76 63.2563C78.76 63.243 78.76 63.2297 78.76 63.223V63.2363Z" fill="#7BC3F5"/>
</g>
<path d="M18.8267 63.7819C18.7933 63.7819 18.7533 63.7819 18.72 63.7686C15.44 63.1432 12.0467 62.4978 8.69999 61.5396C7.40666 61.0872 6.15333 60.7878 4.83333 60.4751C3.39333 60.1291 1.89999 59.7764 0.379992 59.2175C0.0799925 59.1111 -0.0733408 58.7784 0.0399925 58.479C0.153326 58.1796 0.479992 58.0265 0.779992 58.1396C2.23999 58.6786 3.69999 59.0246 5.10666 59.3573C6.39999 59.6633 7.73333 59.9827 9.05332 60.4418C12.14 61.3201 15.3133 61.9455 18.4 62.5311C19.74 56.8621 21.56 51.3263 23.32 45.9634C24.3667 42.7697 25.4533 39.4695 26.44 36.136C26.44 36.1227 26.4467 36.1094 26.4533 36.0961C26.7867 35.2311 27.14 34.3794 27.48 33.561C28.4133 31.3387 29.2933 29.2295 29.7267 26.7943C29.7133 26.7743 29.6933 26.7543 29.6733 26.741C29.6 26.741 29.56 26.7344 29.4933 26.7011C26.5933 25.5434 23.56 24.6984 20.6267 23.8866C17.1533 22.9218 13.56 21.9238 10.0667 20.3868C9.77332 20.2604 9.64666 19.921 9.77332 19.6283C9.89999 19.3355 10.24 19.2091 10.5333 19.3355C13.9467 20.8392 17.5 21.8306 20.9333 22.7821C23.8733 23.6005 26.9067 24.4389 29.84 25.6033C30.4067 25.6765 30.8867 26.2154 30.8867 26.8009C30.8867 26.8342 30.8867 26.8675 30.88 26.9007C30.4267 29.5023 29.4667 31.7912 28.54 34.0002C28.2 34.8053 27.8533 35.637 27.5333 36.482C26.54 39.8288 25.46 43.129 24.4067 46.3227C22.5133 52.0848 20.7267 57.5208 19.3867 63.3295C19.3267 63.5956 19.0867 63.7753 18.8267 63.7753V63.7819Z" fill="black"/>
<path d="M12.1 62.0054C12.0533 62.0054 12.0133 62.0054 11.9667 61.9921C11.66 61.9189 11.4667 61.6062 11.54 61.3001C14.5933 48.5384 18.8933 34.9716 23.34 24.0862C23.46 23.7935 23.8 23.6537 24.0933 23.7669C24.3867 23.8866 24.5333 24.226 24.4133 24.5187C19.9933 35.3575 15.7067 48.8578 12.6667 61.5663C12.6067 61.8324 12.3667 62.0054 12.1067 62.0054H12.1Z" fill="black"/>
<path d="M99.24 65.4054C99.1467 65.4054 99.06 65.3855 98.98 65.3455C98.8333 65.2724 98.7267 65.1393 98.6867 64.9862C96.5733 57.3678 94.34 49.756 91.9667 41.6918C90.7467 37.5333 89.48 33.2283 88.22 28.8702C88.1467 28.6174 88.26 28.3446 88.4867 28.2115C93.8733 25.1575 99.54 22.5426 105.327 20.4467C105.627 20.3402 105.953 20.4933 106.067 20.7927C106.173 21.0921 106.02 21.4181 105.72 21.5312C100.133 23.5539 94.66 26.0624 89.4467 28.9966C90.6667 33.2017 91.8867 37.3536 93.0667 41.3724C95.3733 49.2237 97.5533 56.6492 99.62 64.0747C104.54 62.2316 109.433 60.1224 114.167 57.8069C114.453 57.6672 114.8 57.787 114.94 58.0731C115.08 58.3592 114.96 58.7052 114.673 58.8449C109.72 61.2669 104.593 63.4626 99.4333 65.3722C99.3667 65.3988 99.3 65.4054 99.2333 65.4054H99.24Z" fill="#474747"/>
<path d="M105.64 62.4911C105.38 62.4911 105.147 62.3181 105.08 62.0586C101.98 49.8292 98.44 37.5532 94.5667 25.57C94.4667 25.2706 94.6333 24.9446 94.94 24.8447C95.2467 24.7449 95.5667 24.9113 95.6667 25.2174C99.5467 37.2205 103.093 49.5231 106.2 61.7725C106.28 62.0786 106.093 62.3913 105.78 62.4712C105.733 62.4845 105.687 62.4911 105.64 62.4911Z" fill="#474747"/>
<path d="M46.8 45.9169C45.56 45.9169 44.1067 45.3513 43.46 44.0405C42.3133 41.7184 44.4667 39.1035 45.1733 38.2452C48.0933 34.6988 51.1133 31.0393 54.8667 28.2714C59.1133 25.1442 63.7533 23.7336 67.9333 24.2858C70.0733 24.5719 72.1 25.3571 74.0667 26.1156C74.7 26.3618 75.3533 26.6146 75.9933 26.8475C80.0733 28.3113 84.3333 29.0898 88.6467 29.1563C88.9667 29.1563 89.22 29.4225 89.2133 29.7418C89.2133 30.0546 88.9533 30.3074 88.64 30.3074H88.6333C84.1933 30.2409 79.8133 29.4424 75.6133 27.932C74.9533 27.6992 74.2933 27.4397 73.6533 27.1935C71.7533 26.4549 69.7867 25.6964 67.7867 25.4303C63.9067 24.9113 59.56 26.2553 55.56 29.1962C51.92 31.8777 48.9467 35.4839 46.0733 38.9771C44.4667 40.9266 43.9533 42.417 44.5067 43.5349C44.9667 44.4664 46.0867 44.8257 46.9867 44.7658C48.0333 44.6993 49.02 44.2202 50.1133 43.6413C50.8467 43.2554 51.58 42.8762 52.3133 42.4902C56.78 40.1615 61 37.9591 65.0067 35.0049C65.26 34.8186 65.6267 34.8718 65.8133 35.1246C66 35.3775 65.9467 35.7368 65.6933 35.9297C61.62 38.9372 57.36 41.1595 52.8533 43.5082C52.1267 43.8875 51.3933 44.2668 50.66 44.6527C49.4933 45.2715 48.34 45.8237 47.0667 45.9102C46.9867 45.9102 46.9 45.9169 46.8133 45.9169H46.8Z" fill="#474747"/>
<path d="M86.1133 66.2105C85.8933 66.2105 85.68 66.0841 85.5867 65.8645C85.46 65.5718 85.5933 65.2324 85.8867 65.106C89.7133 63.4559 93.5733 61.7393 97.3533 60.0093C97.64 59.8762 97.9867 60.0093 98.12 60.2954C98.2533 60.5815 98.12 60.9275 97.8333 61.0606C94.04 62.7972 90.1733 64.5138 86.34 66.1706C86.2667 66.2039 86.1867 66.2172 86.1133 66.2172V66.2105Z" fill="black"/>
<path d="M84.6267 68.4462C84.5133 68.4462 84.4067 68.4395 84.3133 68.4262C82.5333 68.2266 80.78 66.9957 79.5133 65.0395C78.7067 63.7953 78.1467 62.4113 77.6 61.0673C77.4267 60.6414 77.26 60.2222 77.08 59.8031C75.64 56.423 73.6867 53.3291 71.2867 50.6144C71.0733 50.3748 71.1 50.0155 71.34 49.8026C71.58 49.5897 71.94 49.6163 72.1533 49.8558C74.64 52.6637 76.6533 55.8641 78.1467 59.3573C78.3267 59.7831 78.5 60.2156 78.6733 60.6414C79.1933 61.9322 79.7333 63.263 80.48 64.414C81.56 66.0775 83.0067 67.1221 84.44 67.2818C84.6467 67.3017 84.7867 67.2951 84.8467 67.2485C84.92 67.2019 85.0333 67.0289 85.02 66.3902C84.8267 59.9361 82.8 53.4488 79.3067 48.1192C75.82 42.803 70.7733 38.4914 65.1 35.9896C64.8067 35.8632 64.68 35.5239 64.8067 35.2311C64.9333 34.9384 65.2733 34.8119 65.5667 34.9383C71.44 37.5333 76.6667 41.9912 80.2733 47.4938C83.88 52.9897 85.9733 59.6899 86.1733 66.3569C86.1867 66.7295 86.2133 67.7276 85.4867 68.2133C85.2067 68.3996 84.8933 68.4462 84.6267 68.4462Z" fill="#474747"/>
<path d="M58.08 74.5476C57.3333 74.5476 56.3667 74.4211 55.3133 73.616C55.06 73.4231 55.0133 73.0638 55.2067 72.8109C55.4 72.5581 55.76 72.5115 56.0133 72.7045C56.9867 73.4497 57.8067 73.4164 58.5267 73.3832H58.6067C59.6733 73.3366 60.7933 72.791 61.4667 71.9925C61.78 71.6199 62.1333 71.0278 62.04 70.3092C62.04 70.2826 62.04 70.2626 62.04 70.236C62.04 69.045 61.8867 67.8407 61.7467 66.9158C61.7067 66.663 61.84 66.4168 62.0733 66.3103C62.3067 66.2039 62.58 66.2637 62.7533 66.4567C63.5533 67.3882 64.3867 68.3463 65.4 68.9784C66.44 69.6305 67.5933 69.8168 68.4867 69.4775C69.7267 68.9984 71 66.7295 70.7133 65.4919C70.64 65.1792 70.8333 64.8731 71.1467 64.7999C71.46 64.7268 71.7667 64.9264 71.84 65.2324C72.2533 67.0356 70.6867 69.8634 68.9 70.5487C67.6533 71.0278 66.1533 70.8082 64.7867 69.9499C64.1667 69.5573 63.62 69.0849 63.1133 68.5726C63.16 69.0982 63.1933 69.6505 63.1933 70.1961C63.2933 71.081 63.0067 71.9593 62.3533 72.7311C61.4667 73.7824 60.0533 74.4677 58.66 74.5276H58.5867C58.4333 74.5342 58.2667 74.5476 58.08 74.5476Z" fill="#474747"/>
<path d="M75.5733 69.9898C75.1267 69.9898 74.6933 69.8634 74.28 69.697C72.2533 68.872 71.1867 66.5765 70.1533 64.3542C69.44 62.8172 68.7 61.2336 67.6933 60.2954C67.46 60.0759 67.4467 59.7166 67.6667 59.4837C67.8867 59.2508 68.2467 59.2375 68.48 59.4571C69.6467 60.5483 70.4333 62.2383 71.1933 63.8751C72.1733 65.991 73.1067 67.987 74.7067 68.6391C75.4133 68.9252 76.22 69.2512 77.3533 67.2485C77.6667 66.6962 77.7533 65.991 77.8 65.3123C77.9133 63.5757 77.4733 61.7858 77.04 60.0492C76.9733 59.7831 76.9067 59.5169 76.8467 59.2574C76.7733 58.9514 76.96 58.6387 77.2733 58.5655C77.5867 58.4923 77.8933 58.6786 77.9667 58.9913C78.0267 59.2508 78.0933 59.5169 78.16 59.7764C78.6133 61.5929 79.08 63.4759 78.9533 65.3921C78.9 66.2039 78.7933 67.0622 78.3667 67.8207C77.4133 69.5041 76.46 70.0031 75.5733 70.0031V69.9898Z" fill="#474747"/>
<path d="M41.0133 69.6505C40.9667 69.6505 40.92 69.6505 40.8733 69.6505C39.1733 69.6105 37.1733 68.5526 36.64 66.6097C36.4667 65.9776 36.46 65.3389 36.54 64.7268C35.46 65.3988 34.1267 65.6716 32.86 65.432C30.8667 65.0594 29.1933 63.3494 28.88 61.3733C28.78 60.7213 28.8933 60.2156 29.2267 59.8696C29.4467 59.6434 29.8133 59.6367 30.04 59.8563C30.2667 60.0759 30.2733 60.4418 30.0533 60.668C30.0133 60.7079 29.96 60.861 30.0133 61.1937C30.2533 62.704 31.54 64.0082 33.0667 64.3009C34.5533 64.5804 36.14 63.9549 37.02 62.7373C37.1733 62.5311 37.44 62.4446 37.68 62.5311C37.8667 62.4312 38.0333 62.3647 38.1467 62.3181C40.28 61.4465 42.5133 60.9076 44.8 60.7213C47.1133 60.535 48.0733 61.3733 48.4667 62.1119C48.74 62.6175 48.8333 63.243 48.7467 63.9616C48.64 64.8798 48.2533 65.778 47.6733 66.4767C47.1067 67.1553 46.38 67.6411 45.6867 68.0602C44.4533 68.7988 42.8133 69.6438 41.0267 69.6438L41.0133 69.6505ZM37.8933 63.7886C37.66 64.7268 37.5333 65.5385 37.7467 66.3037C38.1333 67.7009 39.6267 68.4661 40.9 68.4994C42.4467 68.5393 43.9467 67.7608 45.08 67.0822C45.6933 66.7162 46.32 66.3037 46.7733 65.7514C47.2133 65.2191 47.5067 64.5338 47.5933 63.8352C47.6333 63.5025 47.64 63.0367 47.44 62.6641C47.0133 61.8723 45.8133 61.7991 44.88 61.8723C42.72 62.0453 40.5933 62.5577 38.5733 63.3827C38.24 63.5158 38.02 63.6489 37.8933 63.7819V63.7886Z" fill="#474747"/>
<path d="M46.2267 73.4164C45.3867 73.4164 44.5933 73.2102 43.9267 72.7976C42.6267 71.9992 41.8467 70.409 41.98 68.8454C42.0067 68.526 42.2867 68.2931 42.6067 68.3197C42.9267 68.3463 43.16 68.6258 43.1333 68.9452C43.04 70.0696 43.6133 71.254 44.5333 71.8196C45.4133 72.3652 46.62 72.4184 47.8333 71.9659C48.9867 71.5334 49.9933 70.755 51.0133 69.9166C52.4667 68.7256 53.8267 67.3949 53.9467 65.7181C53.9533 65.6183 53.96 65.472 53.9267 65.3855C53.8933 65.3056 53.8 65.2191 53.64 65.1193C52.62 64.4806 51.4 64.6403 50.7667 64.7866C49.7867 65.0195 48.9867 65.452 48.06 65.9577L47.9 66.0442C47.62 66.1972 47.2667 66.0908 47.12 65.8113C46.9667 65.5319 47.0733 65.1859 47.3533 65.0328L47.5133 64.9463C48.4733 64.4273 49.38 63.935 50.5067 63.6688C51.9067 63.3361 53.24 63.5025 54.26 64.1479C54.4933 64.2943 54.8267 64.5405 54.9933 64.9463C55.12 65.2524 55.1133 65.5651 55.1 65.798C54.9467 67.9139 53.3933 69.4509 51.7467 70.8015C50.6933 71.6665 49.5533 72.5448 48.24 73.0372C47.56 73.29 46.88 73.4164 46.2267 73.4164Z" fill="#474747"/>
<path d="M52.4267 75C51.66 75 50.8867 74.8137 50.2 74.4544C49.4 74.0419 48.5733 73.2102 48.64 72.1323C48.66 71.8129 48.94 71.5734 49.2467 71.5933C49.5667 71.6133 49.8067 71.8861 49.7867 72.1988C49.7533 72.7311 50.2733 73.1902 50.7333 73.4297C51.4467 73.8023 52.2667 73.9288 53.0533 73.789C54.3067 73.5695 55.3933 72.7045 56.2933 71.8861C57.3133 70.9612 57.7467 70.1961 57.66 69.4775C57.5667 68.6458 56.7133 68.0868 55.9733 68.0469C55.2333 68.007 54.4733 68.3264 53.5733 69.0649C53.3267 69.2645 52.9667 69.2313 52.76 68.9851C52.56 68.7389 52.5933 68.3796 52.84 68.1733C53.5533 67.5878 54.66 66.8093 56.04 66.8958C57.2667 66.969 58.6333 67.9005 58.8 69.3444C58.9733 70.8149 57.8867 71.9859 57.06 72.7378C56.1 73.6094 54.8 74.6474 53.2467 74.9202C52.9733 74.9667 52.7 74.9933 52.42 74.9933L52.4267 75Z" fill="#474747"/>
<path d="M37.54 63.2962C37.26 63.2962 37.02 63.0966 36.9733 62.8172C36.7867 61.686 35.6 61.0074 34.9133 60.7013C32.9067 59.8164 31.16 59.843 29.7267 60.7811C29.4667 60.9541 29.1133 60.8876 28.9333 60.6281C26.9067 57.6805 24.3733 55.4981 21.42 54.1474C21.1333 54.0144 21 53.675 21.1333 53.3823C21.2667 53.0962 21.6067 52.9631 21.9 53.0962C24.9 54.4668 27.48 56.6293 29.5733 59.5303C31.2467 58.6453 33.2 58.6786 35.38 59.6434C36.9333 60.3287 37.9067 61.3866 38.1133 62.6242C38.1667 62.9369 37.9533 63.2363 37.64 63.2829C37.6067 63.2829 37.5733 63.2896 37.5467 63.2896L37.54 63.2962Z" fill="#474747"/>
<path d="M29.86 29.3825C29.6 29.3825 29.3667 29.2029 29.3 28.9434C29.2267 28.6373 29.4133 28.3246 29.7267 28.2514C35.6067 26.8275 41.0067 24.8714 45.5133 23.1481L45.9133 22.995C47.6333 22.3363 49.4133 21.651 51.2933 21.4314C55.62 20.9324 59.6 22.8753 63.1133 24.5919C63.4 24.7316 63.52 25.0776 63.38 25.3637C63.24 25.6498 62.8933 25.7696 62.6067 25.6299C59.24 23.9864 55.42 22.1167 51.4267 22.5825C49.6933 22.7821 47.9867 23.4408 46.3333 24.0729L45.9333 24.226C41.3867 25.9626 35.9467 27.932 30.0067 29.3759C29.96 29.3892 29.9133 29.3892 29.8733 29.3892L29.86 29.3825Z" fill="#474747"/>
<path d="M111.3 57.8535C111.3 57.8535 111.253 57.8535 111.227 57.8402L105.46 55.5647C105.36 55.5247 105.313 55.4116 105.353 55.3185C105.393 55.2187 105.507 55.1721 105.6 55.212L111.367 57.4876C111.467 57.5275 111.513 57.6406 111.473 57.7337C111.447 57.8069 111.373 57.8535 111.293 57.8535H111.3Z" fill="#7BC3F5"/>
<path d="M113.253 55.5846C113.253 55.5846 113.213 55.5846 113.187 55.5713C110.013 54.4402 106.867 53.1028 103.84 51.5991C103.747 51.5525 103.707 51.4394 103.753 51.3396C103.8 51.2464 103.913 51.2065 104.013 51.2531C107.027 52.7502 110.16 54.0809 113.32 55.212C113.42 55.2453 113.473 55.3584 113.433 55.4582C113.407 55.538 113.333 55.5846 113.253 55.5846Z" fill="#7BC3F5"/>
<path d="M113.74 52.0249C113.74 52.0249 113.7 52.0249 113.68 52.0116C110.153 50.8007 106.627 49.4234 103.213 47.913C103.113 47.873 103.073 47.7599 103.113 47.6601C103.153 47.5603 103.273 47.5204 103.367 47.5603C106.773 49.0641 110.287 50.4414 113.8 51.6457C113.9 51.6789 113.953 51.792 113.92 51.8919C113.893 51.9717 113.82 52.0183 113.74 52.0183V52.0249Z" fill="#7BC3F5"/>
<path d="M113.74 48.6049C113.74 48.6049 113.693 48.6049 113.667 48.5916C109.567 46.9815 106.38 45.5908 101.993 43.648C101.893 43.608 101.853 43.4949 101.893 43.3951C101.933 43.2953 102.053 43.2554 102.147 43.2953C106.533 45.2315 109.707 46.6222 113.807 48.2323C113.907 48.2723 113.953 48.3854 113.913 48.4785C113.887 48.5517 113.813 48.5983 113.733 48.5983L113.74 48.6049Z" fill="#7BC3F5"/>
<path d="M112.72 44.7458C112.72 44.7458 112.667 44.7458 112.647 44.7325L100.873 39.7024C100.773 39.6624 100.733 39.5493 100.773 39.4495C100.813 39.3497 100.927 39.3098 101.027 39.3497L112.8 44.3799C112.9 44.4198 112.94 44.5329 112.9 44.6327C112.867 44.7059 112.8 44.7458 112.72 44.7458Z" fill="#7BC3F5"/>
<path d="M112.34 41.053C112.34 41.053 112.287 41.053 112.26 41.0331L99.4733 35.098C99.38 35.0515 99.3333 34.9383 99.38 34.8452C99.4267 34.752 99.54 34.7055 99.6333 34.752L112.42 40.6871C112.513 40.7337 112.56 40.8468 112.513 40.9399C112.48 41.0065 112.413 41.053 112.34 41.053Z" fill="#7BC3F5"/>
<path d="M111.093 36.4088C111.093 36.4088 111.04 36.4088 111.013 36.3888L98.1133 30.3141C98.02 30.2675 97.9733 30.1544 98.02 30.0612C98.0667 29.9614 98.18 29.9281 98.2733 29.9681L111.173 36.0429C111.267 36.0894 111.313 36.2025 111.267 36.2957C111.233 36.3622 111.167 36.4088 111.093 36.4088Z" fill="#7BC3F5"/>
<path d="M108.193 30.334C108.193 30.334 108.147 30.334 108.12 30.3207C104.913 29.0299 101.647 27.7857 98.4067 26.6213C98.3067 26.588 98.2533 26.4749 98.2933 26.3751C98.3267 26.2753 98.44 26.2221 98.54 26.262C101.787 27.4264 105.06 28.6706 108.267 29.9614C108.367 30.0013 108.413 30.1144 108.373 30.2142C108.34 30.2874 108.273 30.334 108.193 30.334Z" fill="#7BC3F5"/>
<path d="M107.94 26.0624C107.94 26.0624 107.887 26.0624 107.86 26.0491L103.253 24.033C103.153 23.9931 103.113 23.88 103.153 23.7802C103.193 23.6804 103.307 23.6404 103.407 23.6804L108.013 25.6964C108.113 25.7363 108.153 25.8494 108.113 25.9492C108.08 26.0224 108.013 26.0624 107.94 26.0624Z" fill="#7BC3F5"/>
<path d="M10.32 19.9876C14.8733 21.5911 19.4733 23.0416 23.86 24.4189C23.14 27.5994 21.2933 30.3473 20.0533 33.3481C19.3933 34.9383 18.9067 36.5951 18.4267 38.2585C16.1667 46.03 14.0067 53.8281 11.9333 61.6528C7.87332 60.1956 4.72666 59.4504 0.373322 58.6387C4.37999 45.5842 7.99332 33.0421 10.3267 19.9942L10.32 19.9876Z" fill="#FF8600"/>
<g opacity="0.13">
<path d="M28.84 29.7418C27.8667 33.4346 26.1467 36.1693 24.88 40.2347C24.1133 42.61 23.5333 45.0386 23.0933 47.5004C22.82 48.5916 22.6067 49.6962 22.3867 50.8007C22.2267 51.7787 21.9533 52.7768 22.12 53.7682C22.36 54.733 23.38 55.1987 24.2067 54.886C24.7333 55.4649 25.2867 56.0105 25.8467 56.5561C25.8467 56.5295 25.8467 56.5095 25.8467 56.4829C25.8067 55.3917 25.82 54.3071 25.88 53.2159C25.66 52.4508 25.58 51.9517 25.5333 51.3263C25.7467 50.122 26.02 48.931 26.16 47.7134C26.7067 43.7944 27.7667 39.9818 28.98 36.2425C29.3467 35.1247 29.6267 33.9736 30.0933 32.8957C30.42 31.9242 30.96 30.9328 30.96 29.8882C30.8533 28.6773 29.1133 28.5575 28.8333 29.7352L28.84 29.7418Z" fill="#7BC3F5"/>
</g>
<g opacity="0.13">
<path d="M29.94 59.6966C29.88 59.9361 29.66 60.1158 29.4267 60.1025C29.6133 60.2089 29.82 60.2622 30.04 60.1956C30.38 60.1025 30.6067 59.7432 30.5867 59.3839C30.3733 59.4903 30.1533 59.5968 29.94 59.7033V59.6966Z" fill="#7BC3F5"/>
</g>
<g opacity="0.13">
<path d="M22.1267 53.7682L22.0733 53.329C22.0733 53.4887 22.0933 53.6285 22.1267 53.7682Z" fill="#7BC3F5"/>
</g>
<path d="M18.8267 63.7819C18.7933 63.7819 18.7533 63.7819 18.72 63.7686C15.44 63.1432 12.0467 62.4978 8.69999 61.5396C7.40666 61.0872 6.15333 60.7878 4.83333 60.4751C3.39333 60.1291 1.89999 59.7764 0.379992 59.2175C0.0799925 59.1111 -0.0733408 58.7784 0.0399925 58.479C0.153326 58.1796 0.479992 58.0265 0.779992 58.1396C2.23999 58.6786 3.69999 59.0246 5.10666 59.3573C6.39999 59.6633 7.73333 59.9827 9.05332 60.4418C12.14 61.3201 15.3133 61.9455 18.4 62.5311C19.74 56.8621 21.56 51.3263 23.32 45.9634C24.3667 42.7697 25.4533 39.4695 26.44 36.136C26.44 36.1227 26.4467 36.1094 26.4533 36.0961C26.7867 35.2311 27.14 34.3794 27.48 33.561C28.4133 31.3387 29.2933 29.2295 29.7267 26.7943C29.7133 26.7743 29.6933 26.7543 29.6733 26.741C29.6 26.741 29.56 26.7344 29.4933 26.7011C26.5933 25.5434 23.56 24.6984 20.6267 23.8866C17.1533 22.9218 13.56 21.9238 10.0667 20.3868C9.77332 20.2604 9.64666 19.921 9.77332 19.6283C9.89999 19.3355 10.24 19.2091 10.5333 19.3355C13.9467 20.8392 17.5 21.8306 20.9333 22.7821C23.8733 23.6005 26.9067 24.4389 29.84 25.6033C30.4067 25.6765 30.8867 26.2154 30.8867 26.8009C30.8867 26.8342 30.8867 26.8675 30.88 26.9007C30.4267 29.5023 29.4667 31.7912 28.54 34.0002C28.2 34.8053 27.8533 35.637 27.5333 36.482C26.54 39.8288 25.46 43.129 24.4067 46.3227C22.5133 52.0848 20.7267 57.5208 19.3867 63.3295C19.3267 63.5956 19.0867 63.7753 18.8267 63.7753V63.7819Z" fill="#474747"/>
<path d="M12.1 62.0054C12.0533 62.0054 12.0133 62.0054 11.9667 61.9921C11.66 61.9189 11.4667 61.6062 11.54 61.3001C14.5933 48.5384 18.8933 34.9716 23.34 24.0862C23.46 23.7935 23.8 23.6537 24.0933 23.7669C24.3867 23.8866 24.5333 24.226 24.4133 24.5187C19.9933 35.3575 15.7067 48.8578 12.6667 61.5663C12.6067 61.8324 12.3667 62.0054 12.1067 62.0054H12.1Z" fill="#474747"/>
<path d="M86.1133 66.2105C85.8933 66.2105 85.68 66.0841 85.5867 65.8645C85.46 65.5718 85.5933 65.2324 85.8867 65.106C89.7133 63.4559 93.5733 61.7393 97.3533 60.0093C97.64 59.8762 97.9867 60.0093 98.12 60.2954C98.2533 60.5815 98.12 60.9275 97.8333 61.0606C94.04 62.7972 90.1733 64.5138 86.34 66.1706C86.2667 66.2039 86.1867 66.2172 86.1133 66.2172V66.2105Z" fill="#474747"/>
<path d="M76.4867 23.188C76.1667 23.188 75.9133 22.9218 75.9133 22.6091L76.08 6.4474C76.08 6.13468 76.34 5.87518 76.6533 5.87518C76.9733 5.87518 77.2267 6.14133 77.2267 6.45405L77.06 22.6158C77.06 22.9285 76.8 23.188 76.4867 23.188Z" fill="#FF8600"/>
<path d="M73.2467 11.1316C73.1133 11.1316 72.98 11.085 72.8733 10.9918C72.6333 10.7856 72.6 10.4196 72.8067 10.1801C74.1067 8.66306 75.2667 6.99964 76.26 5.23643C76.3667 5.05012 76.5733 4.95032 76.7733 4.94366C76.9867 4.94366 77.18 5.07008 77.2733 5.25639L77.38 5.4693C78.3267 7.30571 78.9467 8.51668 80.2 10.1269C80.3933 10.3797 80.3467 10.739 80.1 10.932C79.8467 11.1249 79.4867 11.0783 79.2933 10.8321C78.1533 9.36835 77.4933 8.184 76.7267 6.72019C75.8267 8.21061 74.8 9.62118 73.68 10.932C73.5667 11.065 73.4067 11.1316 73.24 11.1316H73.2467Z" fill="#FF8600"/>
<path d="M61.6467 18.2377C61.3267 18.2377 61.0733 17.9715 61.0733 17.6588L61.24 1.49706C61.24 1.18434 61.5 0.92485 61.8133 0.92485C62.1333 0.92485 62.3867 1.191 62.3867 1.50372L62.22 17.6654C62.22 17.9782 61.96 18.2377 61.6467 18.2377Z" fill="#FF8600"/>
<path d="M58.4 6.1879C58.2667 6.1879 58.1333 6.14132 58.0267 6.04817C57.7867 5.84191 57.7533 5.47596 57.96 5.23643C59.26 3.71939 60.42 2.05598 61.4133 0.292761C61.52 0.106458 61.7133 0 61.9267 0C62.14 0 62.3333 0.126419 62.4267 0.312722L62.5333 0.518985C63.48 2.35539 64.1067 3.56636 65.36 5.1832C65.5533 5.43604 65.5067 5.79533 65.26 5.98829C65.0067 6.18125 64.6467 6.13467 64.4533 5.88848C63.3133 4.42468 62.6533 3.24033 61.8867 1.77653C60.9867 3.26694 59.96 4.67752 58.84 5.98829C58.7267 6.12136 58.5667 6.1879 58.4 6.1879Z" fill="#FF8600"/>
<path d="M44.76 20.3735C44.44 20.3735 44.1866 20.1073 44.1866 19.7946L44.3533 3.6329C44.3533 3.32018 44.6133 3.06068 44.9266 3.06068C45.2466 3.06068 45.5 3.32683 45.5 3.63955L45.3333 19.8013C45.3333 20.114 45.0733 20.3735 44.76 20.3735Z" fill="#FF8600"/>
<path d="M41.52 8.31706C41.3867 8.31706 41.2533 8.27049 41.1467 8.17734C40.9067 7.97107 40.8733 7.60512 41.08 7.36559C42.38 5.84856 43.54 4.18514 44.5333 2.42193C44.64 2.23562 44.8467 2.12917 45.0467 2.12917C45.26 2.12917 45.4533 2.25559 45.5467 2.44189L45.6533 2.6548C46.6 4.49121 47.22 5.70218 48.48 7.31236C48.6733 7.5652 48.6267 7.9245 48.38 8.11745C48.1267 8.31041 47.7667 8.27049 47.5733 8.01765C46.4333 6.55385 45.7733 5.3695 45.0067 3.90569C44.1067 5.39611 43.08 6.80668 41.96 8.11745C41.8467 8.25053 41.6867 8.31706 41.52 8.31706Z" fill="#FF8600"/>
</g>
<defs>
<clipPath id="clip0_50_2249">
<rect width="115" height="75" fill="white"/>
</clipPath>
</defs>
</svg>
