<svg width="25" height="24" viewBox="0 0 25 24" fill="none" xmlns="http://www.w3.org/2000/svg">
<path d="M19.7964 16H17.3964V18.6667H19.7964M19.7964 10.6667H17.3964V13.3333H19.7964M22.1964 21.3333H12.5964V18.6667H14.9964V16H12.5964V13.3333H14.9964V10.6667H12.5964V8H22.1964M10.1964 5.33333H7.79637V2.66667H10.1964M10.1964 10.6667H7.79637V8H10.1964M10.1964 16H7.79637V13.3333H10.1964M10.1964 21.3333H7.79637V18.6667H10.1964M5.39637 5.33333H2.99637V2.66667H5.39637M5.39637 10.6667H2.99637V8H5.39637M5.39637 16H2.99637V13.3333H5.39637M5.39637 21.3333H2.99637V18.6667H5.39637M12.5964 5.33333V0H0.596375V24H24.5964V5.33333H12.5964Z" fill="white"/>
</svg>
