<svg width="21" height="21" viewBox="0 0 21 21" fill="none" xmlns="http://www.w3.org/2000/svg">
<path d="M2.55251 8.98168C2.76285 8.77537 3.01052 8.6736 3.2955 8.67636C3.58049 8.67912 3.82586 8.78567 4.03161 8.99601L10.0764 15.159L16.2604 9.09363C16.4567 8.90108 16.7007 8.80622 16.9924 8.80904C17.284 8.81187 17.533 8.91845 17.7393 9.12879C17.9456 9.33914 18.0474 9.5868 18.0446 9.87179C18.0419 10.1568 17.9353 10.4021 17.725 10.6079L10.6367 17.5396C10.5525 17.6221 10.4617 17.6804 10.3641 17.7144C10.2666 17.7485 10.1622 17.7647 10.0511 17.7631C9.94003 17.762 9.83603 17.7435 9.73916 17.7075C9.64228 17.6716 9.55258 17.6118 9.47005 17.5283L2.51755 10.4397C2.325 10.2434 2.2301 10.0028 2.23286 9.71778C2.23562 9.4328 2.34217 9.18743 2.55251 8.98168Z" fill="white"/>
</svg>
