<svg width="29" height="30" viewBox="0 0 29 30" fill="none" xmlns="http://www.w3.org/2000/svg">
<path d="M16.4256 20.0001H10.6026M22.2486 20.0001H25.7424V16.0626C25.7432 15.7651 25.6451 15.4771 25.4658 15.2502C25.2865 15.0234 25.0377 14.8727 24.7641 14.8251L18.7548 13.7501L15.6104 9.25006C15.5019 9.09482 15.3612 8.96881 15.1995 8.88203C15.0378 8.79524 14.8595 8.75006 14.6787 8.75006H6.22373C5.78965 8.74682 5.36337 8.87384 4.99296 9.1168C4.62256 9.35975 4.32279 9.70897 4.12746 10.1251L3.19578 12.1626C2.70682 13.2058 2.4516 14.3572 2.45044 15.5251V20.0001H4.77963" stroke="white" stroke-width="2" stroke-linecap="round" stroke-linejoin="round"/>
<path d="M7.69112 23.75C9.2991 23.75 10.6026 22.3509 10.6026 20.625C10.6026 18.8991 9.2991 17.5 7.69112 17.5C6.08315 17.5 4.77963 18.8991 4.77963 20.625C4.77963 22.3509 6.08315 23.75 7.69112 23.75Z" stroke="white" stroke-width="2" stroke-linecap="round" stroke-linejoin="round"/>
<path d="M19.3371 23.75C20.9451 23.75 22.2486 22.3509 22.2486 20.625C22.2486 18.8991 20.9451 17.5 19.3371 17.5C17.7291 17.5 16.4256 18.8991 16.4256 20.625C16.4256 22.3509 17.7291 23.75 19.3371 23.75Z" stroke="white" stroke-width="2" stroke-linecap="round" stroke-linejoin="round"/>
</svg>
