<svg width="25" height="24" viewBox="0 0 25 24" fill="none" xmlns="http://www.w3.org/2000/svg">
<path d="M18.5962 7.91002C18.5662 7.91002 18.5462 7.91002 18.5162 7.91002H18.4662C16.5762 7.85002 15.1662 6.39001 15.1662 4.59001C15.1662 2.75001 16.6662 1.26001 18.4962 1.26001C20.3262 1.26001 21.8262 2.76001 21.8262 4.59001C21.8162 6.40001 20.4062 7.86001 18.6062 7.92001C18.6062 7.91001 18.6062 7.91002 18.5962 7.91002ZM18.4962 2.75002C17.4862 2.75002 16.6662 3.57002 16.6662 4.58002C16.6662 5.57002 17.4362 6.37002 18.4262 6.41002C18.4362 6.40002 18.5162 6.40002 18.6062 6.41002C19.5762 6.36002 20.3262 5.56002 20.3362 4.58002C20.3362 3.57002 19.5162 2.75002 18.4962 2.75002Z" fill="white"/>
<path d="M18.6064 15.2801C18.2164 15.2801 17.8264 15.2501 17.4364 15.1801C17.0264 15.1101 16.7564 14.7201 16.8264 14.3101C16.8964 13.9001 17.2864 13.6301 17.6964 13.7001C18.9264 13.9101 20.2264 13.6802 21.0964 13.1002C21.5664 12.7902 21.8164 12.4001 21.8164 12.0101C21.8164 11.6201 21.5564 11.2401 21.0964 10.9301C20.2264 10.3501 18.9064 10.1201 17.6664 10.3401C17.2564 10.4201 16.8664 10.1401 16.7964 9.73015C16.7264 9.32015 16.9964 8.93015 17.4064 8.86015C19.0364 8.57015 20.7264 8.88014 21.9264 9.68014C22.8064 10.2701 23.3164 11.1101 23.3164 12.0101C23.3164 12.9001 22.8164 13.7502 21.9264 14.3502C21.0164 14.9502 19.8364 15.2801 18.6064 15.2801Z" fill="white"/>
<path d="M6.56637 7.91C6.55637 7.91 6.54637 7.91 6.54637 7.91C4.74637 7.85 3.33637 6.39 3.32637 4.59C3.32637 2.75 4.82637 1.25 6.65637 1.25C8.48637 1.25 9.98637 2.75 9.98637 4.58C9.98637 6.39 8.57637 7.85 6.77637 7.91L6.56637 7.16L6.63637 7.91C6.61637 7.91 6.58637 7.91 6.56637 7.91ZM6.66637 6.41C6.72637 6.41 6.77637 6.41 6.83637 6.42C7.72637 6.38 8.50637 5.58 8.50637 4.59C8.50637 3.58 7.68637 2.75999 6.67637 2.75999C5.66637 2.75999 4.84637 3.58 4.84637 4.59C4.84637 5.57 5.60637 6.36 6.57637 6.42C6.58637 6.41 6.62637 6.41 6.66637 6.41Z" fill="white"/>
<path d="M6.55639 15.2801C5.32639 15.2801 4.14639 14.9502 3.23639 14.3502C2.35639 13.7602 1.84639 12.9101 1.84639 12.0101C1.84639 11.1201 2.35639 10.2701 3.23639 9.68014C4.43639 8.88014 6.12639 8.57015 7.75639 8.86015C8.16639 8.93015 8.43639 9.32015 8.36639 9.73015C8.29639 10.1401 7.90639 10.4201 7.49639 10.3401C6.25639 10.1201 4.94639 10.3501 4.06639 10.9301C3.59639 11.2401 3.34639 11.6201 3.34639 12.0101C3.34639 12.4001 3.60639 12.7902 4.06639 13.1002C4.93639 13.6802 6.23639 13.9101 7.46639 13.7001C7.87639 13.6301 8.26639 13.9101 8.33639 14.3101C8.40639 14.7201 8.13639 15.1101 7.72639 15.1801C7.33639 15.2501 6.94639 15.2801 6.55639 15.2801Z" fill="white"/>
<path d="M12.5962 15.38C12.5662 15.38 12.5462 15.38 12.5162 15.38H12.4662C10.5762 15.32 9.16621 13.86 9.16621 12.06C9.16621 10.22 10.6662 8.72998 12.4962 8.72998C14.3262 8.72998 15.8262 10.23 15.8262 12.06C15.8162 13.87 14.4062 15.33 12.6062 15.39C12.6062 15.38 12.6062 15.38 12.5962 15.38ZM12.4962 10.22C11.4862 10.22 10.6662 11.04 10.6662 12.05C10.6662 13.04 11.4362 13.84 12.4262 13.88C12.4362 13.87 12.5162 13.87 12.6062 13.88C13.5762 13.83 14.3262 13.03 14.3362 12.05C14.3362 11.05 13.5162 10.22 12.4962 10.22Z" fill="white"/>
<path d="M12.5962 22.76C11.3962 22.76 10.1962 22.45 9.26617 21.82C8.38617 21.23 7.87617 20.39 7.87617 19.49C7.87617 18.6 8.37617 17.74 9.26617 17.15C11.1362 15.91 14.0662 15.91 15.9262 17.15C16.8062 17.74 17.3162 18.58 17.3162 19.48C17.3162 20.37 16.8162 21.23 15.9262 21.82C14.9962 22.44 13.7962 22.76 12.5962 22.76ZM10.0962 18.41C9.62618 18.72 9.37617 19.11 9.37617 19.5C9.37617 19.89 9.63618 20.27 10.0962 20.58C11.4462 21.49 13.7362 21.49 15.0862 20.58C15.5562 20.27 15.8062 19.88 15.8062 19.49C15.8062 19.1 15.5462 18.72 15.0862 18.41C13.7462 17.5 11.4562 17.51 10.0962 18.41Z" fill="white"/>
</svg>
