<svg width="42" height="42" viewBox="0 0 42 42" fill="none" xmlns="http://www.w3.org/2000/svg">
<rect x="0.5" y="0.5" width="41" height="41" rx="10.5" fill="#FFF3E6" stroke="#CACACA"/>
<path d="M31.7142 21.0002C31.7142 18.8811 31.0858 16.8096 29.9085 15.0476C28.7312 13.2857 27.0579 11.9124 25.1001 11.1015C23.1423 10.2905 20.988 10.0784 18.9097 10.4918C16.8313 10.9052 14.9222 11.9256 13.4238 13.424C11.9254 14.9225 10.9049 16.8316 10.4915 18.9099C10.0781 20.9883 10.2903 23.1426 11.1012 25.1004C11.9122 27.0581 13.2854 28.7315 15.0474 29.9088C16.8094 31.0861 18.8808 31.7145 20.9999 31.7145" stroke="#9C9C9C" stroke-width="3" stroke-linecap="round" stroke-linejoin="round"/>
<path d="M21 15.0479V21.0002L22.1905 22.1907M25.7619 25.7621H32.9048V32.905H25.7619V25.7621Z" stroke="#9C9C9C" stroke-width="3" stroke-linecap="round" stroke-linejoin="round"/>
</svg>
