<svg width="42" height="42" viewBox="0 0 42 42" fill="none" xmlns="http://www.w3.org/2000/svg">
<rect x="0.5" y="0.5" width="41" height="41" rx="10.5" fill="#FFF3E6" stroke="#2A8213"/>
<path d="M16.8334 10.8811C15.2773 10.8793 13.7823 11.4871 12.6687 12.5742C11.5552 13.6614 10.9117 15.1413 10.8761 16.6971C10.8404 18.2529 11.4155 19.7608 12.478 20.8977C13.5406 22.0347 15.0062 22.7103 16.5608 22.7799C16.401 23.3583 16.3001 23.9514 16.2596 24.5501C14.7821 24.4403 13.3672 23.9086 12.183 23.0182C10.9988 22.1278 10.0951 20.9162 9.57932 19.5273C9.06351 18.1384 8.95726 16.6307 9.27321 15.1832C9.58916 13.7357 10.314 12.4093 11.3617 11.3617C12.4093 10.314 13.7357 9.58916 15.1832 9.27321C16.6307 8.95726 18.1384 9.06351 19.5273 9.57932C20.9162 10.0951 22.1278 10.9988 23.0182 12.183C23.9086 13.3672 24.4403 14.7821 24.5501 16.2596C23.9514 16.3001 23.3583 16.401 22.7799 16.5608C22.7097 15.0309 22.0526 13.5869 20.9451 12.5291C19.8376 11.4712 18.365 10.881 16.8334 10.8811ZM23.712 22.4692C23.6287 22.3866 23.5299 22.3213 23.4213 22.2769C23.3128 22.2325 23.1965 22.21 23.0792 22.2105C22.9619 22.2111 22.8459 22.2347 22.7378 22.2801C22.6296 22.3255 22.5315 22.3918 22.4489 22.4751C22.3664 22.5584 22.3011 22.6572 22.2567 22.7658C22.2123 22.8744 22.1897 22.9906 22.1903 23.1079C22.1909 23.2252 22.2145 23.3412 22.2599 23.4494C22.3053 23.5575 22.3715 23.6557 22.4549 23.7382L23.9013 25.1703L22.4525 26.6192C22.3648 26.7009 22.2944 26.7995 22.2456 26.909C22.1968 27.0185 22.1706 27.1367 22.1685 27.2566C22.1663 27.3765 22.1884 27.4956 22.2333 27.6068C22.2782 27.718 22.345 27.8189 22.4298 27.9037C22.5146 27.9885 22.6156 28.0554 22.7268 28.1003C22.838 28.1452 22.957 28.1672 23.0769 28.1651C23.1968 28.163 23.315 28.1367 23.4246 28.0879C23.5341 28.0391 23.6327 27.9688 23.7144 27.8811L25.1668 26.4299L26.6132 27.8811C26.7805 28.0487 27.0076 28.143 27.2445 28.1433C27.4814 28.1435 27.7086 28.0496 27.8763 27.8823C28.044 27.7149 28.1383 27.4878 28.1385 27.251C28.1387 27.0141 28.0448 26.7868 27.8775 26.6192L26.4311 25.1703L27.8739 23.737C28.0372 23.5692 28.128 23.3439 28.1268 23.1097C28.1256 22.8756 28.0324 22.6513 27.8674 22.4852C27.7023 22.319 27.4787 22.2244 27.2445 22.2216C27.0104 22.2189 26.7845 22.3082 26.6156 22.4703L25.1668 23.9096L23.7132 22.4692H23.712ZM25.1668 17.4287C23.1145 17.4287 21.1463 18.2439 19.6951 19.6951C18.2439 21.1463 17.4287 23.1145 17.4287 25.1668C17.4287 27.219 18.2439 29.1873 19.6951 30.6384C21.1463 32.0896 23.1145 32.9049 25.1668 32.9049C27.219 32.9049 29.1873 32.0896 30.6384 30.6384C32.0896 29.1873 32.9049 27.219 32.9049 25.1668C32.9049 23.1145 32.0896 21.1463 30.6384 19.6951C29.1873 18.2439 27.219 17.4287 25.1668 17.4287ZM19.2144 25.1668C19.2144 23.5881 19.8415 22.0741 20.9578 20.9578C22.0741 19.8415 23.5881 19.2144 25.1668 19.2144C26.7454 19.2144 28.2595 19.8415 29.3757 20.9578C30.492 22.0741 31.1192 23.5881 31.1192 25.1668C31.1192 26.7454 30.492 28.2595 29.3757 29.3757C28.2595 30.492 26.7454 31.1192 25.1668 31.1192C23.5881 31.1192 22.0741 30.492 20.9578 29.3757C19.8415 28.2595 19.2144 26.7454 19.2144 25.1668ZM20.143 14.7144C20.3102 14.8818 20.4041 15.1087 20.4041 15.3453C20.4041 15.582 20.3102 15.8089 20.143 15.9763L16.5715 19.5477C16.4041 19.7149 16.1772 19.8089 15.9406 19.8089C15.704 19.8089 15.477 19.7149 15.3096 19.5477L13.5239 17.7596C13.3614 17.5912 13.2715 17.3656 13.2736 17.1315C13.2758 16.8974 13.3698 16.6735 13.5354 16.508C13.701 16.3425 13.925 16.2488 14.1591 16.2468C14.3932 16.2449 14.6187 16.335 14.787 16.4977L15.9418 17.6537L18.8811 14.7132C19.0485 14.546 19.2754 14.4521 19.512 14.4521C19.7486 14.4521 19.9756 14.5472 20.143 14.7144Z" fill="#2A8213"/>
</svg>
