<svg width="42" height="42" viewBox="0 0 42 42" fill="none" xmlns="http://www.w3.org/2000/svg">
<rect x="0.5" y="0.5" width="41" height="41" rx="10.5" fill="#FFF3E6" stroke="#E75119"/>
<g clip-path="url(#clip0_1568_3640)">
<path d="M29.2196 8.5H22.3597C22.1464 8.49985 21.9418 8.58411 21.7905 8.73438L8.07618 22.4453C7.77596 22.747 7.60742 23.1553 7.60742 23.5809C7.60742 24.0065 7.77596 24.4148 8.07618 24.7165L14.6052 31.2455C14.907 31.5458 15.3154 31.7143 15.7411 31.7143C16.1668 31.7143 16.5752 31.5458 16.877 31.2455L30.5873 17.5402C30.7376 17.3889 30.8219 17.1842 30.8217 16.971V10.1071C30.8227 9.89623 30.782 9.68719 30.702 9.49206C30.6219 9.29694 30.504 9.11958 30.3551 8.9702C30.2062 8.82083 30.0292 8.70238 29.8343 8.62168C29.6394 8.54099 29.4305 8.49963 29.2196 8.5Z" stroke="#E75119" stroke-width="3" stroke-linecap="round" stroke-linejoin="round"/>
<path d="M26.357 14.7501C26.0038 14.7501 25.6586 14.6454 25.3649 14.4492C25.0713 14.253 24.8424 13.9741 24.7072 13.6478C24.5721 13.3215 24.5367 12.9624 24.6056 12.6161C24.6745 12.2697 24.8446 11.9515 25.0943 11.7017C25.3441 11.452 25.6622 11.2819 26.0086 11.213C26.355 11.1441 26.7141 11.1795 27.0404 11.3146C27.3667 11.4498 27.6456 11.6787 27.8418 11.9723C28.038 12.266 28.1427 12.6112 28.1427 12.9644C28.1427 13.438 27.9546 13.8922 27.6197 14.2271C27.2848 14.562 26.8306 14.7501 26.357 14.7501Z" fill="#E75119"/>
<path d="M19.5493 33.5001L34.1699 18.8796C34.2425 18.8063 34.2998 18.7191 34.3381 18.6232C34.3764 18.5274 34.3951 18.4248 34.3931 18.3216V11.1787" stroke="#E75119" stroke-width="3" stroke-linecap="round" stroke-linejoin="round"/>
</g>
<defs>
<clipPath id="clip0_1568_3640">
<rect width="28.5714" height="28.5714" fill="white" transform="translate(6.71436 6.71436)"/>
</clipPath>
</defs>
</svg>
