<svg width="42" height="42" viewBox="0 0 42 42" fill="none" xmlns="http://www.w3.org/2000/svg">
<rect x="0.5" y="0.5" width="41" height="41" rx="10.5" fill="#FFF3E6" stroke="#E6B10B"/>
<path d="M15.048 15.0476H13.8575C13.226 15.0476 12.6204 15.2985 12.1739 15.745C11.7274 16.1915 11.4766 16.7971 11.4766 17.4286V28.1428C11.4766 28.7743 11.7274 29.3799 12.1739 29.8264C12.6204 30.2729 13.226 30.5238 13.8575 30.5238H24.5718C25.2033 30.5238 25.8089 30.2729 26.2554 29.8264C26.7019 29.3799 26.9528 28.7743 26.9528 28.1428V26.9524" stroke="#E5B10B" stroke-width="3" stroke-linecap="round" stroke-linejoin="round"/>
<path d="M25.762 12.6667L29.3335 16.2382M30.9823 14.5536C31.4511 14.0848 31.7146 13.4488 31.7146 12.7858C31.7146 12.1227 31.4511 11.4868 30.9823 11.0179C30.5134 10.549 29.8775 10.2856 29.2144 10.2856C28.5513 10.2856 27.9154 10.549 27.4466 11.0179L17.4287 21.0001V24.5715H21.0001L30.9823 14.5536Z" stroke="#E5B10B" stroke-width="3" stroke-linecap="round" stroke-linejoin="round"/>
</svg>
