<svg width="42" height="42" viewBox="0 0 42 42" fill="none" xmlns="http://www.w3.org/2000/svg">
<rect x="0.5" y="0.5" width="41" height="41" rx="10.5" fill="#FFF3E6" stroke="#FF8600"/>
<g clip-path="url(#clip0_1568_1251)">
<path d="M21.0003 16.5357C19.7765 16.4972 18.5873 16.9455 17.6936 17.7824C16.7998 18.6192 16.2744 19.7763 16.2324 21C16.2744 22.2237 16.7998 23.3808 17.6936 24.2177C18.5873 25.0545 19.7765 25.5028 21.0003 25.4643C22.2241 25.5028 23.4132 25.0545 24.307 24.2177C25.2007 23.3808 25.7262 22.2237 25.7681 21C25.7262 19.7763 25.2007 18.6192 24.307 17.7824C23.4132 16.9455 22.2241 16.4972 21.0003 16.5357ZM21.0003 23.2322C20.3694 23.2666 19.7503 23.052 19.276 22.6345C18.8018 22.2171 18.5104 21.6301 18.4646 21C18.5104 20.3699 18.8018 19.783 19.276 19.3655C19.7503 18.9481 20.3694 18.7335 21.0003 18.7679C21.6311 18.7335 22.2503 18.9481 22.7245 19.3655C23.1987 19.783 23.4901 20.3699 23.536 21C23.4901 21.6301 23.1987 22.2171 22.7245 22.6345C22.2503 23.052 21.6311 23.2666 21.0003 23.2322Z" fill="#FF8600"/>
<path d="M21.0001 11.1787C17.8781 11.0557 14.8 11.9456 12.2253 13.7157C9.65063 15.4858 7.71746 18.0411 6.71436 21.0001C7.71746 23.9592 9.65063 26.5145 12.2253 28.2846C14.8 30.0546 17.8781 30.9446 21.0001 30.8216C24.1221 30.9446 27.2002 30.0546 29.7748 28.2846C32.3495 26.5145 34.2827 23.9592 35.2858 21.0001C34.2827 18.0411 32.3495 15.4858 29.7748 13.7157C27.2002 11.9456 24.1221 11.0557 21.0001 11.1787ZM30.6429 24.5716C29.4273 25.9058 27.9338 26.9571 26.2677 27.6513C24.6015 28.3455 22.8034 28.6657 21.0001 28.5894C19.1967 28.6657 17.3986 28.3455 15.7325 27.6513C14.0664 26.9571 12.5728 25.9058 11.3572 24.5716C10.4092 23.5145 9.64292 22.3077 9.08936 21.0001C9.64292 19.6926 10.4092 18.4858 11.3572 17.4287C12.5728 16.0945 14.0664 15.0432 15.7325 14.349C17.3986 13.6548 19.1967 13.3345 21.0001 13.4109C22.8034 13.3345 24.6015 13.6548 26.2677 14.349C27.9338 15.0432 29.4273 16.0945 30.6429 17.4287C31.5909 18.4858 32.3572 19.6926 32.9108 21.0001C32.3572 22.3077 31.5909 23.5145 30.6429 24.5716Z" fill="#FF8600"/>
</g>
<defs>
<clipPath id="clip0_1568_1251">
<rect width="28.5714" height="28.5714" fill="white" transform="translate(6.71436 6.71436)"/>
</clipPath>
</defs>
</svg>
