<svg width="42" height="42" viewBox="0 0 42 42" fill="none" xmlns="http://www.w3.org/2000/svg">
<rect x="0.5" y="0.5" width="41" height="41" rx="10.5" fill="#FFF3E6" stroke="#3BC119"/>
<path d="M28.1434 30.524V26.9526H24.5719V24.5716H28.1434V21.0002H30.5243V24.5716H34.0958V26.9526H30.5243V30.524H28.1434ZM10.2862 31.7145C9.63147 31.7145 9.07075 31.4811 8.60408 31.0145C8.13742 30.5478 7.90448 29.9875 7.90528 29.3335V12.6668C7.90528 12.0121 8.13861 11.4514 8.60528 10.9847C9.07194 10.518 9.63226 10.2851 10.2862 10.2859H26.9529C27.6077 10.2859 28.1684 10.5192 28.635 10.9859C29.1017 11.4526 29.3346 12.0129 29.3338 12.6668V18.6192H26.9529V16.2383H10.2862V29.3335H25.7624V31.7145H10.2862ZM10.2862 13.8573H26.9529V12.6668H10.2862V13.8573Z" fill="#3BC119"/>
</svg>
