<svg width="42" height="42" viewBox="0 0 42 42" fill="none" xmlns="http://www.w3.org/2000/svg">
<rect x="0.5" y="0.5" width="41" height="41" rx="10.5" fill="#FFF3E6" stroke="#0095FF"/>
<path d="M21 15.643C21 14.3801 20.4983 13.1689 19.6052 12.2758C18.7122 11.3828 17.501 10.8811 16.238 10.8811H9.69043V28.143H17.4285C18.3757 28.143 19.2841 28.5193 19.9539 29.1891C20.6237 29.8588 21 30.7672 21 31.7144M21 15.643V31.7144M21 15.643C21 14.3801 21.5017 13.1689 22.3947 12.2758C23.2877 11.3828 24.4989 10.8811 25.7619 10.8811H32.3095V28.143H24.5714C23.6242 28.143 22.7158 28.5193 22.046 29.1891C21.3762 29.8588 21 30.7672 21 31.7144" stroke="#0095FF" stroke-width="3" stroke-linejoin="round"/>
</svg>
