<svg width="102" height="102" viewBox="0 0 102 102" fill="none" xmlns="http://www.w3.org/2000/svg">
<path d="M33.6166 41.2179V9.9706C33.6166 9.22532 33.0124 8.62109 32.2671 8.62109H27.769C24.3247 8.62109 21.5225 11.4233 21.5225 14.868V42.4546C21.5225 45.8993 24.3247 48.7015 27.769 48.7015H28.5423C29.2876 48.7015 29.8918 48.0971 29.8918 47.352C29.8918 46.6069 29.2876 46.0025 28.5423 46.0025H27.769C25.8128 46.0025 24.2215 44.4107 24.2215 42.4546V14.868C24.2215 12.9119 25.8128 11.3201 27.769 11.3201H30.9176V41.2181C30.9176 41.9631 31.5218 42.5676 32.2671 42.5676C33.0124 42.5676 33.6166 41.9631 33.6166 41.2179Z" fill="#0095FF"/>
<path d="M37.8184 13.3678L61.8804 21.8882V27.7836C61.8804 28.5287 62.4847 29.1331 63.2297 29.1331C63.9752 29.1331 64.5795 28.5287 64.5795 27.7836V22.2842H68.2353C69.499 22.2842 70.5269 23.3122 70.5269 24.5758V29.326C70.5269 30.0713 71.1312 30.6755 71.8764 30.6755C72.6217 30.6755 73.2259 30.0711 73.2259 29.326V24.5756C73.2259 21.8238 70.9871 19.5848 68.2351 19.5848H63.461L38.7193 10.8237C38.0166 10.5741 37.2452 10.9425 36.9966 11.6455C36.748 12.348 37.116 13.1191 37.8184 13.3678Z" fill="#0095FF"/>
<path d="M58.7054 87.7351C45.0077 86.353 34.6784 74.9134 34.6784 61.1257C34.6784 46.3779 46.6768 34.3796 61.4245 34.3796C76.1723 34.3796 88.1706 46.3779 88.1706 61.1257C88.1706 62.2539 88.0999 63.389 87.9597 64.5003C87.8666 65.24 88.3908 65.9151 89.1303 66.008C89.8698 66.0994 90.5449 65.5772 90.6378 64.8375C90.7914 63.6145 90.8697 62.366 90.8697 61.1255C90.8697 44.8892 77.6605 31.6802 61.4243 31.6802C45.188 31.6802 31.979 44.8892 31.979 61.1255C31.979 76.3046 43.3522 88.8986 58.4339 90.4206C58.4801 90.425 58.5257 90.4274 58.5711 90.4274C59.2556 90.4274 59.8419 89.9086 59.9121 89.2134C59.9872 88.4717 59.4467 87.8099 58.7054 87.7351Z" fill="#FF8600" stroke="#FF8600" stroke-width="1.75"/>
<path d="M79.2059 61.1255C79.2059 61.8706 79.8099 62.475 80.5552 62.475C81.3007 62.475 81.9047 61.8706 81.9047 61.1255C81.9047 49.8324 72.7173 40.645 61.4244 40.645C50.1315 40.645 40.9443 49.8326 40.9443 61.1255C40.9443 71.0894 48.056 79.572 57.854 81.2952C57.9331 81.3092 58.012 81.3159 58.0895 81.3159C58.7326 81.3159 59.3019 80.8547 59.4173 80.1997C59.5462 79.4654 59.0561 78.7659 58.3218 78.6366C49.8165 77.1409 43.6436 69.776 43.6436 61.1253C43.6436 51.3208 51.6203 43.344 61.4246 43.344C71.229 43.344 79.2059 51.3209 79.2059 61.1255Z" fill="#FF8600" stroke="#FF8600" stroke-width="1.75"/>
<path d="M61.4246 52.4036C66.234 52.4036 70.1464 56.3165 70.1464 61.1256C70.1464 61.8707 70.7505 62.4751 71.4957 62.4751C72.2412 62.4751 72.8452 61.8707 72.8452 61.1256C72.8452 54.8279 67.7219 49.7046 61.4244 49.7046C55.1269 49.7046 50.0034 54.8279 50.0034 61.1256C50.0034 65.8049 52.806 69.962 57.1436 71.7165C57.3094 71.7838 57.4805 71.8153 57.649 71.8153C58.1827 71.8153 58.6884 71.4967 58.9005 70.9716C59.18 70.2807 58.8465 69.494 58.1556 69.2147C54.8428 67.8745 52.7024 64.6996 52.7024 61.1256C52.7028 56.3165 56.6155 52.4036 61.4246 52.4036Z" fill="#FF8600" stroke="#FF8600" stroke-width="1.75"/>
<path d="M91.7943 80.5507L85.7761 69.653C84.2553 66.8998 81.1415 65.3545 78.0299 65.8109L71.109 66.8225L65.7371 59.2048C65.0436 58.2209 64.0067 57.5752 62.8176 57.3877C61.6282 57.2001 60.4435 57.4943 59.4804 58.2169C57.6586 59.5841 57.1801 62.1658 58.3929 64.0986L67.3287 78.2388C67.7265 78.8687 68.5604 79.0564 69.1904 78.6585C69.8207 78.2601 70.0084 77.4267 69.6101 76.7964L60.6766 62.6601C60.2064 61.9104 60.3923 60.9073 61.1001 60.3758C61.4744 60.0949 61.9346 59.9806 62.3966 60.0537C62.8586 60.1268 63.2616 60.3774 63.5312 60.7597L69.3808 69.0556C69.6743 69.4711 70.1761 69.6885 70.6791 69.6132L78.4206 68.4812C80.4279 68.1866 82.4328 69.1835 83.413 70.9583L89.4312 81.8558C90.081 83.0322 89.7924 84.497 88.7453 85.3393L82.8574 90.0728C81.825 90.9027 80.3452 90.881 79.338 90.021L74.6342 86.0055C73.4397 84.9857 71.8607 84.5098 70.2962 84.6994C69.246 84.8275 68.2036 84.3749 67.5783 83.5195C67.1235 82.8969 66.9338 82.1337 67.0446 81.3705L67.1227 80.832C67.2297 80.0943 66.7187 79.4094 65.981 79.3024C65.245 79.197 64.5587 79.7062 64.4516 80.4439L64.3733 80.9824C64.1605 82.4489 64.5247 83.9155 65.3992 85.112C66.5999 86.755 68.5999 87.624 70.6271 87.3781C71.4381 87.2787 72.2601 87.5275 72.8815 88.0583L77.5854 92.0737C78.6035 92.9427 79.8655 93.3792 81.1293 93.3792C82.3388 93.3788 83.5497 92.9788 84.5483 92.1761L90.4362 87.4425C92.5083 85.7764 93.0797 82.8782 91.7943 80.5507Z" fill="#FF8600" stroke="#FF8600" stroke-width="1.75"/>
<path d="M16.0705 27.3115H10.8725C10.1272 27.3115 9.52295 27.916 9.52295 28.661C9.52295 29.4061 10.1272 30.0105 10.8725 30.0105H16.0705C16.8159 30.0105 17.42 29.4063 17.42 28.661C17.42 27.9158 16.8159 27.3115 16.0705 27.3115Z" fill="#0095FF"/>
<path d="M15.4941 43.673L10.5754 45.3546C9.8702 45.5954 9.49407 46.363 9.73493 47.0679C9.92678 47.6285 10.4507 47.9813 11.0119 47.9813C11.1568 47.9813 11.3042 47.958 11.4486 47.9084L16.3673 46.2268C17.0726 45.9857 17.4487 45.2183 17.2076 44.5135C16.9664 43.8081 16.1988 43.4301 15.4941 43.673Z" fill="#0095FF"/>
<path d="M10.5754 11.9678L15.4941 13.6494C15.639 13.6992 15.786 13.7225 15.9308 13.7225C16.4918 13.7225 17.016 13.3697 17.2076 12.8091C17.4487 12.1043 17.0726 11.3367 16.3673 11.0958L11.4486 9.4142C10.7438 9.17195 9.97638 9.54927 9.73493 10.2545C9.49407 10.9593 9.8702 11.7267 10.5754 11.9678Z" fill="#0095FF"/>
</svg>
