<svg width="102" height="102" viewBox="0 0 102 102" fill="none" xmlns="http://www.w3.org/2000/svg">
<path d="M89.5603 39.0257C90.5726 37.8195 90.4154 36.021 89.2091 35.0087L63.0217 13.0344C60.9064 11.2594 57.7527 11.5353 55.9777 13.6505L51.6374 18.8226C50.277 20.4436 48.0434 21.0327 46.0606 20.2934L35.7899 16.4641C33.2896 15.5319 30.4979 16.7274 29.4471 19.1803L20.1909 40.7884C19.4318 42.5606 17.6894 43.7097 15.7615 43.7097C13.1003 43.7097 10.9429 45.867 10.9429 48.5283V86.043C10.9429 88.8045 13.1814 91.043 15.9429 91.043H86.0856C88.847 91.043 91.0856 88.8045 91.0856 86.043V45.4447C91.0856 44.4865 90.3087 43.7097 89.3505 43.7097C87.8765 43.7097 87.0739 41.9881 88.0215 40.8591L89.5603 39.0257ZM56.8745 23.9131C58.6494 21.7979 61.8029 21.5219 63.9183 23.2966L77.2992 34.5226C79.4151 36.2978 79.6909 39.4523 77.9152 41.5677L77.6159 41.9243C76.6659 43.056 75.2639 43.7097 73.7863 43.7097H50.9856C46.7384 43.7097 44.4253 38.7492 47.1554 35.4957L56.8745 23.9131ZM33.7464 27.6477C34.6086 25.6345 36.8997 24.6532 38.9518 25.4182C41.6078 26.4084 42.4839 29.7293 40.6618 31.9007L31.3407 43.0095C30.9683 43.4533 30.4186 43.7097 29.8392 43.7097C28.4322 43.7097 27.4835 42.2712 28.0374 40.9779L33.7464 27.6477ZM83.8003 78.7568C83.8002 81.5181 81.5617 83.7566 78.8003 83.7566H23.2293C20.4679 83.7566 18.2293 81.518 18.2293 78.7566V55.9951C18.2293 53.2337 20.4679 50.9951 23.2293 50.9951H78.801C81.5625 50.9951 83.8011 53.2338 83.801 55.9952L83.8003 78.7568Z" fill="#FF8600"/>
<path d="M61.9248 67.4884C61.9248 65.4766 63.5557 63.8457 65.5675 63.8457H72.8539C74.8658 63.8457 76.4967 65.4766 76.4967 67.4884C76.4967 69.5002 74.8658 71.1311 72.8539 71.1311H65.5675C63.5557 71.1311 61.9248 69.5002 61.9248 67.4884Z" fill="#0095FF"/>
</svg>
