<svg width="102" height="102" viewBox="0 0 102 102" fill="none" xmlns="http://www.w3.org/2000/svg">
<path d="M53.9483 32.6717C52.6733 32.6717 51.6374 31.6357 51.6374 30.2811C51.6374 28.9264 52.6733 27.8904 53.9483 27.8904H86.6202C87.8952 27.8904 88.9311 28.9264 88.9311 30.2811C88.9311 31.6357 87.8952 32.6717 86.6202 32.6717H53.9483ZM53.9483 44.5451C52.6733 44.5451 51.6374 43.5092 51.6374 42.1545C51.6374 40.7998 52.6733 39.7639 53.9483 39.7639H86.6202C87.8952 39.7639 88.9311 40.7998 88.9311 42.1545C88.9311 43.5092 87.8952 44.5451 86.6202 44.5451H53.9483ZM53.9483 57.2154C52.6733 57.2154 51.6374 56.1795 51.6374 54.8248C51.6374 53.4701 52.6733 52.4342 53.9483 52.4342H81.5202C82.7952 52.4342 83.8311 53.4701 83.8311 54.8248C83.8311 56.1795 82.7952 57.2154 81.5202 57.2154H53.9483ZM5.81707 81.9186C5.57801 81.9186 5.33894 81.9185 5.09988 81.8389C3.82488 81.4404 3.10769 80.0061 3.50613 78.6514C5.81707 70.842 11.2358 64.467 18.2483 61.1201L19.8421 60.3232L18.4874 59.1279C14.503 55.7014 12.1921 50.6014 12.1921 45.2623C12.1921 35.3014 20.0014 27.2529 29.4843 27.2529C39.0468 27.2529 46.7764 35.3014 46.7764 45.2623C46.7764 50.6014 44.4655 55.7014 40.4811 59.1279L39.1264 60.3232L40.7202 61.1201C47.4936 64.3076 53.9483 72.2764 56.4186 80.4842C58.0124 85.7435 54.7452 84.0701 56.2593 82.0779C55.9405 82.556 54.5858 81.5201 53.0718 81.5201C51.7968 81.5201 51.1593 83.9904 51.1593 83.7514C48.0514 73.392 39.1264 63.5107 29.4843 63.5107C19.603 63.5107 10.9171 70.2045 7.96863 80.0857C7.80926 81.2014 6.85301 81.9186 5.81707 81.9186ZM29.6436 32.2732C22.7108 32.2732 17.053 38.0904 17.053 45.2623C17.053 52.4342 22.7108 58.2514 29.6436 58.2514C36.5764 58.2514 42.2343 52.4342 42.2343 45.2623C42.1546 38.0904 36.5764 32.2732 29.6436 32.2732Z" fill="#0095FF"/>
<path d="M10.9969 85.5842C5.33906 85.5842 0.796875 80.803 0.796875 74.9858V22.0733C0.796875 16.2561 5.33906 11.4749 10.9969 11.4749H90.7641C96.4219 11.4749 100.964 16.2561 100.964 22.0733V74.9061C100.964 80.7233 96.4219 85.5045 90.7641 85.5045H10.9969V85.5842ZM10.9969 15.6983C7.57031 15.6983 4.86094 18.567 4.86094 22.0733V74.9061C4.86094 78.4124 7.65 81.2811 10.9969 81.2811H90.7641C94.1906 81.2811 96.9 78.4124 96.9 74.9061V22.0733C96.9 18.567 94.1109 15.6983 90.7641 15.6983H10.9969Z" fill="#FF8600"/>
</svg>
