<svg width="102" height="102" viewBox="0 0 102 102" fill="none" xmlns="http://www.w3.org/2000/svg">
<g clip-path="url(#clip0_1546_3751)">
<path d="M77.6044 12.8278H68.1433C67.296 9.52743 64.2957 7.08084 60.7344 7.08084H57.4808V6.481C57.4808 2.90717 54.5736 0 50.9998 0C47.4259 0 44.5191 2.90717 44.5191 6.481V7.08084H41.2654C37.7042 7.08084 34.7039 9.52743 33.8566 12.8278H24.3954C17.918 12.8278 12.6484 18.0976 12.6484 24.575V90.2531C12.6484 96.7304 17.918 102 24.3954 102H77.6044C84.0818 102 89.3514 96.7304 89.3514 90.2531V24.5747C89.3514 18.0974 84.0818 12.8278 77.6044 12.8278ZM41.2654 12.1141H47.0358C48.4259 12.1141 49.5526 10.9874 49.5526 9.59734V6.481C49.5526 5.6829 50.202 5.03357 51.0001 5.03357C51.7982 5.03357 52.4475 5.6829 52.4475 6.481V9.59734C52.4475 10.9874 53.5742 12.1141 54.9643 12.1141H60.7347C62.1763 12.1141 63.3494 13.287 63.3494 14.7288V15.2414H38.6513V14.7288H38.6507C38.6507 13.2872 39.8236 12.1141 41.2654 12.1141ZM24.3954 17.8613H33.6225C33.677 19.2031 34.7788 20.2749 36.134 20.2749H65.8656C67.2207 20.2749 68.3228 19.2031 68.3771 17.8613H77.6042C80.6587 17.8613 83.2415 19.9128 84.0519 22.7095H17.9477C18.7581 19.9125 21.3409 17.8613 24.3954 17.8613ZM77.6044 96.9664H24.3954C21.1308 96.9664 18.4046 94.6239 17.8056 91.5316H84.1942C83.5955 94.6239 80.869 96.9664 77.6044 96.9664ZM84.3178 86.498H17.682V27.7431H84.3178V86.498Z" fill="#FF8600"/>
<path d="M53.7956 45.993H68.8955C70.2856 45.993 71.4123 44.8664 71.4123 43.4763C71.4123 42.0862 70.2856 40.9595 68.8955 40.9595H53.7956C52.4055 40.9595 51.2788 42.0862 51.2788 43.4763C51.2788 44.8664 52.4055 45.993 53.7956 45.993Z" fill="#0095FF"/>
<path d="M53.7956 59.6908H68.8955C70.2856 59.6908 71.4123 58.5641 71.4123 57.174C71.4123 55.7839 70.2853 54.6572 68.8955 54.6572H53.7956C52.4055 54.6572 51.2788 55.7839 51.2788 57.174C51.2788 58.5641 52.4055 59.6908 53.7956 59.6908Z" fill="#0095FF"/>
<path d="M53.7956 73.3886H68.8955C70.2856 73.3886 71.4123 72.2619 71.4123 70.8718C71.4123 69.4817 70.2853 68.355 68.8955 68.355H53.7956C52.4055 68.355 51.2788 69.4817 51.2788 70.8718C51.2788 72.2619 52.4055 73.3886 53.7956 73.3886Z" fill="#0095FF"/>
<path d="M42.7853 66.5945L37.655 69.8994L36.9825 69.3199C35.9293 68.4125 34.3401 68.5308 33.4332 69.5842C32.5261 70.6373 32.6444 72.2265 33.6972 73.1337L35.7945 74.9405C36.2635 75.3446 36.8491 75.5504 37.4377 75.5504C37.9095 75.5504 38.3832 75.4181 38.8001 75.1494L45.5113 70.8261C46.6799 70.0733 47.0169 68.516 46.2641 67.3473C45.5119 66.179 43.9545 65.8415 42.7853 66.5945Z" fill="#0095FF"/>
<path d="M42.7853 52.92L37.655 56.2248L36.9825 55.6454C35.9293 54.7379 34.3401 54.8562 33.4332 55.9096C32.5261 56.9628 32.6444 58.552 33.6972 59.4591L35.7945 61.2659C36.2635 61.67 36.8491 61.8758 37.4377 61.8758C37.9095 61.8758 38.3832 61.7435 38.8001 61.4748L45.5113 57.1515C46.6799 56.3987 47.0169 54.8414 46.2641 53.6728C45.5119 52.5044 43.9545 52.1669 42.7853 52.92Z" fill="#0095FF"/>
<path d="M33.6973 45.7843L35.7946 47.5908C36.2638 47.9949 36.8491 48.2007 37.4378 48.2007C37.9095 48.2007 38.3832 48.0685 38.8002 47.7997L45.5113 43.4765C46.68 42.7237 47.0169 41.1663 46.2641 39.9977C45.5119 38.8296 43.9546 38.4921 42.7854 39.2452L37.6551 42.55L36.9825 41.9706C35.9288 41.0631 34.3404 41.1817 33.433 42.2348C32.5261 43.288 32.6444 44.8772 33.6973 45.7843Z" fill="#0095FF"/>
</g>
<defs>
<clipPath id="clip0_1546_3751">
<rect width="102" height="102" fill="white"/>
</clipPath>
</defs>
</svg>
