<svg width="102" height="102" viewBox="0 0 102 102" fill="none" xmlns="http://www.w3.org/2000/svg">
<path d="M45.9571 0C36.0864 0 26.6556 3.01736 18.684 8.72628C17.3136 9.70796 16.9411 11.5662 17.8293 12.989L25.1333 24.6866C25.6058 25.4435 26.3766 25.9718 27.2601 26.1442C28.143 26.317 29.0598 26.1183 29.789 25.5962C34.1399 22.4803 39.289 20.8331 44.6794 20.8331C58.6801 20.8331 70.0703 32.0779 70.0703 45.8998C70.0703 59.7218 58.6801 70.9666 44.6794 70.9666C39.289 70.9666 34.1399 69.3194 29.789 66.2035C29.0598 65.6814 28.1437 65.483 27.2601 65.6555C26.3769 65.8279 25.6061 66.3562 25.1333 67.1131L17.8293 78.811C16.9407 80.2338 17.3136 82.092 18.684 83.0737C26.6552 88.7826 36.0864 91.8 45.9571 91.8C71.5938 91.8 92.4508 71.2092 92.4508 45.8998C92.4508 20.5905 71.5938 0 45.9571 0ZM45.9571 85.4101C38.4665 85.4101 31.2714 83.3921 24.9727 79.5482L28.9111 73.2406C33.6975 75.9423 39.0855 77.3568 44.6794 77.3568C62.249 77.3568 76.5427 63.2452 76.5427 45.9002C76.5427 28.5552 62.2487 14.4436 44.6794 14.4436C39.0858 14.4436 33.6975 15.858 28.9111 18.5597L24.9727 12.2518C31.2711 8.40823 38.4665 6.38986 45.9571 6.38986C68.0246 6.38986 85.978 24.1141 85.978 45.8998C85.978 67.6856 68.0249 85.4101 45.9571 85.4101Z" fill="#FF8600"/>
<path d="M33.2343 59.9431C32.5721 60.9235 32.5104 62.184 33.0737 63.2229C33.6369 64.2614 34.7337 64.9102 35.9269 64.9102H50.1667C51.2488 64.9102 52.2594 64.3764 52.8596 63.4874L63.5397 47.6721C64.2645 46.599 64.2645 45.2006 63.5397 44.1278L52.8599 28.3122C52.2597 27.4232 51.2494 26.8894 50.167 26.8894H35.9272C34.7337 26.8894 33.6369 27.5382 33.074 28.5767C32.5107 29.6156 32.5724 30.8764 33.2346 31.8565L37.0001 37.4328H9.22731C4.49842 37.4328 0.650879 41.231 0.650879 45.8998C0.650879 50.5686 4.49811 54.3668 9.22731 54.3668H36.9998L33.2343 59.9431ZM9.22731 47.9766C8.06732 47.9766 7.12367 47.045 7.12367 45.8998C7.12367 44.7546 8.06732 43.823 9.22731 43.823H43.0471C44.2406 43.823 45.3374 43.1742 45.9003 42.1357C46.4635 41.0968 46.4019 39.836 45.7397 38.8559L41.9742 33.2796H48.4347L56.957 45.8998L48.4347 58.52H41.9742L45.7397 52.9437C46.4019 51.9633 46.4635 50.7028 45.9003 49.6639C45.337 48.6254 44.2403 47.9766 43.0471 47.9766H9.22731Z" fill="#0095FF"/>
</svg>
