<svg width="102" height="102" viewBox="0 0 102 102" fill="none" xmlns="http://www.w3.org/2000/svg">
<g clip-path="url(#clip0_1546_840)">
<path d="M94.9225 2.05884H7.07646C3.17422 2.05884 0 5.23244 0 9.13551V64.4801C0 68.3822 3.17422 71.5564 7.07646 71.5564H61.2605C60.42 69.4048 59.9021 67.0376 59.7722 64.5419L6.97439 64.4801L7.07646 9.03302L95.0256 9.13551V64.4801C95.0256 64.5381 94.9778 64.5824 94.9227 64.5824L91.7522 64.5785C91.6198 67.0611 91.1055 69.4145 90.2683 71.5562H94.9227C98.8262 71.5562 102 68.3818 102 64.4799V9.13551C102 5.23244 98.8262 2.05884 94.9225 2.05884Z" fill="#FF8600"/>
<path d="M75.7636 79.2088C82.6975 79.2088 88.3171 72.1091 88.3171 63.3494C88.3171 54.5909 82.6977 47.491 75.7636 47.491C68.8306 47.491 63.2114 54.5909 63.2114 63.3494C63.2114 72.1091 68.8308 79.2088 75.7636 79.2088Z" fill="#0095FF"/>
<path d="M16.8571 24.6024H47.9488C49.8765 24.6024 51.4363 23.0434 51.4363 21.1157C51.4363 19.1884 49.8763 17.6284 47.9488 17.6284H16.8571C14.9298 17.6284 13.3706 19.1884 13.3706 21.1157C13.3706 23.0434 14.9295 24.6024 16.8571 24.6024Z" fill="#0095FF"/>
<path d="M86.3078 36.8084C86.3078 34.8807 84.7477 33.3203 82.8203 33.3203H16.8571C14.9298 33.3203 13.3706 34.8807 13.3706 36.8084C13.3706 38.7358 14.9295 40.2947 16.8571 40.2947H82.8203C84.7477 40.2947 86.3078 38.736 86.3078 36.8084Z" fill="#0095FF"/>
<path d="M16.8571 49.0129C14.9298 49.0129 13.3706 50.5729 13.3706 52.4994C13.3706 54.4271 14.9295 55.9871 16.8571 55.9871H47.9488C49.8765 55.9871 51.4363 54.4271 51.4363 52.4994C51.4363 50.5727 49.8763 49.0129 47.9488 49.0129H16.8571Z" fill="#0095FF"/>
<path d="M86.3615 77.8435C86.348 77.8606 81.5188 83.4292 74.7764 82.6417L83.1607 99.6005C83.2627 99.8109 83.4779 99.9412 83.7088 99.9412C83.7232 99.9412 83.7367 99.9412 83.7535 99.9412C83.9993 99.9213 84.2096 99.7577 84.288 99.519L86.4031 93.0259C86.4534 92.872 86.5667 92.7417 86.7124 92.6667C86.7974 92.6263 86.8926 92.6064 86.9814 92.6064C87.0496 92.6064 87.118 92.6161 87.1864 92.6396L93.6261 94.9014C93.6934 94.9247 93.7614 94.9353 93.8298 94.9353C94.0036 94.9353 94.1672 94.863 94.2861 94.7312C94.4531 94.5441 94.4865 94.278 94.3778 94.0568L86.3615 77.8435Z" fill="#0095FF"/>
<path d="M65.2045 77.8739C65.1943 77.8641 65.1799 77.8539 65.166 77.8435L57.1497 94.053C57.0412 94.278 57.0759 94.5439 57.2428 94.7312C57.3615 94.8632 57.5282 94.9353 57.7022 94.9353C57.7706 94.9353 57.8376 94.9247 57.9026 94.9014L64.3426 92.6396C64.4107 92.6161 64.4793 92.6064 64.5467 92.6064C64.6386 92.6064 64.7305 92.6263 64.8157 92.6667C64.9625 92.7415 65.0745 92.8718 65.1261 93.0286L67.2409 99.519C67.3195 99.7545 67.5301 99.9215 67.7756 99.9377C67.7889 99.9377 67.8057 99.9377 67.8192 99.9377C68.0512 99.9377 68.2652 99.8078 68.3685 99.6007L73.8164 88.5806L70.3332 81.5347C70.3195 81.5277 67.2831 80.3115 65.2045 77.8739Z" fill="#0095FF"/>
</g>
<defs>
<clipPath id="clip0_1546_840">
<rect width="102" height="102" fill="white"/>
</clipPath>
</defs>
</svg>
