<svg width="24" height="25" viewBox="0 0 24 25" fill="none" xmlns="http://www.w3.org/2000/svg">
<path d="M13.318 4.30135C13.5399 3.81807 13.9846 3.42104 14.5607 3.19168C15.1369 2.96232 15.801 2.91804 16.4167 3.0679C19.3353 3.78782 21.3751 5.79158 20.9371 8.1097C20.4473 10.6825 19.3575 13.1588 17.7245 15.4096C16.1089 17.6553 13.991 19.6441 11.4763 21.2769C9.21454 22.7408 6.04092 22.3376 3.8032 20.6578C3.3325 20.3044 3.0469 19.8213 3.00403 19.306C2.96116 18.7907 3.16422 18.2815 3.57222 17.8813L5.17403 16.3143C5.49486 15.9992 5.92665 15.7685 6.41338 15.6521C6.90012 15.5357 7.41934 15.539 7.9037 15.6616L11.5992 16.5975L12.2442 16.0648C13.0568 15.3905 13.7675 14.6423 14.3619 13.8354C14.9388 13.0194 15.3881 12.1498 15.6997 11.2461L15.9487 10.5382L13.0991 8.43846C12.723 8.15914 12.4593 7.79672 12.3412 7.39722C12.2232 6.99772 12.2562 6.57917 12.4361 6.19473L13.315 4.30375L13.318 4.30135ZM17.2986 0.773775C15.9513 0.444001 14.4973 0.538914 13.2347 1.03906C11.972 1.53922 10.9963 2.40673 10.5074 3.46385L9.62849 5.35483C9.24078 6.1856 9.17065 7.08984 9.42704 7.95258C9.68342 8.81531 10.2547 9.59756 11.0683 10.1999L12.5381 11.2821C12.3492 11.6997 12.0942 12.1772 11.7642 12.6404C11.4343 13.0963 11.0503 13.5115 10.6994 13.8498L8.80959 13.3699C7.75308 13.103 6.62077 13.096 5.55922 13.3497C4.49766 13.6034 3.55573 14.1062 2.85531 14.7929L1.25351 16.3599C0.363304 17.2308 -0.0804234 18.3396 0.0120087 19.4621C0.104441 20.5847 0.726139 21.6373 1.75145 22.4072C4.73308 24.6461 9.60149 25.5748 13.36 23.1415C16.1607 21.3239 18.5196 19.1097 20.3192 16.6095C22.141 14.099 23.357 11.337 23.9037 8.46726C24.6237 4.64451 21.1951 1.73366 17.2986 0.776175V0.773775Z" fill="white"/>
</svg>
