<svg width="334" height="300" viewBox="0 0 334 300" fill="none" xmlns="http://www.w3.org/2000/svg">
<g clip-path="url(#clip0_1533_68166)">
<path d="M2.95778 246.926C5.99592 265.673 19.6844 280.189 34.2574 292.875C36.2921 294.646 38.3317 296.383 40.3761 298.086C40.3904 298.094 40.4042 298.11 40.4186 298.119C40.517 298.2 40.6156 298.282 40.7066 298.363C41.1286 298.714 41.5508 299.065 41.9694 299.412L41.7068 299.494L40.8886 299.746C41.1695 299.669 41.4465 299.595 41.7273 299.518C41.811 299.494 41.898 299.474 41.9816 299.45C51.6437 296.832 61.5023 293.96 69.4011 287.828C77.5957 281.459 83.2393 270.602 80.4131 260.598C80.0411 259.288 79.5245 258.023 78.8727 256.827C78.6063 256.327 78.3126 255.843 78.0037 255.366C76.1362 252.424 73.5211 250.034 70.4272 248.441C67.3333 246.849 63.8724 246.112 60.4002 246.306C56.928 246.499 53.5699 247.617 50.6712 249.544C47.7725 251.47 45.4379 254.137 43.9074 257.268C44.0452 246.246 54.0846 238.208 63.5009 232.519C72.9207 226.835 83.5861 220.693 86.5476 210.072C88.1988 204.162 86.8098 198.076 83.5676 192.934C83.4669 192.777 83.3663 192.621 83.2616 192.468C79.2854 186.455 73.1934 182.167 66.2025 180.461C53.158 177.494 39.4874 182.96 28.7879 191.015C11.5679 203.973 -0.495583 225.61 2.95778 246.926Z" fill="#F2F2F2"/>
<path d="M30.6267 226.216C27.6178 229.866 25.1558 233.937 23.3184 238.299C21.7385 242.206 20.75 246.328 20.3855 250.528C19.593 259.156 21.225 267.877 24.4798 275.861C27.0117 281.923 30.2974 287.639 34.2589 292.874C36.2936 294.646 38.3332 296.383 40.3776 298.086C40.3919 298.094 40.4057 298.11 40.4201 298.118C40.5185 298.2 40.6171 298.282 40.7081 298.363C41.1301 298.714 41.5523 299.065 41.9709 299.412L41.7083 299.494L40.8901 299.746C41.171 299.669 41.448 299.595 41.7288 299.518C41.8125 299.494 41.8995 299.474 41.9831 299.45C41.9705 292.559 43.6049 285.766 46.7494 279.639C49.8939 273.513 54.457 268.231 60.0561 264.237C65.659 260.315 72.107 257.776 78.8743 256.827C78.6078 256.327 78.3141 255.843 78.0052 255.366C75.3867 255.773 72.8092 256.412 70.3028 257.274C61.3463 260.332 53.6096 266.201 48.238 274.012C43.407 281.11 40.6956 289.443 40.4223 298.033C40.0849 297.643 39.7478 297.246 39.4219 296.853C33.2031 289.462 27.8833 281.198 24.7126 272.017C21.9403 264.232 21.1195 255.883 22.3225 247.704C23.7375 238.799 28.2843 230.941 34.2946 224.347C40.732 217.29 48.4614 211.292 56.5506 206.264C64.8371 201.102 73.7222 196.977 83.008 193.981C83.2176 193.912 83.3927 193.764 83.4971 193.57C83.6016 193.375 83.6273 193.147 83.5691 192.934C83.5323 192.744 83.4223 192.577 83.2631 192.468C83.1803 192.42 83.0877 192.391 82.9922 192.383C82.8966 192.376 82.8007 192.39 82.7114 192.425C81.5649 192.796 80.425 193.174 79.2912 193.576C69.8475 196.921 60.8547 201.429 52.5194 206.998C44.4699 212.361 36.7414 218.666 30.6267 226.216Z" fill="white"/>
<path d="M194.865 183.406C195.794 183.404 196.687 183.049 197.365 182.412C198.042 181.774 198.453 180.903 198.513 179.974L199.057 171.654C199.12 170.682 198.796 169.725 198.156 168.993C197.515 168.26 196.611 167.813 195.642 167.75L130.645 163.481C129.62 163.413 128.592 163.548 127.619 163.879C126.647 164.21 125.749 164.73 124.976 165.409C124.204 166.088 123.572 166.913 123.118 167.836C122.664 168.76 122.395 169.765 122.328 170.792C122.261 171.82 122.397 172.851 122.727 173.826C123.057 174.802 123.576 175.702 124.253 176.476C124.931 177.251 125.754 177.883 126.675 178.338C127.597 178.794 128.598 179.062 129.623 179.129L194.62 183.398C194.702 183.403 194.784 183.405 194.865 183.406Z" fill="#9FC1D9"/>
<path d="M182.049 184.478C182.996 184.476 183.905 184.108 184.587 183.449C185.269 182.79 185.67 181.892 185.706 180.943L186.169 168.516C186.187 168.034 186.11 167.554 185.943 167.102C185.776 166.65 185.521 166.235 185.194 165.882C184.867 165.528 184.474 165.243 184.037 165.042C183.6 164.841 183.128 164.728 182.647 164.71L129.198 162.707C128.228 162.67 127.283 163.022 126.571 163.684C125.859 164.347 125.439 165.266 125.402 166.239L124.939 178.666C124.921 179.148 124.998 179.628 125.165 180.08C125.333 180.532 125.587 180.947 125.914 181.3C126.241 181.654 126.635 181.939 127.072 182.14C127.509 182.341 127.981 182.454 128.461 182.472L181.91 184.475C181.957 184.477 182.003 184.478 182.049 184.478Z" fill="#474747"/>
<path d="M119.415 299.03H127.729C128.7 299.028 129.631 298.641 130.317 297.953C131.003 297.264 131.39 296.331 131.391 295.358V225.867C131.39 224.893 131.003 223.96 130.317 223.272C129.631 222.583 128.7 222.196 127.729 222.195H119.415C118.444 222.196 117.514 222.583 116.827 223.272C116.141 223.96 115.755 224.893 115.754 225.867V295.358C115.755 296.331 116.141 297.264 116.827 297.953C117.514 298.641 118.444 299.028 119.415 299.03Z" fill="#474747"/>
<path d="M156.318 262.297L163.427 257.975C164.257 257.47 164.853 256.655 165.084 255.709C165.315 254.764 165.163 253.765 164.661 252.932L128.743 193.505C128.238 192.673 127.426 192.076 126.483 191.844C125.54 191.612 124.544 191.765 123.713 192.269L116.604 196.59C115.774 197.096 115.178 197.911 114.947 198.856C114.716 199.802 114.868 200.801 115.37 201.634L151.289 261.06C151.793 261.892 152.605 262.49 153.548 262.721C154.491 262.953 155.487 262.801 156.318 262.297Z" fill="#474747"/>
<path d="M132.041 149.673C116.175 149.673 103.313 136.775 103.313 120.863C103.313 104.952 116.175 92.0532 132.041 92.0532C147.908 92.0532 160.77 104.952 160.77 120.863C160.77 136.775 147.908 149.673 132.041 149.673Z" fill="#9FC1D9"/>
<path d="M147.593 130.7C148.517 130.396 149.365 129.896 150.081 129.236C150.555 128.764 150.921 128.194 151.152 127.565C151.383 126.937 151.475 126.266 151.42 125.598C151.39 125.123 151.251 124.66 151.013 124.248C150.775 123.835 150.446 123.483 150.05 123.219C149.023 122.558 147.649 122.556 146.25 123.175L146.303 111.928L145.176 111.922L145.114 125.144L145.982 124.597C146.988 123.963 148.426 123.517 149.442 124.17C149.693 124.343 149.9 124.571 150.049 124.838C150.198 125.104 150.283 125.401 150.299 125.706C150.337 126.204 150.267 126.703 150.095 127.171C149.924 127.639 149.653 128.064 149.303 128.418C148.059 129.61 146.244 129.983 144.174 130.316L144.353 131.431C145.452 131.285 146.537 131.04 147.593 130.7Z" fill="#2F2E41"/>
<path d="M157.915 111.359L158.062 112.479L152.047 113.276L151.9 112.156L157.915 111.359Z" fill="#2F2E41"/>
<path d="M138.929 113.873L139.076 114.993L133.061 115.79L132.913 114.67L138.929 113.873Z" fill="#2F2E41"/>
<path d="M108.054 244.511H156.497C157.767 244.51 158.984 244.004 159.881 243.103C160.779 242.203 161.284 240.983 161.285 239.71L151.144 161.717C151.135 160.449 150.628 159.237 149.731 158.344C148.834 157.451 147.621 156.95 146.358 156.951H129.166C122.299 156.959 115.716 159.698 110.86 164.568C106.005 169.437 103.273 176.039 103.266 182.926V239.71C103.267 240.983 103.772 242.203 104.67 243.103C105.567 244.004 106.784 244.51 108.054 244.511Z" fill="#474747"/>
<path d="M120.252 240.353C120.546 240.998 121.02 241.543 121.617 241.924C122.213 242.304 122.906 242.504 123.613 242.498L131.927 242.426C132.408 242.422 132.883 242.323 133.326 242.134C133.768 241.946 134.17 241.672 134.507 241.328C134.844 240.984 135.11 240.577 135.29 240.13C135.47 239.683 135.561 239.205 135.557 238.722L134.992 173.403C134.983 172.373 134.772 171.355 134.371 170.408C133.97 169.46 133.386 168.6 132.654 167.879C131.922 167.157 131.055 166.587 130.103 166.201C129.151 165.815 128.133 165.621 127.106 165.63C126.079 165.639 125.064 165.851 124.119 166.253C123.174 166.655 122.317 167.24 121.598 167.975C120.878 168.709 120.31 169.578 119.925 170.533C119.54 171.488 119.347 172.509 119.356 173.539L119.92 238.858C119.924 239.375 120.037 239.884 120.252 240.353Z" fill="#9FC1D9"/>
<path d="M116.58 222.916C116.875 223.56 117.349 224.105 117.945 224.486C118.541 224.866 119.235 225.066 119.942 225.061L134.142 224.937C135.113 224.927 136.04 224.532 136.72 223.838C137.401 223.144 137.779 222.207 137.771 221.233L137.308 167.597C137.303 167.114 137.205 166.638 137.017 166.194C136.829 165.75 136.556 165.348 136.213 165.01C135.87 164.672 135.464 164.405 135.018 164.224C134.572 164.043 134.095 163.952 133.615 163.957L119.414 164.08C118.934 164.084 118.458 164.183 118.016 164.372C117.573 164.56 117.172 164.834 116.835 165.178C116.498 165.522 116.232 165.929 116.051 166.376C115.871 166.823 115.781 167.302 115.785 167.784L116.249 221.421C116.253 221.937 116.366 222.446 116.58 222.916Z" fill="#474747"/>
<path d="M131.505 103.776C135.345 100.589 140.479 103.603 144.822 103.176C148.977 102.766 152.321 99.0993 153.232 95.1532C154.295 90.5495 151.991 85.873 148.519 82.9239C144.717 79.6939 139.612 78.6901 134.747 79.1816C129.171 79.7449 124.034 82.2485 119.41 85.307C114.948 88.1652 110.83 91.5315 107.139 95.3389C103.833 98.8646 101.007 103.088 100.04 107.899C99.16 112.271 99.676 117.144 102.192 120.91C103.527 122.841 105.336 124.394 107.444 125.42C109.641 126.554 111.991 127.38 114.116 128.656C117.329 130.584 120.413 134.515 119.319 138.524C119.085 139.4 118.639 140.204 118.021 140.867C117.279 141.662 115.988 140.568 116.732 139.77C118.039 138.37 118.025 136.468 117.375 134.754C116.6 132.821 115.193 131.21 113.386 130.184C111.162 128.852 108.694 128.008 106.411 126.79C104.225 125.675 102.34 124.047 100.917 122.044C98.2312 118.147 97.5008 113.128 98.2142 108.511C98.9861 103.515 101.639 99.0126 104.928 95.2597C108.507 91.1754 112.874 87.7437 117.327 84.6708C122.105 81.3736 127.368 78.6093 133.15 77.6834C138.163 76.8808 143.567 77.5367 147.884 80.3501C151.914 82.9763 154.957 87.4196 155.176 92.324C155.245 94.555 154.72 96.7641 153.656 98.7242C152.591 100.684 151.025 102.324 149.118 103.476C147.163 104.599 144.905 105.079 142.664 104.846C140.267 104.647 137.878 103.864 135.459 104.022C134.365 104.068 133.315 104.47 132.469 105.168C131.63 105.864 130.672 104.467 131.505 103.776Z" fill="#474747"/>
<path d="M165.284 253.936C165.274 253.872 165.262 253.809 165.248 253.745C165.148 253.273 164.955 252.826 164.682 252.429C164.408 252.033 164.059 251.694 163.654 251.434L156.667 246.915C155.851 246.388 154.859 246.207 153.91 246.413C152.962 246.618 152.133 247.193 151.605 248.01L130.053 281.52C129.527 282.338 129.346 283.333 129.551 284.285C129.756 285.237 130.329 286.068 131.145 286.596L138.132 291.115C138.949 291.642 139.94 291.822 140.889 291.617C141.838 291.412 142.667 290.837 143.194 290.02L164.746 256.51C165.239 255.749 165.43 254.831 165.284 253.936Z" fill="#474747"/>
<path d="M191.451 33.0889C191.988 31.8107 192.887 30.7184 194.036 29.9472C195.186 29.1759 196.535 28.7596 197.918 28.7498H327.003C328.858 28.7508 330.637 29.4904 331.949 30.8062C333.261 32.122 333.999 33.9063 334 35.7671V199.537C333.999 201.397 333.261 203.182 331.949 204.497C330.637 205.813 328.858 206.553 327.003 206.554H197.914C196.058 206.551 194.28 205.811 192.968 204.496C191.657 203.18 190.919 201.397 190.916 199.537V35.7671C190.913 34.8478 191.093 33.9373 191.446 33.0889H191.451ZM192.475 199.537C192.476 200.984 193.05 202.371 194.071 203.395C195.091 204.418 196.475 204.994 197.918 204.996H327.003C328.446 204.995 329.83 204.42 330.851 203.397C331.872 202.373 332.446 200.985 332.446 199.538V35.768C332.444 34.3208 331.87 32.9335 330.85 31.9101C329.829 30.8868 328.446 30.311 327.003 30.309H197.914C196.826 30.3132 195.765 30.642 194.865 31.2537C193.965 31.8653 193.268 32.732 192.861 33.7431C192.782 33.9445 192.713 34.1501 192.656 34.3589C192.533 34.8184 192.47 35.2922 192.47 35.768L192.475 199.537Z" fill="#474747"/>
<path d="M218.39 67.4151H257.272C258.097 67.4151 258.888 67.0865 259.472 66.5014C260.055 65.9164 260.383 65.1229 260.383 64.2956C260.383 63.4682 260.055 62.6747 259.472 62.0897C258.888 61.5047 258.097 61.176 257.272 61.176H218.39C217.565 61.176 216.774 61.5047 216.19 62.0897C215.607 62.6747 215.279 63.4682 215.279 64.2956C215.279 65.1229 215.607 65.9164 216.19 66.5014C216.774 67.0865 217.565 67.4151 218.39 67.4151Z" fill="#474747"/>
<path d="M218.39 83.7921H257.272C257.681 83.7926 258.086 83.7123 258.464 83.5558C258.841 83.3993 259.185 83.1696 259.474 82.8799C259.763 82.5901 259.993 82.246 260.15 81.8673C260.306 81.4885 260.387 81.0825 260.387 80.6725C260.387 80.2625 260.306 79.8565 260.15 79.4778C259.993 79.099 259.763 78.7549 259.474 78.4652C259.185 78.1755 258.841 77.9458 258.464 77.7892C258.086 77.6327 257.681 77.5524 257.272 77.553H218.39C217.981 77.5524 217.576 77.6327 217.198 77.7892C216.82 77.9458 216.477 78.1755 216.188 78.4652C215.898 78.7549 215.669 79.099 215.512 79.4778C215.356 79.8565 215.275 80.2625 215.275 80.6725C215.275 81.0825 215.356 81.4885 215.512 81.8673C215.669 82.246 215.898 82.5901 216.188 82.8799C216.477 83.1696 216.82 83.3993 217.198 83.5558C217.576 83.7123 217.981 83.7926 218.39 83.7921Z" fill="#474747"/>
<path d="M277.222 93.1172H305.637C306.565 93.1162 307.455 92.7462 308.111 92.0882C308.767 91.4303 309.136 90.5381 309.137 89.6076V55.9803C309.136 55.0498 308.767 54.1577 308.111 53.4997C307.455 52.8418 306.565 52.4717 305.637 52.4707H277.222C276.294 52.4717 275.405 52.8418 274.749 53.4997C274.093 54.1577 273.724 55.0498 273.723 55.9803V89.6076C273.724 90.5381 274.093 91.4303 274.749 92.0882C275.405 92.7462 276.294 93.1163 277.222 93.1172Z" fill="#9FC1D9"/>
<path d="M218.659 117.326H306.532C307.357 117.326 308.148 116.998 308.731 116.413C309.315 115.828 309.643 115.034 309.643 114.207C309.643 113.379 309.315 112.586 308.731 112.001C308.148 111.416 307.357 111.087 306.532 111.087H218.659C217.834 111.087 217.042 111.416 216.459 112.001C215.876 112.586 215.548 113.379 215.548 114.207C215.548 115.034 215.876 115.828 216.459 116.413C217.042 116.998 217.834 117.326 218.659 117.326Z" fill="#CCCCCC"/>
<path d="M218.659 133.703H306.532C307.357 133.703 308.148 133.374 308.731 132.789C309.315 132.204 309.643 131.411 309.643 130.583C309.643 129.756 309.315 128.963 308.731 128.378C308.148 127.793 307.357 127.464 306.532 127.464H218.659C217.834 127.464 217.042 127.793 216.459 128.378C215.876 128.963 215.548 129.756 215.548 130.583C215.548 131.411 215.876 132.204 216.459 132.789C217.042 133.374 217.834 133.703 218.659 133.703Z" fill="#CCCCCC"/>
<path d="M218.659 150.08H306.532C307.356 150.079 308.147 149.75 308.729 149.165C309.312 148.58 309.639 147.787 309.639 146.96C309.639 146.134 309.312 145.341 308.729 144.756C308.147 144.171 307.356 143.842 306.532 143.841H218.659C218.25 143.84 217.845 143.921 217.467 144.077C217.089 144.234 216.746 144.463 216.457 144.753C216.167 145.043 215.938 145.387 215.781 145.766C215.625 146.144 215.544 146.55 215.544 146.96C215.544 147.37 215.625 147.776 215.781 148.155C215.938 148.534 216.167 148.878 216.457 149.168C216.746 149.457 217.089 149.687 217.467 149.844C217.845 150 218.25 150.08 218.659 150.08Z" fill="#CCCCCC"/>
<path d="M218.659 166.457H306.532C307.357 166.457 308.148 166.128 308.731 165.543C309.315 164.958 309.643 164.165 309.643 163.337C309.643 162.51 309.315 161.716 308.731 161.131C308.148 160.546 307.357 160.218 306.532 160.218H218.659C217.834 160.218 217.042 160.546 216.459 161.131C215.876 161.716 215.548 162.51 215.548 163.337C215.548 164.165 215.876 164.958 216.459 165.543C217.042 166.128 217.834 166.457 218.659 166.457Z" fill="#CCCCCC"/>
<path d="M218.659 182.834H306.532C307.357 182.834 308.148 182.505 308.731 181.92C309.315 181.335 309.643 180.542 309.643 179.714C309.643 178.887 309.315 178.093 308.731 177.508C308.148 176.923 307.357 176.595 306.532 176.595H218.659C217.834 176.595 217.042 176.923 216.459 177.508C215.876 178.093 215.548 178.887 215.548 179.714C215.548 180.542 215.876 181.335 216.459 181.92C217.042 182.505 217.834 182.834 218.659 182.834Z" fill="#CCCCCC"/>
<path d="M190.486 60.2112C173.906 60.2112 160.466 46.7324 160.466 30.1056C160.466 13.4787 173.906 0 190.486 0C207.065 0 220.506 13.4787 220.506 30.1056C220.506 46.7324 207.065 60.2112 190.486 60.2112Z" fill="#3BC119"/>
<path d="M187.807 41.5899C187.131 41.591 186.474 41.3719 185.933 40.9656L185.9 40.9404L178.845 35.5281C178.518 35.2769 178.244 34.9636 178.038 34.6061C177.832 34.2486 177.698 33.8539 177.644 33.4445C177.59 33.0352 177.617 32.6192 177.724 32.2203C177.83 31.8215 178.014 31.4475 178.264 31.1198C178.515 30.7921 178.827 30.5171 179.184 30.3105C179.54 30.1039 179.934 29.9698 180.342 29.9157C180.75 29.8616 181.165 29.8887 181.563 29.9954C181.96 30.1021 182.333 30.2863 182.66 30.5375L187.23 34.0518L198.028 19.9238C198.279 19.5963 198.591 19.3214 198.947 19.1148C199.304 18.9083 199.697 18.7742 200.105 18.7202C200.513 18.6661 200.928 18.6932 201.325 18.7999C201.723 18.9065 202.096 19.0907 202.422 19.3418L202.423 19.3425L202.356 19.4358L202.425 19.3425C203.084 19.8503 203.515 20.5996 203.624 21.4259C203.732 22.2521 203.51 23.0879 203.005 23.7498L190.303 40.36C190.009 40.7427 189.631 41.0524 189.199 41.265C188.767 41.4776 188.291 41.5875 187.809 41.5861L187.807 41.5899Z" fill="white"/>
</g>
<defs>
<clipPath id="clip0_1533_68166">
<rect width="334" height="300" fill="white" transform="matrix(-1 0 0 1 334 0)"/>
</clipPath>
</defs>
</svg>
