<svg width="308" height="321" viewBox="0 0 308 321" fill="none" xmlns="http://www.w3.org/2000/svg">
<g clip-path="url(#clip0_1530_6289)">
<path d="M27.0106 307.095C27.3398 307.111 27.6657 307.018 27.9441 306.828C28.2226 306.638 28.44 306.36 28.5672 306.033C28.6943 305.705 28.7249 305.343 28.6548 304.996C28.5847 304.649 28.4174 304.334 28.1754 304.092L28.0653 303.621C28.0798 303.583 28.0943 303.545 28.109 303.507C28.4406 302.663 28.9963 301.943 29.7063 301.438C30.4163 300.933 31.2488 300.666 32.0994 300.669C32.9501 300.673 33.7808 300.947 34.4872 301.457C35.1937 301.968 35.7444 302.692 36.0702 303.539C37.3723 306.919 39.0301 310.305 39.4382 313.879C39.618 315.459 39.5422 317.06 39.2141 318.612C42.2723 311.421 43.8604 303.606 43.8706 295.697C43.8713 293.712 43.769 291.728 43.5642 289.756C43.3949 288.139 43.1601 286.533 42.8597 284.939C41.2205 276.29 37.7012 268.183 32.5907 261.285C30.1172 259.83 28.1169 257.593 26.8593 254.876C26.4037 253.899 26.0816 252.856 25.9032 251.779C26.1823 251.819 26.9553 247.239 26.7449 246.958C27.1337 246.322 27.8297 246.006 28.2544 245.385C30.3664 242.299 33.2764 242.838 34.7955 247.032C38.0406 248.797 38.072 251.725 36.0808 254.54C34.814 256.332 34.6399 258.755 33.5284 260.673C33.6428 260.831 33.7617 260.984 33.876 261.142C35.9664 264.039 37.7884 267.15 39.3158 270.43C38.9443 266.755 39.3877 263.038 40.6092 259.584C41.8473 256.365 44.1679 253.654 46.2114 250.871C48.666 247.528 53.6994 248.987 54.1319 253.224C54.1361 253.265 54.1402 253.306 54.1442 253.347C53.8406 253.532 53.5435 253.728 53.2528 253.935C52.8876 254.198 52.6046 254.574 52.4409 255.013C52.2772 255.452 52.2405 255.935 52.3355 256.397C52.4305 256.859 52.6528 257.279 52.9733 257.603C53.2939 257.927 53.6976 258.139 54.1317 258.211L54.1762 258.218C54.068 259.397 53.8769 260.566 53.6044 261.714C56.226 272.641 50.5662 276.621 42.4846 276.8C42.3062 276.898 42.1324 276.997 41.954 277.091C43.4885 281.778 44.4511 286.66 44.8174 291.615C45.0248 294.538 45.0126 297.474 44.7808 300.395L44.7946 300.292C45.3801 297.043 46.9877 294.113 49.3459 291.994C52.8484 288.893 57.7967 287.751 61.5753 285.259C61.9768 284.981 62.4438 284.832 62.921 284.831C63.3982 284.83 63.8658 284.976 64.2686 285.251C64.6715 285.527 64.9927 285.921 65.1945 286.388C65.3963 286.854 65.4702 287.372 65.4075 287.882C65.4025 287.918 65.3973 287.955 65.392 287.991C64.8288 288.238 64.2803 288.523 63.7499 288.844C63.4464 289.028 63.1493 289.224 62.8586 289.431C62.4934 289.694 62.2104 290.07 62.0467 290.51C61.883 290.949 61.8463 291.431 61.9413 291.893C62.0363 292.356 62.2586 292.776 62.5791 293.1C62.8996 293.423 63.3034 293.635 63.7375 293.707L63.782 293.715C63.814 293.72 63.8414 293.725 63.8734 293.73C62.911 296.206 61.5602 298.486 59.8802 300.469C58.241 310.008 51.2005 310.913 43.6693 308.135H43.6648C42.8385 312.005 41.6412 315.772 40.0923 319.376H27.3304C27.2846 319.223 27.2435 319.065 27.2023 318.912C28.3836 318.992 29.5695 318.916 30.7336 318.686C29.7868 317.433 28.8399 316.171 27.893 314.919C27.8719 314.896 27.852 314.871 27.8335 314.845C27.3532 314.204 26.8684 313.568 26.3881 312.927L26.3879 312.927C26.3623 310.962 26.5718 309.002 27.0106 307.095Z" fill="#F2F2F2"/>
<path d="M48.2756 184.782C44.8933 171.545 38.5842 160.272 28.3976 151.6C27.9946 150.928 27.361 150.457 26.6359 150.289C25.9108 150.121 25.1534 150.269 24.5298 150.702L1.27924 166.882C0.656582 167.317 0.219215 168 0.0630951 168.781C-0.0930214 169.563 0.0448761 170.379 0.446499 171.051L20.3244 204.233C20.7275 204.904 21.361 205.376 22.0861 205.544C22.8112 205.712 23.5687 205.563 24.1922 205.131L47.4428 188.95C48.0654 188.516 48.5028 187.833 48.6589 187.051C48.815 186.27 48.6772 185.454 48.2756 184.782Z" fill="#F2F2F2"/>
<path d="M40.488 176C39.6164 169.007 34.2487 161.858 27.7086 154.668C27.3312 154.039 26.7379 153.598 26.0588 153.44C25.3797 153.283 24.6703 153.422 24.0863 153.827L4.10445 167.733C3.52129 168.14 3.11165 168.779 2.96542 169.511C2.81919 170.243 2.94827 171.008 3.3244 171.637L21.0131 201.165C21.3906 201.793 21.9839 202.235 22.663 202.392C23.3421 202.55 24.0515 202.411 24.6355 202.005L37.0139 193.391C39.6114 191.579 41.436 188.73 42.0873 185.47C42.7386 182.21 42.1634 178.804 40.488 176Z" fill="white"/>
<path d="M38.7053 204.515C41.6557 191.159 41.1637 178.005 36.1116 165.116C36.0583 164.319 35.7137 163.577 35.1534 163.053C34.5931 162.529 33.8629 162.266 33.123 162.322L5.51645 164.433C4.77666 164.491 4.08823 164.862 3.6022 165.466C3.11616 166.07 2.87223 166.857 2.92389 167.654L5.51764 207.053C5.57097 207.85 5.91558 208.592 6.47585 209.116C7.03613 209.64 7.76634 209.903 8.50625 209.847L36.1128 207.736C36.8525 207.678 37.541 207.307 38.027 206.703C38.5131 206.099 38.757 205.312 38.7053 204.515Z" fill="#F2F2F2"/>
<path d="M35.804 192.777C38.1652 186.196 36.6555 177.144 34.1365 167.448C34.0866 166.701 33.7639 166.006 33.2391 165.516C32.7144 165.025 32.0306 164.779 31.3376 164.831L7.61214 166.646C6.91928 166.699 6.27452 167.047 5.8193 167.613C5.36409 168.178 5.13561 168.915 5.18398 169.662L7.49205 204.722C7.54201 205.468 7.86479 206.163 8.38954 206.654C8.91428 207.144 9.59814 207.391 10.2911 207.338L24.9885 206.214C28.0747 205.975 30.9467 204.425 32.9743 201.906C35.0019 199.387 36.0195 196.104 35.804 192.777Z" fill="white"/>
<path d="M36.3249 122.066L48.1518 74.8849C48.6583 72.8876 49.8732 71.185 51.5341 70.1446C53.1951 69.1042 55.169 68.8094 57.0299 69.3237C57.9926 69.5898 58.8949 70.0644 59.6818 70.7186C60.4687 71.3728 61.1238 72.1929 61.6071 73.1289C62.0904 74.0648 62.3917 75.0971 62.4928 76.1627C62.5939 77.2283 62.4926 78.3049 62.195 79.327L48.5157 127.93L41.3588 157.841C42.4012 158.699 43.1732 159.882 43.5701 161.229C43.967 162.577 43.9695 164.023 43.5772 165.372C43.1849 166.721 42.4169 167.906 41.3775 168.768C40.3381 169.63 39.0776 170.127 37.7675 170.19C36.4573 170.253 35.1609 169.879 34.0543 169.121C32.9478 168.362 32.0848 167.254 31.5826 165.949C31.0805 164.643 30.9634 163.202 31.2474 161.822C31.5314 160.442 32.2026 159.19 33.17 158.235L36.3249 122.066Z" fill="#FFB6B6"/>
<path d="M121.619 130.228L109.49 83.1359C108.982 81.1391 109.222 79.007 110.159 77.1996C111.097 75.3922 112.656 74.0545 114.5 73.4751C115.454 73.1753 116.455 73.0882 117.441 73.2189C118.428 73.3496 119.379 73.6955 120.238 74.2354C121.096 74.7754 121.843 75.4981 122.434 76.3595C123.025 77.2209 123.446 78.2029 123.674 79.2457L134.881 128.579L142.863 158.246C144.166 158.412 145.389 159.006 146.368 159.947C147.346 160.888 148.032 162.131 148.332 163.507C148.632 164.883 148.532 166.326 148.045 167.638C147.558 168.951 146.708 170.07 145.611 170.844C144.513 171.617 143.221 172.008 141.91 171.963C140.6 171.918 139.333 171.439 138.284 170.591C137.235 169.743 136.453 168.568 136.045 167.224C135.637 165.881 135.622 164.435 136.003 163.082L121.619 130.228Z" fill="#FFB6B6"/>
<path d="M52.2124 311.121L59.9413 311.121L63.6177 278.991L52.2113 278.992L52.2124 311.121Z" fill="#FFB6B6"/>
<path d="M51.9403 319.811L75.7065 319.81V319.486C75.7064 316.842 74.7317 314.306 72.997 312.436C71.2622 310.567 68.9094 309.516 66.456 309.516L62.1143 305.966L54.0146 309.517L51.9399 309.517L51.9403 319.811Z" fill="#474747"/>
<path d="M106.6 311.205L114.209 309.742L112.596 277.415L101.366 279.574L106.6 311.205Z" fill="#FFB6B6"/>
<path d="M107.748 319.811L131.145 315.314L131.092 314.995C130.661 312.392 129.289 310.08 127.277 308.567C125.264 307.055 122.777 306.466 120.362 306.93L115.509 304.256L108.113 309.284L106.071 309.676L107.748 319.811Z" fill="#474747"/>
<path d="M105.847 163.393C105.847 163.393 113.05 174.389 112.756 178.079C112.463 181.769 109.919 178.825 112.463 181.769C115.006 184.713 116.488 182.738 115.239 186.375C113.989 190.011 113.48 187.656 113.989 190.011C114.498 192.366 113.48 282.443 113.48 282.443H100.235C100.235 282.443 92.7655 230.212 93.7111 227.774C94.6567 225.335 94.635 226.397 93.6283 223.806C92.6217 221.214 91.6744 218.132 91.6744 218.132L81.2051 186.375L73.1293 231.088L63.6232 284.22H50.9304C50.9304 284.22 48.7569 206.088 47.7959 205.115C46.8349 204.141 47.9846 201.953 49.1904 200.692C50.3961 199.431 50.1558 198.151 49.7672 195.553C49.3786 192.955 47.7394 191.506 47.7959 189.876C47.8524 188.245 44.2912 162.341 49.8874 158.22C55.4836 154.099 105.847 163.393 105.847 163.393Z" fill="#474747"/>
<path d="M61.5601 53.8648L76.3759 49.7269L83.2918 39.446L99.7162 41.6222L103.212 55.6454L114.905 62.9608C93.9448 63.0958 105.233 128.545 102.152 132.768C99.6447 136.204 114.665 144.379 109.958 149.594C105.25 154.809 106.991 152.722 108.083 158.4C109.175 164.077 117.138 170.086 108.083 170.026C99.0278 169.966 44.3874 169.125 45.9485 162.394C47.5096 155.664 47.4851 157.373 49.8391 153.153C52.1931 148.933 53.7774 151.292 52.9852 145.065C52.1931 138.838 54.766 134.021 52.9736 131.266C50.2226 127.036 52.995 96.505 55.5891 97.32L61.5601 53.8648Z" fill="#9FC1D9"/>
<path d="M65.79 54.083C65.79 54.083 54.9524 49.1206 51.0495 58.375C49.8029 61.3308 48.7533 68.7552 47.7419 67.1088C46.7306 65.4624 47.7064 69.0717 47.0803 69.0762C46.5215 69.0802 45.6624 68.106 46.3117 71.4621C46.5152 72.563 46.4566 73.7015 46.1415 74.7714C45.8264 75.8413 45.2651 76.8078 44.5099 77.5808L63.3462 89.7398L65.79 54.083Z" fill="#9FC1D9"/>
<path d="M106.51 62.4961C106.51 62.4961 117.347 57.5336 121.25 66.7881C122.348 69.3908 122.075 75.174 124.212 74.5248C126.35 73.8755 124.832 76.3218 125.114 77.1716C125.429 78.1189 124.057 80.7994 125.984 79.8614C127.911 78.9234 127.79 85.9939 127.79 85.9939L108.954 98.1529L106.51 62.4961Z" fill="#9FC1D9"/>
<path d="M101.371 48.636L104.493 54.5252C104.493 54.5252 113.08 59.5731 113.08 60.4144C113.08 61.2557 111.518 68.1253 113.08 73.5243C114.641 78.9233 110.1 89.0768 109.177 97.4322C105.274 132.767 116.88 145.606 119.324 168.103L94.5547 175.9C94.5547 175.9 90.4428 116.782 90.4428 103.321C90.4428 89.8604 101.371 48.636 101.371 48.636Z" fill="#474747"/>
<path d="M78.7346 46.1121L72.3536 50.0238C72.3536 50.0238 64.0033 52.0082 63.9035 52.8426C63.8038 53.677 63.7742 62.5454 61.586 67.6852C59.3977 72.825 60.0007 75.5581 54.1075 90.7525C51.0964 98.5159 44.1838 160.629 44.1838 160.629L67.8264 171.772C67.8264 171.772 78.9107 113.705 80.506 100.355C82.1013 87.0039 78.7346 46.1121 78.7346 46.1121Z" fill="#474747"/>
<path d="M94.6895 38.091C85.7756 38.091 78.5494 30.3025 78.5494 20.695C78.5494 11.0875 85.7756 3.29907 94.6895 3.29907C103.603 3.29907 110.83 11.0875 110.83 20.695C110.83 30.3025 103.603 38.091 94.6895 38.091Z" fill="#FFB6B6"/>
<path d="M84.0676 34.211C87.8829 30.9967 82.6675 16.857 88.9679 19.8751C88.9679 19.8751 96.6685 14.5935 98.2156 18.0643C100.007 22.0831 106.378 20.2599 110.291 18.8414C109.984 18.0709 109.765 17.2625 109.64 16.4345C110.363 17.048 111.128 17.6004 111.929 18.0869C112.467 17.7774 112.943 17.3569 113.33 16.8495C113.711 16.3783 113.95 15.7924 114.014 15.1707C114.078 14.5489 113.964 13.9209 113.687 13.3712C113.036 12.2922 111.691 11.9602 110.9 11.002C110.809 10.8672 110.749 10.7106 110.726 10.5455C110.704 10.3804 110.718 10.2118 110.769 10.0541C110.863 9.66859 110.878 9.26538 110.811 8.87324C110.744 8.4811 110.598 8.10966 110.382 7.7854C110.167 7.46114 109.888 7.19204 109.565 6.99726C109.243 6.80248 108.884 6.68681 108.515 6.65851C108.367 6.6634 108.219 6.62883 108.086 6.55786C107.422 6.11976 106.809 5.59798 106.259 5.00355C107.176 5.04882 106.055 -1.00151 96.9625 0.144445C94.6734 0.0539111 93.4779 2.77499 91.2238 3.20507C85.7597 -0.16019 80.8824 4.69422 78.5092 9.33447C76.1361 13.9748 73.5669 28.9293 84.0676 34.211Z" fill="#474747"/>
<path d="M152.936 9.25513H297.615C300.368 9.2576 303.007 10.4368 304.954 12.5339C306.901 14.6311 307.996 17.4749 308 20.4415V160.954C307.996 163.921 306.901 166.765 304.954 168.864C303.008 170.962 300.369 172.142 297.615 172.146H152.936C150.183 172.142 147.545 170.961 145.599 168.863C143.653 166.765 142.559 163.92 142.557 160.954V20.4415C142.559 17.4756 143.654 14.6318 145.6 12.5345C147.545 10.4373 150.184 9.25784 152.936 9.25513Z" fill="white"/>
<path d="M219.042 41.5048H234.499C235.258 41.5048 235.986 41.1798 236.522 40.6012C237.059 40.0227 237.361 39.238 237.361 38.4198C237.361 37.6016 237.059 36.8169 236.522 36.2383C235.986 35.6597 235.258 35.3347 234.499 35.3347H219.042C218.283 35.3347 217.555 35.6597 217.018 36.2383C216.481 36.8169 216.18 37.6016 216.18 38.4198C216.18 39.238 216.481 40.0227 217.018 40.6012C217.555 41.1798 218.283 41.5048 219.042 41.5048Z" fill="#9FC1D9"/>
<path d="M14.0985 183.252H29.5551C30.3143 183.252 31.0423 182.927 31.5791 182.349C32.1159 181.77 32.4175 180.986 32.4175 180.167C32.4175 179.349 32.1159 178.564 31.5791 177.986C31.0423 177.407 30.3143 177.082 29.5551 177.082H14.0985C13.3394 177.082 12.6113 177.407 12.0745 177.986C11.5377 178.564 11.2362 179.349 11.2362 180.167C11.2362 180.986 11.5377 181.77 12.0745 182.349C12.6113 182.927 13.3394 183.252 14.0985 183.252Z" fill="#9FC1D9"/>
<path d="M178.969 106.126H274.571C275.33 106.126 276.058 105.801 276.595 105.222C277.132 104.644 277.434 103.859 277.434 103.041C277.434 102.223 277.132 101.438 276.595 100.859C276.058 100.281 275.33 99.9558 274.571 99.9558H178.969C178.21 99.9558 177.482 100.281 176.945 100.859C176.408 101.438 176.107 102.223 176.107 103.041C176.107 103.859 176.408 104.644 176.945 105.222C177.482 105.801 178.21 106.126 178.969 106.126Z" fill="#E6E6E6"/>
<path d="M178.969 126.487H274.571C275.33 126.487 276.058 126.162 276.595 125.584C277.132 125.005 277.434 124.22 277.434 123.402C277.434 122.584 277.132 121.799 276.595 121.221C276.058 120.642 275.33 120.317 274.571 120.317H178.969C178.21 120.317 177.482 120.642 176.945 121.221C176.408 121.799 176.107 122.584 176.107 123.402C176.107 124.22 176.408 125.005 176.945 125.584C177.482 126.162 178.21 126.487 178.969 126.487Z" fill="#E6E6E6"/>
<path d="M178.969 146.849H274.571C275.33 146.849 276.058 146.524 276.595 145.945C277.132 145.367 277.434 144.582 277.434 143.764C277.434 142.946 277.132 142.161 276.595 141.582C276.058 141.004 275.33 140.679 274.571 140.679H178.969C178.21 140.679 177.482 141.004 176.945 141.582C176.408 142.161 176.107 142.946 176.107 143.764C176.107 144.582 176.408 145.367 176.945 145.945C177.482 146.524 178.21 146.849 178.969 146.849Z" fill="#E6E6E6"/>
<path d="M198.51 50.7615H255.03C257.782 50.7639 260.421 51.9431 262.368 54.0403C264.315 56.1374 265.41 58.9813 265.414 61.9479V80.2916C265.41 83.2589 264.315 86.1035 262.369 88.2017C260.422 90.2999 257.783 91.4804 255.03 91.4842H198.51C195.757 91.4801 193.119 90.2994 191.173 88.2011C189.227 86.1028 188.133 83.2583 188.131 80.2916V61.9479C188.133 58.9819 189.228 56.1382 191.174 54.0409C193.119 51.9436 195.758 50.7642 198.51 50.7615ZM189.276 80.2916C189.276 82.9328 190.249 85.4658 191.982 87.3334C193.715 89.201 196.065 90.2502 198.516 90.2502H239.088C245.766 90.2502 252.171 87.3908 256.894 82.3009C261.616 77.211 264.269 70.3077 264.269 63.1096V61.9479C264.265 59.3086 263.29 56.7787 261.558 54.913C259.826 53.0472 257.478 51.9981 255.03 51.9955H198.51C196.062 51.9983 193.714 53.0478 191.983 54.9136C190.252 56.7794 189.279 59.3092 189.276 61.9479V80.2916Z" fill="#E6E6E6"/>
<path d="M226.137 77.7435C220.762 77.7435 216.405 73.0473 216.405 67.2543C216.405 61.4613 220.762 56.7651 226.137 56.7651C231.512 56.7651 235.869 61.4613 235.869 67.2543C235.869 73.0473 231.512 77.7435 226.137 77.7435Z" fill="#FFF3E6"/>
<path d="M203.748 91.4843L247.318 91.3177L233.579 87.6157L231.867 81.5258L218.695 81.4456L214.751 87.4676L204.79 90.2503L203.885 90.5033L203.748 91.4843Z" fill="#FFF3E6"/>
<path d="M231.668 73.9513C229.58 72.1919 232.435 64.4522 228.986 66.1043C228.986 66.1043 224.771 63.2132 223.924 65.113C222.943 67.3129 219.456 66.3149 217.314 65.5384C217.482 65.1167 217.602 64.6742 217.67 64.2209C217.275 64.5567 216.856 64.8591 216.417 65.1254C216.123 64.956 215.863 64.7258 215.651 64.4481C215.442 64.1902 215.311 63.8695 215.276 63.5291C215.241 63.1888 215.304 62.8451 215.455 62.5441C215.812 61.9535 216.547 61.7718 216.98 61.2473C217.031 61.1735 217.063 61.0878 217.076 60.9974C217.088 60.9071 217.08 60.8148 217.052 60.7285C217.001 60.5174 216.993 60.2967 217.03 60.0821C217.066 59.8674 217.146 59.6641 217.264 59.4866C217.382 59.3091 217.535 59.1618 217.711 59.0552C217.888 58.9486 218.084 58.8853 218.286 58.8698C218.367 58.8725 218.448 58.8535 218.521 58.8147C218.884 58.5749 219.22 58.2893 219.521 57.9639C219.019 57.9887 219.633 54.6769 224.61 55.3042C225.863 55.2546 226.517 56.744 227.751 56.9795C230.742 55.1374 233.412 57.7946 234.711 60.3346C236.01 62.8745 237.416 71.0603 231.668 73.9513Z" fill="#FFF3E6"/>
<path d="M152.936 9.25513H297.615C300.368 9.2576 303.007 10.4368 304.954 12.5339C306.901 14.6311 307.996 17.4749 308 20.4415V160.954C307.996 163.921 306.901 166.765 304.954 168.864C303.008 170.962 300.369 172.142 297.615 172.146H152.936C150.183 172.142 147.545 170.961 145.599 168.863C143.653 166.765 142.559 163.92 142.557 160.954V20.4415C142.559 17.4756 143.654 14.6318 145.6 12.5345C147.545 10.4373 150.184 9.25784 152.936 9.25513ZM143.702 160.954C143.702 163.595 144.675 166.128 146.408 167.995C148.141 169.863 150.491 170.912 152.941 170.912H232.319C242.108 170.912 251.8 168.834 260.843 164.797C269.886 160.76 278.103 154.842 285.024 147.382C291.945 139.923 297.436 131.066 301.181 121.32C304.927 111.573 306.855 101.127 306.855 90.5767V20.4415C306.851 17.8022 305.876 15.2723 304.144 13.4066C302.412 11.5409 300.064 10.4917 297.615 10.4891H152.936C150.488 10.492 148.14 11.5414 146.409 13.4072C144.678 15.2731 143.704 17.8029 143.702 20.4415V160.954Z" fill="#9FC1D9"/>
<path d="M1.78302 320.81L182.315 321C182.495 320.999 182.668 320.921 182.795 320.783C182.922 320.646 182.993 320.46 182.993 320.265C182.993 320.071 182.922 319.885 182.795 319.747C182.668 319.609 182.495 319.532 182.315 319.531L1.78302 319.341C1.60283 319.342 1.43034 319.42 1.30325 319.558C1.17616 319.695 1.10483 319.882 1.10483 320.076C1.10483 320.27 1.17616 320.456 1.30325 320.594C1.43034 320.732 1.60283 320.809 1.78302 320.81Z" fill="#CACACA"/>
</g>
<defs>
<clipPath id="clip0_1530_6289">
<rect width="308" height="321" fill="white" transform="matrix(-1 0 0 1 308 0)"/>
</clipPath>
</defs>
</svg>
