<svg width="262" height="256" viewBox="0 0 262 256" fill="none" xmlns="http://www.w3.org/2000/svg">
<g clip-path="url(#clip0_1520_6209)">
<path d="M166.327 57.5734H95.7298C94.121 57.5754 92.5787 58.216 91.4411 59.3547C90.3035 60.4935 89.6635 62.0373 89.6616 63.6477V220.708L88.8525 220.955L71.5338 226.264C70.713 226.515 69.8264 226.429 69.0688 226.026C68.3111 225.623 67.7441 224.935 67.4924 224.114L15.9772 55.6742C15.7265 54.8526 15.8119 53.965 16.2147 53.2064C16.6175 52.4478 17.3047 51.8804 18.1253 51.6288L44.8134 43.4487L122.183 19.7428L148.871 11.5628C149.277 11.4377 149.704 11.394 150.127 11.4341C150.55 11.4743 150.961 11.5976 151.337 11.797C151.712 11.9963 152.044 12.2678 152.315 12.5959C152.585 12.924 152.788 13.3023 152.913 13.7091L166.081 56.7635L166.327 57.5734Z" fill="white"/>
<path d="M181.733 56.7638L165.863 4.87324C165.599 4.00865 165.167 3.20461 164.592 2.50707C164.018 1.80953 163.312 1.23217 162.514 0.807962C161.716 0.383758 160.843 0.121027 159.944 0.0347929C159.045 -0.0514411 158.138 0.0405115 157.274 0.305387L119.752 11.802L42.3867 35.5119L4.86488 47.0125C3.12181 47.5483 1.66232 48.7545 0.806755 50.3663C-0.0488081 51.9781 -0.230542 53.8639 0.301452 55.6097L54.5433 232.95C54.9755 234.359 55.8475 235.593 57.0314 236.47C58.2152 237.347 59.6487 237.82 61.1214 237.822C61.8029 237.822 62.4807 237.72 63.1318 237.518L88.853 229.638L89.6621 229.387V228.54L88.853 228.787L62.8932 236.745C61.3547 237.214 59.6929 237.054 58.2724 236.298C56.8519 235.543 55.7887 234.254 55.316 232.715L1.07835 55.3708C0.844153 54.6082 0.76253 53.8069 0.83815 53.0127C0.91377 52.2185 1.14514 51.4471 1.51903 50.7425C1.89293 50.038 2.40199 49.4142 3.01707 48.9069C3.63214 48.3995 4.34114 48.0187 5.10349 47.786L42.6253 36.2854L119.991 12.5795L157.513 1.07885C158.091 0.902212 158.692 0.812147 159.297 0.811583C160.594 0.814499 161.857 1.2332 162.899 2.00636C163.942 2.77952 164.71 3.86651 165.09 5.10812L180.888 56.7638L181.139 57.5737H181.98L181.733 56.7638Z" fill="#474747"/>
<path d="M49.6294 51.7614C48.8497 51.7608 48.0907 51.5102 47.4637 51.0462C46.8367 50.5821 46.3748 49.9292 46.1457 49.1832L40.935 32.1461C40.795 31.6885 40.7464 31.2077 40.792 30.7313C40.8376 30.2548 40.9766 29.792 41.2009 29.3694C41.4252 28.9467 41.7305 28.5724 42.0994 28.2678C42.4682 27.9633 42.8934 27.7344 43.3506 27.5944L114.526 5.78214C115.45 5.5001 116.447 5.59629 117.3 6.04959C118.152 6.50289 118.79 7.27627 119.074 8.19998L124.285 25.2372C124.566 26.1615 124.47 27.1598 124.017 28.0132C123.564 28.8665 122.792 29.5052 121.869 29.7892L50.6931 51.6014C50.3485 51.7073 49.99 51.7612 49.6294 51.7614Z" fill="#FF8600"/>
<path d="M76.9269 18.2044C81.3954 18.2044 85.0179 14.5784 85.0179 10.1054C85.0179 5.63241 81.3954 2.00635 76.9269 2.00635C72.4584 2.00635 68.8359 5.63241 68.8359 10.1054C68.8359 14.5784 72.4584 18.2044 76.9269 18.2044Z" fill="#FF8600"/>
<path d="M76.9262 15.2339C79.7558 15.2339 82.0496 12.9378 82.0496 10.1054C82.0496 7.27294 79.7558 4.97681 76.9262 4.97681C74.0966 4.97681 71.8027 7.27294 71.8027 10.1054C71.8027 12.9378 74.0966 15.2339 76.9262 15.2339Z" fill="white"/>
<path d="M243.795 235.752H107.058C106.146 235.751 105.272 235.388 104.627 234.743C103.983 234.098 103.62 233.223 103.619 232.31V68.3049C103.62 67.3923 103.983 66.5174 104.627 65.8721C105.272 65.2268 106.146 64.8638 107.058 64.8628H243.795C244.707 64.8638 245.581 65.2268 246.225 65.8721C246.87 66.5174 247.233 67.3923 247.234 68.3049V232.31C247.233 233.223 246.87 234.098 246.225 234.743C245.581 235.388 244.707 235.751 243.795 235.752Z" fill="white"/>
<path d="M180.888 56.7637H95.7308C93.9076 56.7663 92.1599 57.4924 90.8707 58.7829C89.5815 60.0733 88.8561 61.8228 88.8535 63.6479V228.787L89.6626 228.54V63.6479C89.6646 62.0375 90.3045 60.4936 91.4421 59.3549C92.5797 58.2161 94.122 57.5755 95.7308 57.5736H181.139L180.888 56.7637ZM255.123 56.7637H95.7308C93.9076 56.7663 92.1599 57.4924 90.8707 58.7829C89.5815 60.0733 88.8561 61.8228 88.8535 63.6479V249.116C88.8561 250.941 89.5815 252.69 90.8707 253.981C92.1599 255.271 93.9076 255.997 95.7308 256H255.123C256.946 255.997 258.694 255.271 259.983 253.981C261.272 252.69 261.998 250.941 262 249.116V63.6479C261.998 61.8228 261.272 60.0733 259.983 58.7829C258.694 57.4924 256.946 56.7663 255.123 56.7637ZM261.191 249.116C261.189 250.726 260.549 252.27 259.412 253.409C258.274 254.548 256.732 255.188 255.123 255.19H95.7308C94.122 255.188 92.5797 254.548 91.4421 253.409C90.3045 252.27 89.6646 250.726 89.6626 249.116V63.6479C89.6646 62.0375 90.3045 60.4936 91.4421 59.3549C92.5797 58.2161 94.122 57.5755 95.7308 57.5736H255.123C256.732 57.5755 258.274 58.2161 259.412 59.3549C260.549 60.4936 261.189 62.0375 261.191 63.6479V249.116Z" fill="#474747"/>
<path d="M212.646 74.5816H138.209C137.244 74.5805 136.319 74.1962 135.636 73.513C134.953 72.8297 134.569 71.9033 134.568 70.9371V53.1192C134.569 52.1529 134.953 51.2265 135.636 50.5433C136.319 49.86 137.244 49.4757 138.209 49.4746H212.646C213.611 49.4757 214.537 49.86 215.219 50.5433C215.902 51.2265 216.286 52.1529 216.287 53.1192V70.9371C216.286 71.9033 215.902 72.8297 215.219 73.513C214.537 74.1962 213.611 74.5805 212.646 74.5816Z" fill="#FF8600"/>
<path d="M175.427 50.6893C179.895 50.6893 183.518 47.0632 183.518 42.5903C183.518 38.1173 179.895 34.4912 175.427 34.4912C170.958 34.4912 167.336 38.1173 167.336 42.5903C167.336 47.0632 170.958 50.6893 175.427 50.6893Z" fill="#FF8600"/>
<path d="M175.428 47.5234C178.15 47.5234 180.356 45.3148 180.356 42.5903C180.356 39.8658 178.15 37.6572 175.428 37.6572C172.706 37.6572 170.5 39.8658 170.5 42.5903C170.5 45.3148 172.706 47.5234 175.428 47.5234Z" fill="white"/>
<path d="M161.994 155.913C164.521 125.474 141.818 98.7562 111.284 96.2371C80.751 93.7179 53.9502 116.351 51.4232 146.79C48.8962 177.229 71.5998 203.947 102.133 206.466C132.667 208.985 159.467 186.352 161.994 155.913Z" fill="#E75119"/>
<path d="M121.441 128.054L106.708 142.743L91.9744 128.054C89.5894 125.676 85.7225 125.676 83.3376 128.054C80.9526 130.432 80.9526 134.287 83.3376 136.665L98.0709 151.354L83.3376 166.043C80.9548 168.423 80.9584 172.278 83.3457 174.654C85.7297 177.026 89.5904 177.026 91.9744 174.654L106.708 159.965L121.441 174.654C123.828 177.029 127.695 177.026 130.078 174.646C132.458 172.269 132.458 168.42 130.078 166.043L115.345 151.354L130.078 136.665C132.463 134.287 132.463 130.432 130.078 128.054C127.693 125.676 123.826 125.676 121.441 128.054Z" fill="white"/>
</g>
<defs>
<clipPath id="clip0_1520_6209">
<rect width="262" height="256" fill="white"/>
</clipPath>
</defs>
</svg>
