<svg width="32" height="32" viewBox="0 0 32 32" fill="none" xmlns="http://www.w3.org/2000/svg">
<rect width="32" height="32" rx="5" fill="#FF8600"/>
<path d="M24.557 9.59453L22.0609 7.10078C21.7562 6.79609 21.3484 6.625 20.9172 6.625C20.4859 6.625 20.0781 6.79375 19.7734 7.10078L17.0852 9.78437C16.7805 10.0891 16.6094 10.4992 16.6094 10.9305C16.6094 11.3641 16.7781 11.7695 17.0852 12.0766L19.1852 14.1789C18.7068 15.2936 18.0194 16.3063 17.1602 17.1625C16.3 18.0273 15.2945 18.7094 14.1789 19.1922L12.0789 17.0898C11.7742 16.7852 11.3664 16.6141 10.9352 16.6141C10.7224 16.6133 10.5117 16.655 10.3153 16.7366C10.1189 16.8183 9.9408 16.9384 9.79141 17.0898L7.10078 19.7734C6.79609 20.0781 6.625 20.4883 6.625 20.9195C6.625 21.3531 6.79375 21.7586 7.10078 22.0656L9.59453 24.5594C10.1148 25.0797 10.832 25.3773 11.568 25.3773C11.7203 25.3773 11.868 25.3656 12.018 25.3398C15.1211 24.8289 18.2008 23.1766 20.6875 20.6922C23.1719 18.2031 24.8219 15.1234 25.3375 12.018C25.4852 11.1367 25.1898 10.2297 24.557 9.59453ZM23.6758 11.7391C23.2188 14.5023 21.7328 17.2586 19.4945 19.4969C17.2562 21.7352 14.5023 23.2211 11.7391 23.6781C11.3922 23.7367 11.0359 23.6195 10.7828 23.3687L8.33359 20.9195L10.9305 18.3203L13.7383 21.1328L13.7594 21.1539L14.2656 20.9664C15.8006 20.402 17.1945 19.5107 18.3508 18.354C19.507 17.1974 20.3979 15.8032 20.9617 14.268L21.1492 13.7617L18.318 10.9328L20.9148 8.33359L23.3641 10.7828C23.6172 11.0359 23.7344 11.3922 23.6758 11.7391Z" fill="white"/>
</svg>
