<svg width="32" height="32" viewBox="0 0 32 32" fill="none" xmlns="http://www.w3.org/2000/svg">
<rect width="32" height="32" rx="5" fill="#FF8600"/>
<path d="M22.8941 21.394L17.5916 26.698C17.3827 26.9071 17.1346 27.073 16.8615 27.1861C16.5884 27.2993 16.2957 27.3575 16.0001 27.3575C15.7045 27.3575 15.4118 27.2993 15.1387 27.1861C14.8657 27.073 14.6176 26.9071 14.4086 26.698L9.10612 21.394C8.20069 20.4887 7.48244 19.4139 6.99239 18.231C6.50233 17.048 6.25007 15.7802 6.25 14.4998C6.24993 13.2194 6.50206 11.9515 6.99198 10.7685C7.48191 9.58558 8.20004 8.5107 9.10537 7.60526C10.0107 6.69983 11.0855 5.98159 12.2684 5.49153C13.4513 5.00148 14.7192 4.74922 15.9996 4.74915C17.28 4.74908 18.5479 5.0012 19.7308 5.49113C20.9138 5.98105 21.9887 6.69918 22.8941 7.60451C23.7996 8.5099 24.5179 9.58479 25.008 10.7678C25.4981 11.9508 25.7503 13.2188 25.7503 14.4993C25.7503 15.7798 25.4981 17.0477 25.008 18.2307C24.5179 19.4137 23.7996 20.4886 22.8941 21.394ZM21.3041 9.19601C19.8974 7.78931 17.9895 6.99753 16.0001 6.99753C14.0107 6.99753 12.1028 7.78781 10.6961 9.19451C9.28941 10.6012 8.49913 12.5091 8.49913 14.4985C8.49913 16.4879 9.28941 18.3958 10.6961 19.8025L16.0001 25.105L21.3041 19.804C22.0008 19.1075 22.5534 18.2807 22.9304 17.3706C23.3075 16.4605 23.5015 15.4851 23.5015 14.5C23.5015 13.5149 23.3075 12.5395 22.9304 11.6294C22.5534 10.7194 22.0008 9.89248 21.3041 9.19601ZM16.0001 17.5C15.6006 17.509 15.2033 17.4382 14.8316 17.2916C14.4598 17.1449 14.1211 16.9255 13.8354 16.6462C13.5496 16.3669 13.3225 16.0333 13.1674 15.665C13.0123 15.2967 12.9324 14.9011 12.9323 14.5015C12.9322 14.1019 13.0119 13.7063 13.1668 13.3379C13.3217 12.9696 13.5486 12.6359 13.8343 12.3564C14.1199 12.0769 14.4585 11.8574 14.8302 11.7106C15.2019 11.5638 15.5991 11.4927 15.9986 11.5015C16.7825 11.5188 17.5284 11.8424 18.0767 12.4028C18.625 12.9632 18.9321 13.716 18.9323 14.5C18.9325 15.2841 18.6257 16.037 18.0777 16.5977C17.5297 17.1584 16.784 17.4823 16.0001 17.5Z" fill="white"/>
</svg>
