<svg width="32" height="32" viewBox="0 0 32 32" fill="none" xmlns="http://www.w3.org/2000/svg">
<rect width="32" height="32" rx="5" fill="#FF8600"/>
<path d="M23 8H9C8.20435 8 7.44129 8.31607 6.87868 8.87868C6.31607 9.44129 6 10.2044 6 11V21C6 21.7956 6.31607 22.5587 6.87868 23.1213C7.44129 23.6839 8.20435 24 9 24H23C23.7956 24 24.5587 23.6839 25.1213 23.1213C25.6839 22.5587 26 21.7956 26 21V11C26 10.2044 25.6839 9.44129 25.1213 8.87868C24.5587 8.31607 23.7956 8 23 8ZM22.33 10L16 14.75L9.67 10H22.33ZM23 22H9C8.73478 22 8.48043 21.8946 8.29289 21.7071C8.10536 21.5196 8 21.2652 8 21V11.25L15.4 16.8C15.5731 16.9298 15.7836 17 16 17C16.2164 17 16.4269 16.9298 16.6 16.8L24 11.25V21C24 21.2652 23.8946 21.5196 23.7071 21.7071C23.5196 21.8946 23.2652 22 23 22Z" fill="white"/>
</svg>
