<svg width="83" height="96" viewBox="0 0 83 96" fill="none" xmlns="http://www.w3.org/2000/svg">
<path d="M36.7115 86.4C35.8305 86.4128 35.1026 87.1168 35.1154 88V89.6C35.1154 93.12 37.9885 96 41.5 96C45.0115 96 47.8846 93.12 47.8846 89.6V88C47.8846 86.9344 47.0865 86.4 46.2885 86.4C45.4904 86.4 44.6923 86.9184 44.6923 88V89.6C44.6923 91.4016 43.2973 92.8 41.5 92.8C39.7027 92.8 38.3077 91.4016 38.3077 89.6V88C38.3205 87.0976 37.6118 86.3872 36.7115 86.4ZM41.5 0C36.2327 0 31.9231 4.32 31.9231 9.6V11.2C31.9231 13.28 35.1154 13.312 35.1154 11.2V9.6C35.1154 6.048 37.9565 3.2 41.5 3.2C45.0435 3.2 47.8846 6.048 47.8846 9.6V11.2C47.8846 13.2928 51.0769 13.312 51.0769 11.2V9.6C51.0769 4.32 46.7673 0 41.5 0ZM65.4423 9.6C75.1278 9.6 83 17.4976 83 27.2C83 29.328 79.8077 29.328 79.8077 27.2C79.8077 19.232 73.4039 12.8 65.4423 12.8C63.313 12.8 63.3258 9.6 65.4423 9.6ZM17.5577 9.6C7.87861 9.6 0 17.4976 0 27.2C0 29.328 3.19231 29.328 3.19231 27.2C3.19231 19.232 9.60884 12.8 17.5577 12.8C19.6902 12.8 19.6806 9.6 17.5577 9.6ZM41.5 16C27.7092 16 20.1498 21.792 16.4787 29.1264C12.8075 36.4608 12.7692 45.1072 12.7692 51.2C12.7692 57.6 12.7692 69.8144 3.57538 80.5568C3.37606 80.7892 3.24749 81.074 3.20497 81.3775C3.16246 81.681 3.20778 81.9903 3.33555 82.2687C3.46333 82.5471 3.66817 82.7829 3.92574 82.948C4.1833 83.1131 4.48274 83.2006 4.78846 83.2H78.2115C78.5173 83.2006 78.8167 83.1131 79.0743 82.948C79.3318 82.7829 79.5367 82.5471 79.6644 82.2687C79.7922 81.9903 79.8375 81.681 79.795 81.3775C79.7525 81.074 79.6239 80.7892 79.4246 80.5568C70.2308 69.8144 70.2308 57.6 70.2308 51.2C70.2308 45.1072 70.1893 36.4608 66.5213 29.1264C62.8502 21.792 55.2908 16 41.5 16ZM41.5 19.2C54.4416 19.2 60.4527 24.1376 63.6642 30.56C66.8789 36.992 67.0385 45.1456 67.0385 51.2C67.0385 57.1264 67.38 69.0144 75.2938 80H7.70623C15.6232 69.0144 15.9615 57.1264 15.9615 51.2C15.9615 45.1424 16.1212 36.992 19.3358 30.56C22.5473 24.1408 28.5616 19.2 41.5 19.2Z" fill="#FF8600"/>
</svg>
