<svg width="24" height="25" viewBox="0 0 24 25" fill="none" xmlns="http://www.w3.org/2000/svg">
<path d="M12 23.0806C6.21 23.0806 1.5 18.3706 1.5 12.5806C1.5 6.79057 6.21 2.08057 12 2.08057C17.79 2.08057 22.5 6.79057 22.5 12.5806C22.5 18.3706 17.79 23.0806 12 23.0806ZM12 3.58057C7.035 3.58057 3 7.61557 3 12.5806C3 17.5456 7.035 21.5806 12 21.5806C16.965 21.5806 21 17.5456 21 12.5806C21 7.61557 16.965 3.58057 12 3.58057Z" fill="white"/>
<path d="M12 17.8306C11.58 17.8306 11.25 17.5006 11.25 17.0806V8.08057C11.25 7.66057 11.58 7.33057 12 7.33057C12.42 7.33057 12.75 7.66057 12.75 8.08057V17.0806C12.75 17.5006 12.42 17.8306 12 17.8306Z" fill="white"/>
<path d="M16.5 13.3306H7.5C7.08 13.3306 6.75 13.0006 6.75 12.5806C6.75 12.1606 7.08 11.8306 7.5 11.8306H16.5C16.92 11.8306 17.25 12.1606 17.25 12.5806C17.25 13.0006 16.92 13.3306 16.5 13.3306Z" fill="white"/>
</svg>
