<svg width="48" height="48" viewBox="0 0 48 48" fill="none" xmlns="http://www.w3.org/2000/svg">
<g clip-path="url(#clip0_1161_63471)">
<path d="M24.2069 -6.10226e-06C24.9929 -6.10226e-06 25.7669 0.0509939 26.4869 0.170994C27.1961 0.263912 27.8957 0.418497 28.5779 0.632994C29.2619 0.839994 29.9309 1.09799 30.5999 1.42199C31.2509 1.73099 31.9199 2.10899 32.5889 2.51999C33.7199 3.23999 34.8329 3.82199 35.9669 4.28699C38.1994 5.18049 40.56 5.71217 42.9599 5.86199C44.1779 5.94899 45.4289 5.99999 46.7309 5.99999V18C46.7309 20.28 46.4399 22.44 45.8579 24.498C45.2989 26.5266 44.5045 28.4829 43.4909 30.327C42.4817 32.1685 41.2875 33.9024 39.9269 35.502C38.5455 37.1379 37.0498 38.6738 35.4509 40.098C33.831 41.5264 32.1248 42.8539 30.3419 44.073C28.5599 45.309 26.7599 46.458 24.9599 47.502L24.2399 47.931L23.5199 47.502C21.6695 46.4307 19.8621 45.2868 18.1019 44.073C16.3091 42.8677 14.602 41.5395 12.9929 40.098C11.3951 38.6737 9.90036 37.1379 8.51995 35.502C7.16303 33.8956 5.96352 32.1627 4.93795 30.327C3.94174 28.4747 3.14815 26.5204 2.57095 24.498C1.98525 22.3822 1.69649 20.1953 1.71295 18V5.99999C3.01795 5.99999 4.26895 5.94899 5.48695 5.86199C6.68593 5.77872 7.87715 5.60725 9.05095 5.34899C10.1999 5.09099 11.3489 4.74899 12.4799 4.28699C13.6536 3.81334 14.7788 3.22763 15.8399 2.53799C17.1599 1.67999 18.4979 1.04699 19.8179 0.629994C21.2395 0.194189 22.7202 -0.0183406 24.2069 -6.10226e-06ZM43.7129 8.94899C41.442 8.83881 39.1923 8.45914 37.0109 7.81799C34.8412 7.17076 32.7745 6.21822 30.8729 4.98899C29.8866 4.34158 28.8155 3.83377 27.6899 3.47999C26.5656 3.1402 25.3964 2.9723 24.2219 2.98199C23.0387 2.97434 21.8609 3.14217 20.7269 3.47999C19.5998 3.82227 18.53 4.33087 17.5529 4.98899C15.6481 6.22492 13.5761 7.18164 11.3999 7.82999C9.27295 8.44799 7.04695 8.82599 4.71295 8.96399V18.015C4.71295 20.004 4.97095 21.906 5.48695 23.739C6.01262 25.5561 6.737 27.3097 7.64695 28.968C8.56779 30.6436 9.65314 32.2234 10.8869 33.684C12.1379 35.157 13.4729 36.528 14.9129 37.83C16.3529 39.135 17.8619 40.335 19.4399 41.448C21.0329 42.564 22.6289 43.575 24.2219 44.499C25.8531 43.5494 27.4435 42.5315 28.9889 41.448C30.5774 40.3385 32.0944 39.1301 33.5309 37.83C34.9709 36.528 36.3089 35.157 37.5599 33.684C38.7939 32.2235 39.8792 30.6437 40.7999 28.968C41.7059 27.3117 42.4195 25.5573 42.9269 23.739C43.4586 21.8778 43.7233 19.9506 43.7129 18.015V8.94899Z" fill="#FF8600"/>
<path fill-rule="evenodd" clip-rule="evenodd" d="M35.391 14.127L34.071 12.993L32.853 13.098L19.773 28.542L15.318 22.182L14.118 21.978L12.729 22.971L12.522 24.171L18.249 32.349L18.9 32.709L20.271 32.793L20.973 32.487L35.478 15.342L35.391 14.127Z" fill="#0095FF"/>
</g>
<defs>
<clipPath id="clip0_1161_63471">
<rect width="48" height="48" fill="white"/>
</clipPath>
</defs>
</svg>
