<svg width="93" height="93" viewBox="0 0 93 93" fill="none" xmlns="http://www.w3.org/2000/svg">
<path d="M84.2812 72.6562H78.4688V66.8438H81.375V55.2188H69.75V58.125H63.9375V52.3125C63.9375 51.5417 64.2437 50.8025 64.7887 50.2575C65.3337 49.7124 66.073 49.4062 66.8438 49.4062H84.2812C85.052 49.4062 85.7913 49.7124 86.3363 50.2575C86.8813 50.8025 87.1875 51.5417 87.1875 52.3125V69.75C87.1875 70.5208 86.8813 71.26 86.3363 71.805C85.7913 72.3501 85.052 72.6562 84.2812 72.6562Z" fill="#0095FF"/>
<path d="M69.75 87.1876H52.3125C51.5417 87.1876 50.8025 86.8814 50.2575 86.3364C49.7124 85.7914 49.4062 85.0521 49.4062 84.2813V66.8438C49.4062 66.0731 49.7124 65.3338 50.2575 64.7888C50.8025 64.2438 51.5417 63.9376 52.3125 63.9376H69.75C70.5208 63.9376 71.26 64.2438 71.805 64.7888C72.3501 65.3338 72.6562 66.0731 72.6562 66.8438V84.2813C72.6562 85.0521 72.3501 85.7914 71.805 86.3364C71.26 86.8814 70.5208 87.1876 69.75 87.1876ZM55.2187 81.3751H66.8437V69.7501H55.2187V81.3751ZM43.5937 57.7124C41.4938 57.1651 39.5894 56.04 38.0968 54.4648C36.6041 52.8896 35.5831 50.9274 35.1496 48.8011C34.7161 46.6747 34.8875 44.4694 35.6443 42.4356C36.4012 40.4018 37.7131 38.6209 39.4312 37.2953C41.1493 35.9696 43.2047 35.1522 45.3639 34.936C47.5232 34.7197 49.6999 35.1132 51.6467 36.0719C53.5936 37.0305 55.2326 38.5158 56.3778 40.3592C57.5229 42.2025 58.1282 44.33 58.125 46.5001H63.9375C63.9409 43.1748 62.9933 39.9178 61.2066 37.1133C59.42 34.3087 56.8686 32.0735 53.8534 30.6712C50.8382 29.269 47.485 28.758 44.189 29.1988C40.893 29.6395 37.7917 31.0134 35.2509 33.1586C32.7101 35.3038 30.8356 38.1308 29.8485 41.3062C28.8614 44.4817 28.8028 47.8731 29.6797 51.0808C30.5566 54.2884 32.3324 57.1784 34.7977 59.41C37.263 61.6416 40.3149 63.1218 43.5937 63.676V57.7124Z" fill="#0095FF"/>
<path d="M83.9615 39.3797L77.2481 45.2794L73.1212 41.1525L80.1253 34.9912L73.2665 23.1338L63.269 26.505C60.9271 24.5557 58.2747 23.0133 55.4221 21.9422L53.3587 11.625H39.6412L37.5778 21.9422C34.7023 22.9834 32.0354 24.5284 29.7018 26.505L19.7334 23.1338L12.8746 34.9912L20.7796 41.9372C20.242 44.9455 20.242 48.0254 20.7796 51.0337L12.8746 58.0087L19.7334 69.8662L29.7309 66.495C32.0728 68.4443 34.7252 69.9867 37.5778 71.0578L39.6412 81.375H43.5937V87.1875H39.6412C38.2972 87.1864 36.995 86.7196 35.9564 85.8665C34.9179 85.0134 34.207 83.8267 33.945 82.5084L32.4628 75.1847C31.147 74.5429 29.8751 73.8148 28.6556 73.005L21.5934 75.3881C20.9928 75.5835 20.3649 75.6817 19.7334 75.6787C18.7125 75.6858 17.7082 75.4201 16.8244 74.9092C15.9405 74.3983 15.209 73.6607 14.7056 72.7725L7.84683 60.915C7.16847 59.7496 6.9164 58.3847 7.13378 57.0539C7.35116 55.7231 8.02447 54.5093 9.03839 53.6203L14.6184 48.7378C14.5603 47.9822 14.5312 47.2556 14.5312 46.5C14.5312 45.7444 14.5893 45.0178 14.6475 44.2912L9.03839 39.3797C8.02447 38.4907 7.35116 37.2769 7.13378 35.9461C6.9164 34.6153 7.16847 33.2504 7.84683 32.085L14.7056 20.2275C15.209 19.3393 15.9405 18.6017 16.8244 18.0908C17.7082 17.5799 18.7125 17.3142 19.7334 17.3212C20.3649 17.3183 20.9928 17.4165 21.5934 17.6119L28.6265 19.995C29.856 19.185 31.1376 18.4569 32.4628 17.8153L33.945 10.4916C34.207 9.17332 34.9179 7.98664 35.9564 7.13353C36.995 6.28041 38.2972 5.81358 39.6412 5.8125H53.3587C54.7027 5.81358 56.0049 6.28041 57.0435 7.13353C58.082 7.98664 58.7929 9.17332 59.0549 10.4916L60.5371 17.8153C61.8529 18.4571 63.1248 19.1852 64.3443 19.995L71.4065 17.6119C72.007 17.4165 72.635 17.3183 73.2665 17.3212C74.2874 17.3142 75.2917 17.5799 76.1755 18.0908C77.0594 18.6017 77.7909 19.3393 78.2943 20.2275L85.1531 32.085C85.8314 33.2504 86.0835 34.6153 85.8661 35.9461C85.6487 37.2769 84.9754 38.4907 83.9615 39.3797Z" fill="#FF8600"/>
</svg>
