<svg width="93" height="93" viewBox="0 0 93 93" fill="none" xmlns="http://www.w3.org/2000/svg">
<g clip-path="url(#clip0_1914_3630)">
<path d="M72.1943 49.4142C72.1992 49.411 72.204 49.4079 72.2087 49.4046L72.2294 49.3903L72.1943 49.4142Z" fill="black"/>
<path d="M84.7827 49.8126V49.8142C84.0148 48.976 83.0779 48.3273 82.0356 47.891C80.9934 47.456 79.8461 47.2328 78.6542 47.2328C77.5229 47.2344 76.3788 47.4353 75.2824 47.8049C74.1909 48.1762 73.1456 48.7148 72.2087 49.4048L72.1308 49.4622L72.1053 49.478L72.0161 49.5545C71.9141 49.6406 71.7197 49.7903 71.4649 49.9752C70.5725 50.6365 68.9217 51.7758 66.9649 53.1048C65.6805 53.9749 64.2592 54.9278 62.8219 55.887C62.8251 55.8169 62.8282 55.7466 62.8282 55.6767C62.8282 53.3422 61.8753 51.2149 60.3425 49.6836C58.8094 48.1522 56.6869 47.1993 54.351 47.1993H36.399C33.4478 47.1993 30.9143 47.5005 28.7186 48.0233C25.4202 48.804 22.8738 50.0883 20.8184 51.5384C18.7627 52.99 17.2012 54.5961 15.8149 56.0111C15.5281 56.3043 15.2475 56.5943 14.9639 56.8748L7.93987 63.0128C6.61407 64.1729 5.84937 65.8507 5.84937 67.6163V88.3057C5.84937 90.1463 6.92649 91.8161 8.5965 92.5779V92.5763C9.20845 92.8551 9.87452 93.0018 10.547 93.0002C11.6782 92.9986 12.7715 92.5939 13.6094 91.8593L26.6981 80.6397L47.2919 84.381C47.8623 84.4864 48.4392 84.5374 49.0128 84.5374C51.0141 84.5374 52.9486 83.9254 54.5708 82.778L54.5645 82.7829C55.9729 81.803 62.8631 77.0113 69.6608 72.2452C73.0611 69.8646 76.4329 67.4904 79.0941 65.6037C80.4199 64.6574 81.5703 63.8367 82.453 63.193C82.896 62.8727 83.272 62.5972 83.5748 62.3709C83.8776 62.1446 84.1007 61.9709 84.2602 61.8387V61.8403L84.3143 61.7958L84.3365 61.7765L84.4066 61.7113C85.2672 60.9227 85.9427 59.9985 86.4144 58.988C86.8798 57.9763 87.1377 56.8784 87.1506 55.7533C87.1506 55.7199 87.1506 55.6849 87.1506 55.6513C87.1506 53.5255 86.2933 51.457 84.7827 49.8126ZM81.7072 58.7742C79.6866 60.4567 52.2889 79.5081 52.2889 79.5081C51.0428 80.3862 49.5036 80.7302 48.0058 80.4594L26.542 76.557C25.9143 76.444 25.264 76.6175 24.7798 77.0304L11.006 88.8394C10.7989 89.0226 10.5025 89.0624 10.2507 88.9476C9.99913 88.833 9.83638 88.5811 9.83638 88.3053V67.6163C9.83638 66.9996 10.101 66.4196 10.5662 66.0166L17.6922 59.7908C21.6216 55.8631 25.175 51.188 36.3991 51.188C47.6204 51.188 52.1041 51.188 54.351 51.188C56.8304 51.188 58.8414 53.1973 58.8414 55.6767C58.8414 58.1544 56.8304 60.1639 54.351 60.1639C54.351 60.1639 45.0007 60.1639 42.0049 60.1639L42.0591 60.1925C41.1794 60.1639 40.4401 60.8554 40.405 61.7364C40.3796 62.6192 41.0744 63.3586 41.9539 63.3872L42.0049 63.3617H58.7616C58.7616 63.3617 72.5482 54.3015 74.5655 52.6202C76.7708 50.9869 80.0724 50.5775 81.8444 52.5072C83.6163 54.4368 83.6355 57.0039 81.7072 58.7742Z" fill="#FF8600"/>
<path d="M39.3024 37.1128C42.961 39.6178 47.5628 41.4535 47.5628 41.4535C47.9868 41.5904 48.64 41.7116 48.8663 41.7116C49.0924 41.7116 49.7458 41.5904 50.1728 41.4535C50.1728 41.4535 54.7716 39.6178 58.4333 37.1128C64.004 33.3156 73.039 25.8598 73.039 15.3543C73.039 4.69413 67.0095 -0.135695 60.3776 0.00289724C55.3198 0.0969871 52.3305 3.08461 50.3259 6.031C49.9594 6.57593 49.4112 6.92649 48.8665 6.94248C48.3215 6.92649 47.7764 6.57593 47.4101 6.031C45.4022 3.08461 42.4162 0.0969871 37.3584 0.00289724C30.7235 -0.135695 24.6937 4.69395 24.6937 15.3543C24.6935 25.8598 33.7318 33.3156 39.3024 37.1128ZM34.3278 6.67474C34.8376 6.05316 35.4719 5.52259 36.1985 5.08284C36.9187 4.64781 37.8525 4.87722 38.2859 5.59598C38.7193 6.31291 38.4899 7.24836 37.7728 7.68012C37.2949 7.96857 36.9441 8.27445 36.6829 8.59486C36.1538 9.24495 35.1978 9.34213 34.5445 8.81301C33.8973 8.28407 33.7986 7.3281 34.3278 6.67474ZM30.768 16.3486C30.768 15.3368 30.8731 14.395 31.0995 13.5266C31.3131 12.7154 32.1415 12.2295 32.9511 12.4415C33.7638 12.6534 34.248 13.4837 34.0379 14.2946C33.8911 14.8569 33.8052 15.5437 33.8052 16.3486C33.8052 17.1532 33.888 18.0694 34.0633 19.1004C34.3405 20.7513 35.0416 22.2842 36.0679 23.723C36.5587 24.4067 36.3992 25.3547 35.714 25.8407C35.032 26.3299 34.0856 26.169 33.5948 25.4887C32.3584 23.7517 31.4373 21.784 31.0677 19.6056C30.873 18.4407 30.768 17.3572 30.768 16.3486Z" fill="#0095FF"/>
</g>
<defs>
<clipPath id="clip0_1914_3630">
<rect width="93" height="93" fill="white"/>
</clipPath>
</defs>
</svg>
