<svg width="93" height="93" viewBox="0 0 93 93" fill="none" xmlns="http://www.w3.org/2000/svg">
<path d="M24.7031 75.5625H40.6875C41.8433 75.5612 42.9513 75.1014 43.7686 74.2842C44.5858 73.4669 45.0455 72.3589 45.0469 71.2031V33.4219C45.0455 32.2661 44.5858 31.1581 43.7686 30.3408C42.9513 29.5236 41.8433 29.0638 40.6875 29.0625H24.7031C23.5474 29.0638 22.4393 29.5236 21.6221 30.3408C20.8048 31.1581 20.3451 32.2661 20.3438 33.4219V71.2031C20.3451 72.3589 20.8048 73.4669 21.6221 74.2842C22.4393 75.1014 23.5474 75.5612 24.7031 75.5625ZM26.1562 34.875H39.2344V69.75H26.1562V34.875ZM77.0156 2.90625H61.0312C59.8755 2.9076 58.7674 3.36732 57.9502 4.18457C57.1329 5.00182 56.6732 6.10986 56.6719 7.26562V71.2031C56.6732 72.3589 57.1329 73.4669 57.9502 74.2842C58.7674 75.1014 59.8755 75.5612 61.0312 75.5625H77.0156C78.1714 75.5612 79.2794 75.1014 80.0967 74.2842C80.9139 73.4669 81.3737 72.3589 81.375 71.2031V7.26562C81.3737 6.10986 80.9139 5.00182 80.0967 4.18457C79.2794 3.36732 78.1714 2.9076 77.0156 2.90625ZM75.5625 69.75H62.4844V8.71875H75.5625V69.75Z" fill="#0095FF"/>
<path d="M8.71875 5.8125C8.71875 4.20742 7.41758 2.90625 5.8125 2.90625C4.20742 2.90625 2.90625 4.20742 2.90625 5.8125V85.0938C2.90625 87.8552 5.14483 90.0938 7.90625 90.0938H87.1875C88.7926 90.0938 90.0938 88.7926 90.0938 87.1875C90.0938 85.5824 88.7926 84.2812 87.1875 84.2812H13.7187C10.9573 84.2812 8.71875 82.0427 8.71875 79.2812V5.8125Z" fill="#FF8600"/>
</svg>
