<svg width="93" height="93" viewBox="0 0 93 93" fill="none" xmlns="http://www.w3.org/2000/svg">
<path d="M50.5328 58.3408V63.8752H56.0445C54.5828 67.4001 51.6483 69.1144 47.11 69.1144C43.7269 69.1144 41.1612 68.1523 39.2682 66.1684C37.3639 64.1733 36.4357 62.0048 36.4357 59.5385C36.4357 56.7004 37.3864 54.4072 39.3363 52.5227C41.2975 50.6296 43.6957 49.7072 46.6615 49.7072C50.0871 49.7072 53.0274 50.956 55.6471 53.5246L59.6659 49.5087C57.4947 47.4227 55.3236 45.9752 53.2147 45.2033C51.1259 44.4369 48.7929 44.0482 46.2782 44.0482C41.9841 44.0482 38.2746 45.5524 35.2521 48.5211C32.2238 51.4899 30.6913 55.1397 30.6913 59.3685C30.6913 63.3873 32.1842 67.003 35.1329 70.1109C38.0931 73.2357 42.0949 74.8194 47.0248 74.8194C49.1676 74.8194 51.0492 74.5753 52.6131 74.0985C54.2054 73.6102 55.7152 72.7928 57.1031 71.6661C58.4852 70.545 59.6063 69.2538 60.4407 67.829C61.2667 66.4184 61.8201 65.0987 62.0897 63.9039C62.3536 62.7203 62.4842 61.1991 62.4842 59.2523V58.3412H50.5328V58.3408Z" fill="#0095FF"/>
<path d="M86.503 31.7388C86.9032 30.1863 85.9667 28.6026 84.4113 28.1997L73.9528 25.5149L83.1454 20.4885C84.5531 19.7194 85.0697 17.9512 84.3005 16.5435C83.5312 15.1358 81.7631 14.6192 80.3554 15.3911L68.7192 21.7571L75.8429 4.45583C75.9281 4.24585 75.9252 4.00736 75.8287 3.80029C75.735 3.59303 75.5563 3.4341 75.3405 3.36035C75.3405 3.36035 69.5847 0.374543 66.3322 0.374543C59.603 0.374543 53.0639 3.90237 47.1123 3.90237C45.31 3.90237 43.5617 3.57887 41.8816 2.73587C37.9285 0.760711 34.4773 0 31.2107 0C26.2752 0 17.5337 3.40867 17.5337 3.40867C17.301 3.46552 17.1052 3.62155 16.9973 3.83716C16.8894 4.05004 16.8809 4.2998 16.9717 4.52122L24.8135 23.5679C23.8485 24.0447 23.1788 25.0266 23.1788 26.1733C23.1788 27.1611 23.6754 28.0322 24.4304 28.5574C20.5962 33.1267 11.1423 45.3677 7.58037 58.897C2.44611 78.4148 13.898 93 46.3946 93C78.8883 93 90.3402 78.4148 85.2059 58.897C82.0641 46.9654 74.3387 36.033 69.9283 30.4815L82.9667 33.8306C84.5193 34.2307 86.1029 33.2942 86.503 31.7388ZM31.2107 7.26562C33.5862 7.26562 35.9448 7.89283 38.6324 9.23534C41.1951 10.5183 44.0476 11.1682 47.1128 11.1682C50.9756 11.1682 54.5742 10.1804 58.0538 9.2268C61.031 8.40942 63.8406 7.64035 66.3326 7.64035L66.6731 7.64598L60.242 23.2671H32.5445L26.2665 8.01489C27.9922 7.54662 29.6128 7.26562 31.2107 7.26562ZM76.2547 76.4878C71.657 82.4507 61.0537 85.7344 46.3946 85.7344C31.7328 85.7344 21.1295 82.4507 16.5318 76.4878C13.532 72.5938 12.8819 67.2979 14.6075 60.7475C18.5865 45.6259 31.2901 31.7275 31.4122 31.5942L33.7452 29.0796H59.0415L61.3745 31.5942C61.5022 31.7333 74.1745 45.5295 78.179 60.7475C79.9044 67.2979 79.2545 72.5938 76.2547 76.4878Z" fill="#FF8600"/>
</svg>
