<svg width="93" height="93" viewBox="0 0 93 93" fill="none" xmlns="http://www.w3.org/2000/svg">
<path d="M49.1883 29.789C48.0258 29.789 47.0812 28.8445 47.0812 27.6093C47.0812 26.3742 48.0258 25.4296 49.1883 25.4296H78.9773C80.1398 25.4296 81.0844 26.3742 81.0844 27.6093C81.0844 28.8445 80.1398 29.789 78.9773 29.789H49.1883ZM49.1883 40.6148C48.0258 40.6148 47.0812 39.6703 47.0812 38.4351C47.0812 37.2 48.0258 36.2554 49.1883 36.2554H78.9773C80.1398 36.2554 81.0844 37.2 81.0844 38.4351C81.0844 39.6703 80.1398 40.6148 78.9773 40.6148H49.1883ZM49.1883 52.1671C48.0258 52.1671 47.0812 51.2226 47.0812 49.9874C47.0812 48.7523 48.0258 47.8078 49.1883 47.8078H74.3273C75.4898 47.8078 76.4343 48.7523 76.4343 49.9874C76.4343 51.2226 75.4898 52.1671 74.3273 52.1671H49.1883ZM5.30388 74.6906C5.08591 74.6906 4.86795 74.6906 4.64998 74.6179C3.48748 74.2546 2.83357 72.9468 3.19685 71.7117C5.30388 64.5914 10.2445 58.7789 16.6383 55.7273L18.0914 55.0007L16.8562 53.9109C13.2234 50.7867 11.1164 46.1367 11.1164 41.2687C11.1164 32.1867 18.2367 24.8484 26.8828 24.8484C35.6015 24.8484 42.6492 32.1867 42.6492 41.2687C42.6492 46.1367 40.5422 50.7867 36.9094 53.9109L35.6742 55.0007L37.1273 55.7273C43.3031 58.6335 49.1883 65.8992 51.4406 73.3828C52.8937 78.1781 49.9148 76.6523 51.2953 74.8359C51.0047 75.2718 49.7695 74.3273 48.389 74.3273C47.2265 74.3273 46.6453 76.5796 46.6453 76.3617C43.8117 66.9163 35.6742 57.907 26.8828 57.907C17.8734 57.907 9.95388 64.0101 7.2656 73.0195C7.12029 74.0367 6.24841 74.6906 5.30388 74.6906ZM27.0281 29.4257C20.707 29.4257 15.5484 34.7296 15.5484 41.2687C15.5484 47.8078 20.707 53.1117 27.0281 53.1117C33.3492 53.1117 38.5078 47.8078 38.5078 41.2687C38.4351 34.7296 33.3492 29.4257 27.0281 29.4257Z" fill="#0095FF"/>
<path d="M10.0266 78.0327C4.86797 78.0327 0.726562 73.6733 0.726562 68.3694V20.1257C0.726562 14.8218 4.86797 10.4624 10.0266 10.4624H82.7555C87.9141 10.4624 92.0555 14.8218 92.0555 20.1257V68.2968C92.0555 73.6007 87.9141 77.9601 82.7555 77.9601H10.0266V78.0327ZM10.0266 14.3132C6.90234 14.3132 4.43203 16.9288 4.43203 20.1257V68.2968C4.43203 71.4937 6.975 74.1093 10.0266 74.1093H82.7555C85.8797 74.1093 88.35 71.4937 88.35 68.2968V20.1257C88.35 16.9288 85.807 14.3132 82.7555 14.3132H10.0266Z" fill="#FF8600"/>
</svg>
