<svg width="93" height="93" viewBox="0 0 93 93" fill="none" xmlns="http://www.w3.org/2000/svg">
<path d="M30.6502 37.5809V9.09079C30.6502 8.41127 30.0993 7.86035 29.4198 7.86035H25.3185C22.1781 7.86035 19.6232 10.4153 19.6232 13.5561V38.7086C19.6232 41.8493 22.1781 44.4043 25.3185 44.4043H26.0236C26.7032 44.4043 27.2541 43.8532 27.2541 43.1738C27.2541 42.4945 26.7032 41.9434 26.0236 41.9434H25.3185C23.535 41.9434 22.084 40.4921 22.084 38.7086V13.5561C22.084 11.7725 23.535 10.3212 25.3185 10.3212H28.1893V37.5811C28.1893 38.2605 28.7403 38.8116 29.4198 38.8116C30.0993 38.8116 30.6502 38.2605 30.6502 37.5809Z" fill="#0095FF"/>
<path d="M34.4812 12.1884L56.4201 19.957V25.3323C56.4201 26.0116 56.9711 26.5627 57.6504 26.5627C58.3301 26.5627 58.881 26.0116 58.881 25.3323V20.3181H62.2143C63.3664 20.3181 64.3037 21.2554 64.3037 22.4075V26.7385C64.3037 27.4181 64.8546 27.969 65.5341 27.969C66.2137 27.969 66.7646 27.4179 66.7646 26.7385V22.4073C66.7646 19.8983 64.7233 17.8569 62.2141 17.8569H57.8613L35.3026 9.86885C34.662 9.64125 33.9586 9.97711 33.732 10.6181C33.5053 11.2586 33.8408 11.9617 34.4812 12.1884Z" fill="#0095FF"/>
<path d="M53.5255 79.994C41.0365 78.7337 31.6186 68.3036 31.6186 55.7324C31.6186 42.2859 42.5582 31.3462 56.0047 31.3462C69.4512 31.3462 80.3909 42.2859 80.3909 55.7324C80.3909 56.761 80.3264 57.796 80.1985 58.8092C80.1137 59.4836 80.5916 60.0992 81.2659 60.1839C81.9401 60.2672 82.5557 59.7912 82.6403 59.1167C82.7804 58.0016 82.8518 56.8633 82.8518 55.7322C82.8518 40.9285 70.8081 28.885 56.0046 28.885C41.2008 28.885 29.1573 40.9285 29.1573 55.7322C29.1573 69.572 39.527 81.0547 53.278 82.4425C53.3201 82.4465 53.3617 82.4486 53.4031 82.4486C54.0272 82.4486 54.5618 81.9757 54.6257 81.3417C54.6942 80.6655 54.2014 80.0621 53.5255 79.994Z" fill="#FF8600" stroke="#FF8600" stroke-width="1.75"/>
<path d="M72.2171 55.7322C72.2171 56.4116 72.7678 56.9627 73.4473 56.9627C74.127 56.9627 74.6778 56.4116 74.6778 55.7322C74.6778 45.4356 66.301 37.0588 56.0046 37.0588C45.7081 37.0588 37.3315 45.4357 37.3315 55.7322C37.3315 64.817 43.8157 72.5511 52.7492 74.1222C52.8213 74.135 52.8932 74.1411 52.9639 74.1411C53.5502 74.1411 54.0694 73.7206 54.1745 73.1234C54.2921 72.4539 53.8452 71.8161 53.1757 71.6982C45.4209 70.3345 39.7926 63.6194 39.7926 55.732C39.7926 46.7926 47.0655 39.5197 56.0047 39.5197C64.944 39.5197 72.2171 46.7928 72.2171 55.7322Z" fill="#FF8600" stroke="#FF8600" stroke-width="1.75"/>
<path d="M56.0048 47.7797C60.3898 47.7797 63.957 51.3473 63.957 55.7321C63.957 56.4115 64.5077 56.9626 65.1873 56.9626C65.867 56.9626 66.4177 56.4115 66.4177 55.7321C66.4177 49.9901 61.7464 45.3188 56.0046 45.3188C50.2627 45.3188 45.5913 49.9901 45.5913 55.7321C45.5913 59.9985 48.1466 63.7888 52.1015 65.3885C52.2526 65.4499 52.4086 65.4786 52.5623 65.4786C53.0489 65.4786 53.5099 65.1882 53.7034 64.7093C53.9582 64.0794 53.6542 63.3621 53.0242 63.1075C50.0037 61.8856 48.0522 58.9908 48.0522 55.7321C48.0525 51.3473 51.62 47.7797 56.0048 47.7797Z" fill="#FF8600" stroke="#FF8600" stroke-width="1.75"/>
<path d="M83.6947 73.4432L78.2075 63.5071C76.8209 60.9968 73.9818 59.5878 71.1448 60.004L64.8346 60.9263L59.9367 53.9808C59.3044 53.0836 58.3589 52.4949 57.2747 52.324C56.1903 52.1529 55.1101 52.4212 54.232 53.08C52.5709 54.3266 52.1346 56.6805 53.2405 58.4428L61.3878 71.3353C61.7505 71.9096 62.5109 72.0807 63.0852 71.718C63.6599 71.3547 63.831 70.5949 63.4679 70.0202L55.3226 57.1311C54.8939 56.4476 55.0634 55.5331 55.7088 55.0485C56.0501 54.7923 56.4697 54.6881 56.8909 54.7547C57.3121 54.8214 57.6796 55.0499 57.9253 55.3985L63.2589 62.9624C63.5264 63.3413 63.984 63.5394 64.4426 63.4708L71.501 62.4387C73.3312 62.17 75.1592 63.079 76.0529 64.6972L81.5401 74.6331C82.1326 75.7057 81.8694 77.0413 80.9147 77.8093L75.5463 82.1251C74.605 82.8818 73.2558 82.862 72.3374 82.0779L68.0487 78.4167C66.9596 77.4869 65.5199 77.053 64.0935 77.2259C63.1359 77.3427 62.1855 76.93 61.6154 76.15C61.2007 75.5824 61.0278 74.8865 61.1288 74.1907L61.2 73.6997C61.2975 73.0271 60.8316 72.4026 60.159 72.305C59.488 72.209 58.8622 72.6732 58.7645 73.3458L58.6931 73.8368C58.4991 75.1739 58.8312 76.5111 59.6286 77.602C60.7233 79.1 62.5468 79.8924 64.3952 79.6682C65.1347 79.5776 65.8841 79.8044 66.4506 80.2883L70.7395 83.9495C71.6677 84.7418 72.8184 85.1398 73.9708 85.1398C75.0735 85.1394 76.1775 84.7747 77.0881 84.0428L82.4565 79.7269C84.3457 78.2078 84.8666 75.5653 83.6947 73.4432Z" fill="#FF8600" stroke="#FF8600" stroke-width="1.75"/>
<path d="M14.6524 24.9016H9.91305C9.23353 24.9016 8.68262 25.4527 8.68262 26.132C8.68262 26.8114 9.23353 27.3625 9.91305 27.3625H14.6524C15.3321 27.3625 15.8829 26.8116 15.8829 26.132C15.8829 25.4525 15.3321 24.9016 14.6524 24.9016Z" fill="#0095FF"/>
<path d="M14.1271 39.8196L9.64243 41.3528C8.99942 41.5724 8.65648 42.2723 8.87609 42.9149C9.05101 43.426 9.52872 43.7477 10.0404 43.7477C10.1725 43.7477 10.3069 43.7265 10.4386 43.6812L14.9233 42.148C15.5663 41.9282 15.9092 41.2285 15.6894 40.5859C15.4695 39.9427 14.7696 39.5981 14.1271 39.8196Z" fill="#0095FF"/>
<path d="M9.64243 10.9118L14.1271 12.445C14.2592 12.4904 14.3932 12.5117 14.5253 12.5117C15.0368 12.5117 15.5147 12.19 15.6894 11.6788C15.9092 11.0362 15.5663 10.3363 14.9233 10.1167L10.4386 8.58351C9.79592 8.36264 9.09624 8.70666 8.87609 9.34967C8.65648 9.99232 8.99942 10.692 9.64243 10.9118Z" fill="#0095FF"/>
</svg>
