<svg width="93" height="93" viewBox="0 0 93 93" fill="none" xmlns="http://www.w3.org/2000/svg">
<g clip-path="url(#clip0_1914_3962)">
<path d="M70.7571 11.6959H62.1307C61.3582 8.68678 58.6226 6.45606 55.3756 6.45606H52.409V5.90915C52.409 2.65065 49.7584 0 46.4999 0C43.2414 0 40.591 2.65065 40.591 5.90915V6.45606H37.6244C34.3774 6.45606 31.6418 8.68678 30.8693 11.6959H22.2429C16.3371 11.6959 11.5325 16.5008 11.5325 22.4066V82.2895C11.5325 88.1954 16.3371 93 22.2429 93H70.7571C76.6629 93 81.4675 88.1954 81.4675 82.2895V22.4064C81.4675 16.5005 76.6629 11.6959 70.7571 11.6959ZM37.6244 11.0452H42.8857C44.1531 11.0452 45.1804 10.018 45.1804 8.75052V5.90915C45.1804 5.18147 45.7724 4.58943 46.5001 4.58943C47.2278 4.58943 47.8198 5.18147 47.8198 5.90915V8.75052C47.8198 10.018 48.8471 11.0452 50.1146 11.0452H55.3758C56.6902 11.0452 57.7598 12.1146 57.7598 13.4292V13.8965H35.241V13.4292H35.2405C35.2405 12.1148 36.3098 11.0452 37.6244 11.0452ZM22.2429 16.2853H30.6559C30.7056 17.5087 31.7102 18.486 32.9457 18.486H60.054C61.2896 18.486 62.2944 17.5087 62.3439 16.2853H70.7568C73.5418 16.2853 75.8967 18.1558 76.6356 20.7057H16.3641C17.103 18.1555 19.4579 16.2853 22.2429 16.2853ZM70.7571 88.4106H22.2429C19.2664 88.4106 16.7807 86.2747 16.2346 83.4553H76.7654C76.2195 86.2747 73.7336 88.4106 70.7571 88.4106ZM76.8781 78.8658H16.1219V25.2952H76.8781V78.8658Z" fill="#FF8600"/>
<path d="M49.049 41.9349H62.8165C64.084 41.9349 65.1112 40.9076 65.1112 39.6402C65.1112 38.3727 64.084 37.3455 62.8165 37.3455H49.049C47.7815 37.3455 46.7543 38.3727 46.7543 39.6402C46.7543 40.9076 47.7815 41.9349 49.049 41.9349Z" fill="#0095FF"/>
<path d="M49.049 54.424H62.8165C64.084 54.424 65.1112 53.3968 65.1112 52.1293C65.1112 50.8619 64.0837 49.8346 62.8165 49.8346H49.049C47.7815 49.8346 46.7543 50.8619 46.7543 52.1293C46.7543 53.3968 47.7815 54.424 49.049 54.424Z" fill="#0095FF"/>
<path d="M49.049 66.9132H62.8165C64.084 66.9132 65.1112 65.8859 65.1112 64.6184C65.1112 63.351 64.0837 62.3237 62.8165 62.3237H49.049C47.7815 62.3237 46.7543 63.351 46.7543 64.6184C46.7543 65.8859 47.7815 66.9132 49.049 66.9132Z" fill="#0095FF"/>
<path d="M39.0102 60.7184L34.3326 63.7316L33.7194 63.2033C32.7591 62.376 31.3102 62.4838 30.4833 63.4443C29.6562 64.4045 29.764 65.8535 30.724 66.6806L32.6363 68.3279C33.0638 68.6964 33.5977 68.884 34.1344 68.884C34.5646 68.884 34.9965 68.7634 35.3766 68.5184L41.4956 64.5766C42.5612 63.8902 42.8684 62.4703 42.182 61.4048C41.4961 60.3395 40.0762 60.0318 39.0102 60.7184Z" fill="#0095FF"/>
<path d="M39.0102 48.2505L34.3326 51.2637L33.7194 50.7354C32.7591 49.9081 31.3102 50.0159 30.4833 50.9764C29.6562 51.9366 29.764 53.3856 30.724 54.2127L32.6363 55.8601C33.0638 56.2285 33.5977 56.4161 34.1344 56.4161C34.5646 56.4161 34.9965 56.2955 35.3766 56.0505L41.4956 52.1087C42.5612 51.4223 42.8684 50.0024 42.182 48.9369C41.4961 47.8716 40.0762 47.5639 39.0102 48.2505Z" fill="#0095FF"/>
<path d="M30.7239 41.7445L32.6362 43.3916C33.064 43.76 33.5977 43.9476 34.1344 43.9476C34.5645 43.9476 34.9964 43.827 35.3766 43.582L41.4956 39.6402C42.5611 38.9538 42.8683 37.5339 42.1819 36.4684C41.4961 35.4034 40.0761 35.0956 39.0101 35.7823L34.3325 38.7955L33.7193 38.2672C32.7586 37.4398 31.3103 37.5479 30.483 38.5081C29.6561 39.4684 29.7639 40.9173 30.7239 41.7445Z" fill="#0095FF"/>
</g>
<defs>
<clipPath id="clip0_1914_3962">
<rect width="93" height="93" fill="white"/>
</clipPath>
</defs>
</svg>
