<svg width="50" height="50" viewBox="0 0 50 50" fill="none" xmlns="http://www.w3.org/2000/svg">
<path d="M43.2188 16.8729C39.7079 13.4584 34.9654 11.186 29.9014 10.4913C28.3529 10.2763 26.7733 10.1725 25.1855 10.1697C22.0094 10.1725 18.8069 10.5951 15.7779 11.4441L15.7677 11.447C15.7677 11.447 12.598 12.3731 9.33704 13.337C8.62717 13.5475 7.91682 13.7579 7.22992 13.9618C7.22579 13.9618 7.22167 13.9581 7.21707 13.9554V13.9535C6.52182 13.7679 5.88826 13.2414 5.67488 12.6873C5.52779 12.329 5.4451 11.9173 5.4451 11.4817C5.44698 10.707 5.70188 9.86823 6.29616 9.12021C6.89223 8.37324 7.83413 7.69415 9.28539 7.28624C11.2213 6.74039 15.3206 6.22216 19.1503 5.59088C21.0739 5.27293 22.9431 4.92292 24.5085 4.50389C26.0817 4.061 27.3238 3.64838 28.1935 2.82144C28.6097 2.40693 28.6138 1.73256 28.2017 1.31447C27.7878 0.898269 27.1168 0.893649 26.703 1.30985C26.4833 1.57085 25.3988 2.07805 23.9618 2.44286C21.7962 3.02634 18.7904 3.50505 15.9456 3.93785C13.0906 4.37518 10.416 4.76215 8.7182 5.23342C6.90057 5.73882 5.53435 6.65958 4.63988 7.78967C3.74307 8.91636 3.32513 10.2321 3.32513 11.4818C3.32513 12.1856 3.4576 12.8711 3.71429 13.4979C3.91941 13.9894 4.22954 14.3974 4.58185 14.7576C4.01682 14.9286 3.51563 15.082 3.1366 15.2015C2.92557 15.2677 2.74969 15.3237 2.60897 15.3715L2.25675 15.4991C1.92563 15.6425 1.63603 15.8547 1.40391 16.1423C1.176 16.429 1.00013 16.8131 1.00013 17.2643C0.994126 17.7118 1.203 18.1766 1.51575 18.4863C1.83056 18.8033 2.21972 19.0026 2.66691 19.1424C2.7601 19.1699 3.09535 19.2949 3.54029 19.4677C5.11988 20.0814 8.31245 21.3661 11.5647 22.5036C13.1923 23.0696 14.8341 23.6008 16.3181 23.994C17.8068 24.3882 19.111 24.6518 20.1835 24.6565L20.6577 24.6353H20.6618C23.8767 24.3211 24.5002 24.1125 27.4771 23.8092C27.7444 23.7817 28.007 23.7689 28.266 23.7689C30.6879 23.7689 32.8805 24.9083 34.5013 26.7349C36.1201 28.5562 37.1205 31.049 37.1178 33.6209C37.1078 36.2461 35.8452 38.2327 33.8125 39.6901C31.8456 41.0876 29.15 41.8724 26.4522 41.9165L15.8938 35.5092C15.521 35.2841 15.0469 35.3116 14.7034 35.5754C14.3576 35.8428 14.2087 36.2968 14.3288 36.7166L17.0882 46.3803C17.1879 46.7258 17.4505 46.9987 17.7922 47.1053C17.8438 47.1155 23.7876 48.9917 29.4705 49C29.7377 49 30.005 48.9954 30.2676 48.988C40.5712 48.6499 49 40.5519 49 30.1137C49.0018 24.8789 46.7288 20.2837 43.2188 16.8729ZM21.9619 45.9686C20.9063 45.7417 20.0137 45.5147 19.3906 45.3456C19.2065 45.296 19.0987 45.2648 18.964 45.2253L17.1113 38.739L25.2353 43.6651L25.7775 46.6138C24.4006 46.441 23.0861 46.2076 21.9619 45.9686ZM28.2661 21.637C27.9349 21.637 27.5992 21.6536 27.2621 21.6895C24.1815 22.0037 23.5767 22.2095 20.4591 22.5118H20.4632L20.1836 22.5238C19.3719 22.5303 17.902 22.239 16.246 21.7658C13.7492 21.0601 10.7635 19.9757 8.29182 19.0321C7.05573 18.5597 5.94619 18.1223 5.0806 17.7833C4.46991 17.5435 4.04785 17.3808 3.70613 17.2559C3.77832 17.2329 3.83035 17.2164 3.90882 17.1915C5.42635 16.7193 8.54626 15.7921 11.2769 14.9863C14.0099 14.1804 16.3533 13.4959 16.3597 13.4959C19.1854 12.7039 22.2021 12.3023 25.1854 12.3042C26.6777 12.3023 28.1646 12.4025 29.6159 12.6018C30.6697 12.7461 31.7066 12.975 32.7234 13.2662L30.3631 21.8722C29.6839 21.7244 28.9864 21.637 28.2661 21.637ZM36.0855 25.3144C35.0522 24.1484 33.7915 23.1993 32.3773 22.5514L34.7371 13.9408C37.3829 14.9782 39.7929 16.5025 41.7452 18.4055C42.9631 19.5926 43.9981 20.9233 44.8195 22.3704L37.2751 26.9344C36.9169 26.3638 36.5286 25.8143 36.0855 25.3144ZM30.1997 46.8553C29.9593 46.8636 29.715 46.8683 29.4706 46.8683C28.9741 46.8683 28.4707 46.8388 27.9677 46.8094L27.4461 43.9801C30.1973 43.7734 32.887 42.9491 35.0311 41.4331C36.5386 40.3773 37.7719 38.9531 38.5055 37.2375L43.5439 40.04C40.5072 44.0502 35.6799 46.6661 30.1997 46.8553ZM39.1058 35.1361C39.1861 34.6446 39.24 34.1429 39.2383 33.6209C39.2355 31.944 38.8719 30.3258 38.2506 28.8337L45.7366 24.3046C46.4611 26.1055 46.8795 28.0462 46.8795 30.1136C46.8795 33.0981 46.0928 35.8647 44.7261 38.2594L39.1058 35.1361Z" fill="#474747" stroke="#9C9C9C" stroke-width="1.30208"/>
<path d="M14.8738 25.4794C14.4887 25.0365 13.8205 24.9906 13.3792 25.3802L8.33616 29.8174C7.89488 30.2042 7.8496 30.8768 8.23651 31.3206C8.62154 31.7644 9.29035 31.8076 9.73116 31.4208L14.7746 26.9836C15.2155 26.5958 15.2611 25.9232 14.8738 25.4794Z" fill="#474747" stroke="#9C9C9C" stroke-width="1.30208"/>
<path d="M15.7664 32.1479L20.8136 27.708C21.2548 27.3212 21.3 26.6486 20.9131 26.2047C20.528 25.761 19.8594 25.7159 19.4181 26.1027L14.371 30.5427C13.9297 30.9314 13.8844 31.604 14.2713 32.0478C14.6563 32.4907 15.3251 32.5366 15.7664 32.1479Z" fill="#474747" stroke="#9C9C9C" stroke-width="1.30208"/>
<path d="M22.6868 31.6631L27.8253 27.3379C28.2748 26.9585 28.3345 26.2867 27.96 25.8347C27.5831 25.3826 26.9145 25.3247 26.4655 25.7015L21.3247 30.0257C20.8774 30.4051 20.8177 31.0759 21.1922 31.5298C21.569 31.9791 22.2377 32.0398 22.6868 31.6631Z" fill="#474747" stroke="#9C9C9C" stroke-width="1.30208"/>
<path d="M13.4239 15.1562C12.5318 15.1562 11.8069 15.8831 11.8069 16.7826C11.8069 17.6795 12.5318 18.4108 13.4239 18.4108C14.3184 18.4108 15.0428 17.6795 15.0428 16.7826C15.0428 15.8831 14.3184 15.1562 13.4239 15.1562Z" fill="#474747" stroke="#9C9C9C" stroke-width="1.30208"/>
</svg>
