<svg width="46" height="46" viewBox="0 0 46 46" fill="none" xmlns="http://www.w3.org/2000/svg">
<path d="M43.031 19.2741H23.9316V9.95737H42.0993C42.871 9.95737 43.4968 9.33167 43.4968 8.55982C43.4968 7.78797 42.8711 7.16228 42.0993 7.16228H23.9316V4.36727H42.0993C42.871 4.36727 43.4968 3.74157 43.4968 2.96973C43.4968 2.19788 42.8711 1.57227 42.0994 1.57227H8.55897C7.7872 1.57227 7.16142 2.19796 7.16142 2.96981C7.16142 3.74166 7.78712 4.36735 8.55897 4.36735H9.95651V7.16236H8.55897C7.7872 7.16236 7.16142 7.78806 7.16142 8.55991C7.16142 9.33175 7.78712 9.95745 8.55897 9.95745H9.95651V19.2742H2.96896C2.19711 19.2741 1.57141 19.8998 1.57141 20.6717C1.57141 24.7092 2.72546 28.6284 4.90883 32.0057C6.86929 35.0381 9.56845 37.5076 12.7515 39.1906V40.2369C12.7515 42.5486 14.6323 44.4294 16.9441 44.4294H29.0559C31.3677 44.4294 33.2484 42.5486 33.2484 40.2369V39.1906C36.4315 37.5076 39.1307 35.0382 41.0911 32.0057C43.2745 28.6284 44.4286 24.7092 44.4286 20.6717C44.4286 19.8998 43.8029 19.2741 43.031 19.2741ZM18.3416 4.36727H21.1366V19.2741H18.3416V4.36727ZM12.7515 4.36727H15.5465V19.2741H12.7515V4.36727ZM31.2505 37.0669C30.7636 37.2985 30.4534 37.7896 30.4534 38.3288V40.2369C30.4534 41.0075 29.8265 41.6344 29.0559 41.6344H16.9441C16.1735 41.6344 15.5465 41.0075 15.5465 40.2369V38.3288C15.5465 37.7896 15.2364 37.2985 14.7495 37.0669C8.86667 34.2676 4.92532 28.4811 4.42133 22.0692H41.5786C41.0746 28.4811 37.1333 34.2676 31.2505 37.0669Z" fill="#9C9C9C" stroke="#9C9C9C" stroke-width="1.39509"/>
</svg>
