<svg width="48" height="48" viewBox="0 0 48 48" fill="none" xmlns="http://www.w3.org/2000/svg">
<path d="M34.9159 22.9866C34.4877 23.1073 34.2426 23.5368 34.3687 23.9454C34.4959 24.3553 34.9444 24.5885 35.3727 24.4683C35.8009 24.3481 36.046 23.9181 35.9188 23.5094C35.7925 23.1002 35.343 22.8665 34.9159 22.9866Z" fill="#FF8600" stroke="#FF8600" stroke-width="1.39509"/>
<path d="M31.5076 23.7218C31.0674 23.7932 30.7712 24.1911 30.845 24.6116C30.9188 25.0321 31.3364 25.3159 31.7765 25.245C32.2167 25.1736 32.5129 24.7751 32.4391 24.3552C32.3641 23.9341 31.9478 23.651 31.5076 23.7218Z" fill="#FF8600" stroke="#FF8600" stroke-width="1.39509"/>
<path d="M38.1481 21.7852C37.7198 21.9066 37.4747 22.336 37.6009 22.7452C37.7282 23.1539 38.1779 23.3876 38.6048 23.2669C39.0332 23.1467 39.2782 22.7173 39.1509 22.308C39.0249 21.8988 38.5751 21.6657 38.1481 21.7852Z" fill="#FF8600" stroke="#FF8600" stroke-width="1.39509"/>
<path d="M45.4286 12.1437C45.4297 11.4342 45.2524 10.7423 44.9313 10.097C44.6518 9.53136 44.2627 8.99958 43.7868 8.50112C42.9518 7.6279 41.849 6.85296 40.5297 6.16833C38.5513 5.14344 36.0829 4.32087 33.2754 3.74925C30.4679 3.17762 27.3238 2.85938 24 2.85938C21.1057 2.85938 18.3469 3.10145 15.8298 3.5404C12.0515 4.20184 8.81809 5.29863 6.46748 6.73209C5.29209 7.45061 4.33333 8.25661 3.65163 9.15954C3.31019 9.61222 3.04142 10.0893 2.85576 10.5895C2.67018 11.0892 2.57141 11.6125 2.57141 12.1437C2.57141 12.2134 2.57375 12.2829 2.57735 12.3519L2.57258 12.3496C2.57258 12.8289 2.61184 13.3965 2.69513 14.0424C2.84027 15.1713 3.12336 16.5394 3.58374 18.0466C4.27607 20.3057 5.37052 22.8765 7.01935 25.3866C8.59677 27.7884 10.6882 30.1343 13.4147 32.0794V34.9148C13.4147 35.2033 13.5659 35.4704 13.818 35.6285C13.8787 35.666 14.7316 36.1907 16.4185 36.7045C18.1042 37.2197 20.6214 37.7222 23.9999 37.7222C27.3784 37.7222 29.8956 37.2196 31.5825 36.7045C33.2683 36.1907 34.1224 35.6661 34.1818 35.6285C34.4341 35.4703 34.5851 35.2033 34.5851 34.9148V32.0811C36.6349 30.6197 38.3241 28.9316 39.7052 27.1638C41.9036 24.3527 43.3275 21.3454 44.2079 18.7003C44.648 17.3768 44.9514 16.1438 45.1453 15.066C45.3403 13.9876 45.4272 13.0674 45.4272 12.3495L45.4236 12.3501C45.4274 12.2818 45.4286 12.2127 45.4286 12.1437ZM32.7996 34.4116C32.4261 34.59 31.7955 34.8571 30.895 35.1224C29.3759 35.5715 27.0942 36.0164 24 36.0164C20.807 36.0164 18.479 35.5424 16.961 35.0797C16.2032 34.8483 15.6465 34.6193 15.2884 34.4527C15.2564 34.4384 15.2289 34.4253 15.2005 34.4117V32.2906C16.6779 32.7778 19.5806 33.4837 24 33.4832C28.4195 33.4837 31.3221 32.7778 32.7996 32.2906V34.4116ZM42.7019 17.5678C42.0512 19.6966 41.0151 22.1264 39.4686 24.4795C37.922 26.8331 35.8664 29.1095 33.1719 30.9552C33.1398 30.9783 33.1101 31.0027 33.0815 31.0277C32.1227 31.4107 29.1569 32.3975 24 32.3981C20.7618 32.3981 18.3885 32.0079 16.8325 31.6236C16.0546 31.4321 15.4799 31.2406 15.1053 31.1002C15.0362 31.074 14.9756 31.0508 14.9185 31.0276C14.89 31.0026 14.8603 30.9783 14.8281 30.9551C12.7748 29.5489 11.094 27.893 9.7247 26.1419C7.67258 23.5182 6.32359 20.6786 5.4944 18.1833C5.30288 17.6057 5.13865 17.0473 5.00071 16.5143C5.70141 17.0966 6.53051 17.6319 7.47027 18.1203C9.44864 19.1458 11.917 19.9672 14.7246 20.5394C17.5309 21.111 20.6762 21.4292 24 21.4292C26.8943 21.4292 29.6531 21.1877 32.1703 20.7481C35.9485 20.0867 39.1819 18.9898 41.5337 17.5552C42.0703 17.2268 42.5604 16.8801 43.0018 16.5131C42.9125 16.8547 42.8125 17.2074 42.7019 17.5678ZM12.0729 12.9568C13.046 13.529 14.4485 14.1804 16.1842 14.4973L16.1984 14.4242C16.2936 14.7115 16.3971 15.0005 16.5149 15.292C16.6648 15.6626 16.8348 16.0361 17.0251 16.4073C14.7602 16.0373 12.8163 15.2153 11.3935 14.4432C10.587 14.0066 9.94937 13.586 9.51511 13.2768C9.45685 13.2351 9.4021 13.1958 9.35088 13.1584C9.67088 12.8235 10.0885 12.4893 10.6012 12.1716C10.6559 12.1377 10.713 12.1045 10.7689 12.0705C11.02 12.2705 11.4626 12.5982 12.0729 12.9568ZM11.8587 11.5061C12.8663 11.0451 14.0774 10.6364 15.4406 10.307C15.487 11.1866 15.6107 12.2192 15.882 13.3215C14.5532 13.0116 13.4551 12.4929 12.6688 12.0307C12.3428 11.8398 12.0705 11.6578 11.8587 11.5061ZM31.2649 15.4818C30.0931 16.154 29.371 16.8094 29.0308 17.1574C28.7762 16.9599 28.5347 16.7553 28.3039 16.5459C27.9613 16.2342 27.6437 15.9106 27.3499 15.5793C27.6865 15.3022 28.4753 14.7151 29.7565 14.1131C31.4267 13.328 33.9344 12.5209 37.3748 12.3465C37.6365 12.5244 37.8744 12.7035 38.0791 12.8866C38.2717 13.0585 38.4359 13.2322 38.5751 13.4059C35.2371 13.6456 32.8424 14.5759 31.2649 15.4818ZM39.1045 14.4635C39.1283 14.5813 39.1438 14.6991 39.1438 14.8174C39.1438 15.1369 39.0605 15.4509 38.8856 15.7733C38.5823 16.3372 37.9815 16.9236 37.1072 17.4649C36.4196 17.8919 35.5666 18.2905 34.584 18.6432C34.0511 18.7788 33.5027 18.9043 32.9364 19.0197C32.8353 19.0405 32.7294 19.0583 32.6271 19.0786C31.6266 18.7401 30.7415 18.3059 29.9564 17.8069C30.28 17.491 30.9188 16.9402 31.9228 16.3729C33.4312 15.5229 35.7605 14.6366 39.1045 14.4635ZM29.1236 13.1989C27.8673 13.8026 27.0548 14.391 26.6516 14.7181C26.1448 14.0417 25.7273 13.3535 25.3859 12.6945L25.4299 12.7349L25.4347 12.7296C25.4966 12.6713 26.0747 12.1426 27.2988 11.6024C28.4754 11.0849 30.2503 10.5568 32.7509 10.4295C33.5075 10.6282 34.2153 10.8501 34.8588 11.0933C35.1218 11.1927 35.3704 11.295 35.6107 11.3997C32.7793 11.7304 30.6309 12.4739 29.1236 13.1989ZM26.629 10.7025C25.7915 11.0891 25.2348 11.4704 24.9207 11.7155C24.8625 11.5805 24.8066 11.4484 24.7542 11.3193C24.4413 10.5414 24.239 9.8656 24.1165 9.38086C25.9949 9.39208 27.7924 9.52952 29.4484 9.76925C28.2885 10.0287 27.3536 10.3677 26.629 10.7025ZM24.546 13.5154C25.2396 14.7811 26.1983 16.1331 27.5189 17.3347C28.3801 18.118 29.3984 18.836 30.5893 19.4206C29.4056 19.5884 28.1695 19.7114 26.8943 19.7876C25.6167 19.1006 24.5853 18.2732 23.7526 17.3727C22.4106 15.9231 21.5755 14.2826 21.0569 12.7801C20.6298 11.5394 20.4205 10.3939 20.3194 9.53312C21.1712 9.45879 22.0491 9.40999 22.9484 9.38973C23.1446 10.2249 23.6003 11.7904 24.546 13.5154ZM20.6536 14.7717C21.1937 15.8916 21.9206 17.0349 22.8996 18.0924C23.4813 18.7217 24.1534 19.3195 24.9243 19.8644C24.6174 19.8704 24.3104 19.8751 23.9999 19.8751C23.0626 19.8751 22.1406 19.8465 21.2376 19.796C20.4406 19.169 19.7755 18.4886 19.2236 17.7778C18.141 16.3865 17.4819 14.8799 17.0906 13.46C16.7456 12.2091 16.6088 11.0267 16.5683 10.0607C17.3986 9.89531 18.2742 9.75737 19.1867 9.64972C19.3391 10.9393 19.715 12.8212 20.6536 14.7717ZM10.8321 15.3896C12.5178 16.3038 14.8994 17.2912 17.7187 17.5993C17.902 17.8777 18.0971 18.1549 18.31 18.4273C18.6371 18.8479 19.0024 19.2589 19.4045 19.6568C18.2708 19.548 17.1716 19.4021 16.1223 19.2196C14.8055 18.9906 13.5646 18.7039 12.4155 18.3714C11.2294 17.886 10.2789 17.3287 9.63062 16.7494C9.26667 16.4246 8.99781 16.0957 8.82286 15.7733C8.64792 15.4509 8.56471 15.1369 8.56471 14.8174C8.56471 14.5676 8.61829 14.3207 8.72535 14.0703C9.19158 14.4076 9.90542 14.887 10.8321 15.3896ZM43.4621 13.526C43.2622 13.9299 42.9696 14.3374 42.5853 14.7394C41.912 15.4449 40.9532 16.1325 39.7541 16.7546C39.6649 16.8004 39.572 16.8462 39.4804 16.8921C39.641 16.6934 39.7802 16.4876 39.8967 16.2735C40.1441 15.8185 40.2834 15.3248 40.2821 14.8174C40.2834 14.3112 40.1441 13.817 39.8967 13.3619C39.4601 12.5618 38.7084 11.8701 37.7281 11.2593C36.4992 10.4973 34.898 9.86208 33.0243 9.37249L33.0232 9.32729C32.9732 9.32905 32.9256 9.33265 32.8769 9.3344C32.5509 9.25053 32.2167 9.17143 31.8741 9.0971C29.5031 8.58315 26.7682 8.2911 23.8548 8.2911C19.4128 8.29227 15.3918 8.96618 12.4309 10.0809C10.951 10.6412 9.73157 11.3092 8.85367 12.0913C8.41471 12.4827 8.06022 12.9056 7.81162 13.3618C7.56418 13.8168 7.42624 14.3111 7.42624 14.8174C7.42624 15.3247 7.56418 15.8184 7.81162 16.2734C7.88176 16.4012 7.96262 16.5262 8.04834 16.6481C7.80325 16.5172 7.56653 16.3828 7.34287 16.246C6.29596 15.6078 5.49298 14.9155 4.97074 14.2201C4.70899 13.8727 4.51631 13.5259 4.38782 13.1804C4.26176 12.8355 4.19747 12.4934 4.19747 12.1436C4.19747 11.6791 4.3093 11.2241 4.53773 10.7619C4.73879 10.3586 5.03026 9.95114 5.41564 9.54852C6.08779 8.84305 7.04655 8.156 8.24571 7.5339C10.0444 6.60059 12.3784 5.81493 15.0633 5.26942C17.7483 4.72215 20.7854 4.41286 23.9997 4.41286C26.7989 4.41286 29.4625 4.64782 31.8774 5.06836C35.4998 5.70008 38.5631 6.75996 40.6568 8.04182C41.7048 8.68066 42.5067 9.37366 43.0288 10.069C43.2906 10.4157 43.4832 10.7631 43.6117 11.1075C43.739 11.4525 43.8021 11.795 43.8021 12.1436C43.8023 12.6089 43.6905 13.0633 43.4621 13.526Z" fill="#FF8600" stroke="#FF8600" stroke-width="1.39509"/>
<path d="M28.0114 24.1355C27.5676 24.1711 27.2357 24.5441 27.2726 24.9688C27.3094 25.3941 27.7008 25.7099 28.1445 25.6755C28.5894 25.6398 28.9202 25.2668 28.8845 24.8416C28.8465 24.4168 28.4563 24.1004 28.0114 24.1355Z" fill="#FF8600" stroke="#FF8600" stroke-width="1.39509"/>
<path d="M24.4818 24.293C24.0357 24.2984 23.6776 24.6481 23.6835 25.0746C23.6883 25.5005 24.0547 25.8425 24.5008 25.8371C24.9469 25.8323 25.305 25.4832 25.2991 25.0561C25.2943 24.6303 24.928 24.2888 24.4818 24.293Z" fill="#FF8600" stroke="#FF8600" stroke-width="1.39509"/>
<path d="M13.9881 23.282C13.5539 23.1808 13.1173 23.4348 13.0114 23.8488C12.9056 24.2633 13.1708 24.6809 13.6051 24.782C14.0393 24.8832 14.4759 24.6292 14.5818 24.2145C14.6876 23.8006 14.4212 23.3831 13.9881 23.282Z" fill="#FF8600" stroke="#FF8600" stroke-width="1.39509"/>
<path d="M17.4356 23.8959C16.993 23.8382 16.5861 24.1338 16.5255 24.5567C16.4649 24.9791 16.7742 25.368 17.2167 25.4257C17.6593 25.484 18.0661 25.1878 18.1267 24.7655C18.1874 24.3432 17.8781 23.9536 17.4356 23.8959Z" fill="#FF8600" stroke="#FF8600" stroke-width="1.39509"/>
<path d="M20.9474 24.2181C20.5013 24.1936 20.1194 24.5184 20.0944 24.9443C20.0682 25.3695 20.4085 25.7354 20.8546 25.7604C21.2995 25.7847 21.6826 25.4594 21.7076 25.033C21.7337 24.6077 21.3924 24.2418 20.9474 24.2181Z" fill="#FF8600" stroke="#FF8600" stroke-width="1.39509"/>
<path d="M10.1433 21.9927C9.71025 21.8922 9.27364 22.1456 9.16784 22.5601C9.06187 22.9747 9.32721 23.3917 9.76148 23.494C10.1945 23.5939 10.6323 23.3404 10.7382 22.9259C10.8428 22.5119 10.5774 22.0943 10.1433 21.9927Z" fill="#FF8600" stroke="#FF8600" stroke-width="1.39509"/>
<path d="M7.59033 41.4266H40.4094V39.0117L7.59033 39.7559V41.4266Z" fill="#FF8600" stroke="#FF8600" stroke-width="1.39509"/>
<path d="M7.59033 44.3974L40.4094 45.1415V42.7266H7.59033V44.3974Z" fill="#FF8600" stroke="#FF8600" stroke-width="1.39509"/>
</svg>
